<svg xmlns="http://www.w3.org/2000/svg" viewBox="0 0 1737.04 459.29"><defs><style>.cls-1{fill:#fff;}</style></defs><title>Layer 14</title><g id="Layer_2" data-name="Layer 2"><g id="Layer_14" data-name="Layer 14"><ellipse class="cls-1" cx="591.49" cy="54.77" rx="30.12" ry="20.08"/><ellipse class="cls-1" cx="617.05" cy="71.2" rx="26.47" ry="16.43"/><ellipse class="cls-1" cx="640.78" cy="51.12" rx="26.47" ry="16.43"/><ellipse class="cls-1" cx="657.21" cy="74.85" rx="26.47" ry="16.43"/><ellipse class="cls-1" cx="558.63" cy="67.55" rx="26.47" ry="16.43"/><ellipse class="cls-1" cx="593.32" cy="87.63" rx="26.47" ry="16.43"/><ellipse class="cls-1" cx="591.49" cy="54.77" rx="30.12" ry="20.08"/><ellipse class="cls-1" cx="617.05" cy="71.2" rx="26.47" ry="16.43"/><ellipse class="cls-1" cx="640.78" cy="51.12" rx="26.47" ry="16.43"/><ellipse class="cls-1" cx="657.21" cy="74.85" rx="26.47" ry="16.43"/><ellipse class="cls-1" cx="558.63" cy="67.55" rx="26.47" ry="16.43"/><ellipse class="cls-1" cx="593.32" cy="87.63" rx="26.47" ry="16.43"/><ellipse class="cls-1" cx="591.49" cy="251.13" rx="30.12" ry="20.08"/><ellipse class="cls-1" cx="617.05" cy="267.56" rx="26.47" ry="16.43"/><ellipse class="cls-1" cx="640.78" cy="247.48" rx="26.47" ry="16.43"/><ellipse class="cls-1" cx="657.21" cy="271.21" rx="26.47" ry="16.43"/><ellipse class="cls-1" cx="558.63" cy="263.91" rx="26.47" ry="16.43"/><ellipse class="cls-1" cx="593.32" cy="283.99" rx="26.47" ry="16.43"/><ellipse class="cls-1" cx="591.49" cy="251.13" rx="30.12" ry="20.08"/><ellipse class="cls-1" cx="617.05" cy="267.56" rx="26.47" ry="16.43"/><ellipse class="cls-1" cx="640.78" cy="247.48" rx="26.47" ry="16.43"/><ellipse class="cls-1" cx="657.21" cy="271.21" rx="26.47" ry="16.43"/><ellipse class="cls-1" cx="558.63" cy="263.91" rx="26.47" ry="16.43"/><ellipse class="cls-1" cx="593.32" cy="283.99" rx="26.47" ry="16.43"/><ellipse class="cls-1" cx="850.64" cy="20.08" rx="30.12" ry="20.08"/><ellipse class="cls-1" cx="876.2" cy="36.51" rx="26.47" ry="16.43"/><ellipse class="cls-1" cx="899.93" cy="16.43" rx="26.47" ry="16.43"/><ellipse class="cls-1" cx="916.36" cy="40.16" rx="26.47" ry="16.43"/><ellipse class="cls-1" cx="817.78" cy="32.86" rx="26.47" ry="16.43"/><ellipse class="cls-1" cx="852.47" cy="52.94" rx="26.47" ry="16.43"/><ellipse class="cls-1" cx="850.64" cy="20.08" rx="30.12" ry="20.08"/><ellipse class="cls-1" cx="876.2" cy="36.51" rx="26.47" ry="16.43"/><ellipse class="cls-1" cx="899.93" cy="16.43" rx="26.47" ry="16.43"/><ellipse class="cls-1" cx="916.36" cy="40.16" rx="26.47" ry="16.43"/><ellipse class="cls-1" cx="817.78" cy="32.86" rx="26.47" ry="16.43"/><ellipse class="cls-1" cx="852.47" cy="52.94" rx="26.47" ry="16.43"/><ellipse class="cls-1" cx="1048.68" cy="312.95" rx="30.12" ry="20.08"/><ellipse class="cls-1" cx="1074.24" cy="329.38" rx="26.47" ry="16.43"/><ellipse class="cls-1" cx="1097.97" cy="309.3" rx="26.47" ry="16.43"/><ellipse class="cls-1" cx="1114.4" cy="333.03" rx="26.47" ry="16.43"/><ellipse class="cls-1" cx="1015.82" cy="325.73" rx="26.47" ry="16.43"/><ellipse class="cls-1" cx="1050.51" cy="345.81" rx="26.47" ry="16.43"/><ellipse class="cls-1" cx="1048.68" cy="312.95" rx="30.12" ry="20.08"/><ellipse class="cls-1" cx="1074.24" cy="329.38" rx="26.47" ry="16.43"/><ellipse class="cls-1" cx="1097.97" cy="309.3" rx="26.47" ry="16.43"/><ellipse class="cls-1" cx="1114.4" cy="333.03" rx="26.47" ry="16.43"/><ellipse class="cls-1" cx="1015.82" cy="325.73" rx="26.47" ry="16.43"/><ellipse class="cls-1" cx="1050.51" cy="345.81" rx="26.47" ry="16.43"/><ellipse class="cls-1" cx="817.35" cy="310.92" rx="30.12" ry="20.08"/><ellipse class="cls-1" cx="842.9" cy="327.35" rx="26.47" ry="16.43"/><ellipse class="cls-1" cx="866.64" cy="307.27" rx="26.47" ry="16.43"/><ellipse class="cls-1" cx="883.07" cy="331" rx="26.47" ry="16.43"/><ellipse class="cls-1" cx="784.49" cy="323.7" rx="26.47" ry="16.43"/><ellipse class="cls-1" cx="819.17" cy="343.78" rx="26.47" ry="16.43"/><ellipse class="cls-1" cx="817.35" cy="310.92" rx="30.12" ry="20.08"/><ellipse class="cls-1" cx="842.9" cy="327.35" rx="26.47" ry="16.43"/><ellipse class="cls-1" cx="866.64" cy="307.27" rx="26.47" ry="16.43"/><ellipse class="cls-1" cx="883.07" cy="331" rx="26.47" ry="16.43"/><ellipse class="cls-1" cx="784.49" cy="323.7" rx="26.47" ry="16.43"/><ellipse class="cls-1" cx="819.17" cy="343.78" rx="26.47" ry="16.43"/><ellipse class="cls-1" cx="381.55" cy="243.94" rx="30.12" ry="20.08"/><ellipse class="cls-1" cx="407.11" cy="260.37" rx="26.47" ry="16.43"/><ellipse class="cls-1" cx="430.84" cy="240.29" rx="26.47" ry="16.43"/><ellipse class="cls-1" cx="447.27" cy="264.02" rx="26.47" ry="16.43"/><ellipse class="cls-1" cx="348.69" cy="256.72" rx="26.47" ry="16.43"/><ellipse class="cls-1" cx="383.38" cy="276.8" rx="26.47" ry="16.43"/><ellipse class="cls-1" cx="381.55" cy="243.94" rx="30.12" ry="20.08"/><ellipse class="cls-1" cx="407.11" cy="260.37" rx="26.47" ry="16.43"/><ellipse class="cls-1" cx="430.84" cy="240.29" rx="26.47" ry="16.43"/><ellipse class="cls-1" cx="447.27" cy="264.02" rx="26.47" ry="16.43"/><ellipse class="cls-1" cx="348.69" cy="256.72" rx="26.47" ry="16.43"/><ellipse class="cls-1" cx="383.38" cy="276.8" rx="26.47" ry="16.43"/><ellipse class="cls-1" cx="216.33" cy="60.24" rx="30.12" ry="20.08"/><ellipse class="cls-1" cx="241.89" cy="76.67" rx="26.47" ry="16.43"/><ellipse class="cls-1" cx="265.62" cy="56.59" rx="26.47" ry="16.43"/><ellipse class="cls-1" cx="282.05" cy="80.33" rx="26.47" ry="16.43"/><ellipse class="cls-1" cx="183.47" cy="73.02" rx="26.47" ry="16.43"/><ellipse class="cls-1" cx="218.16" cy="93.1" rx="26.47" ry="16.43"/><ellipse class="cls-1" cx="216.33" cy="60.24" rx="30.12" ry="20.08"/><ellipse class="cls-1" cx="241.89" cy="76.67" rx="26.47" ry="16.43"/><ellipse class="cls-1" cx="265.62" cy="56.59" rx="26.47" ry="16.43"/><ellipse class="cls-1" cx="282.05" cy="80.33" rx="26.47" ry="16.43"/><ellipse class="cls-1" cx="183.47" cy="73.02" rx="26.47" ry="16.43"/><ellipse class="cls-1" cx="218.16" cy="93.1" rx="26.47" ry="16.43"/><ellipse class="cls-1" cx="1242.82" cy="167.91" rx="30.12" ry="20.08"/><ellipse class="cls-1" cx="1268.37" cy="184.34" rx="26.47" ry="16.43"/><ellipse class="cls-1" cx="1292.11" cy="164.26" rx="26.47" ry="16.43"/><ellipse class="cls-1" cx="1308.54" cy="187.99" rx="26.47" ry="16.43"/><ellipse class="cls-1" cx="1209.96" cy="180.69" rx="26.47" ry="16.43"/><ellipse class="cls-1" cx="1244.64" cy="200.77" rx="26.47" ry="16.43"/><ellipse class="cls-1" cx="1242.82" cy="167.91" rx="30.12" ry="20.08"/><ellipse class="cls-1" cx="1268.37" cy="184.34" rx="26.47" ry="16.43"/><ellipse class="cls-1" cx="1292.11" cy="164.26" rx="26.47" ry="16.43"/><ellipse class="cls-1" cx="1308.54" cy="187.99" rx="26.47" ry="16.43"/><ellipse class="cls-1" cx="1209.96" cy="180.69" rx="26.47" ry="16.43"/><ellipse class="cls-1" cx="1244.64" cy="200.77" rx="26.47" ry="16.43"/><ellipse class="cls-1" cx="926.41" cy="178.87" rx="30.12" ry="20.08"/><ellipse class="cls-1" cx="951.96" cy="195.3" rx="26.47" ry="16.43"/><ellipse class="cls-1" cx="975.7" cy="175.22" rx="26.47" ry="16.43"/><ellipse class="cls-1" cx="992.13" cy="198.95" rx="26.47" ry="16.43"/><ellipse class="cls-1" cx="893.54" cy="191.65" rx="26.47" ry="16.43"/><ellipse class="cls-1" cx="928.23" cy="211.73" rx="26.47" ry="16.43"/><ellipse class="cls-1" cx="926.41" cy="178.87" rx="30.12" ry="20.08"/><ellipse class="cls-1" cx="951.96" cy="195.3" rx="26.47" ry="16.43"/><ellipse class="cls-1" cx="975.7" cy="175.22" rx="26.47" ry="16.43"/><ellipse class="cls-1" cx="992.13" cy="198.95" rx="26.47" ry="16.43"/><ellipse class="cls-1" cx="893.54" cy="191.65" rx="26.47" ry="16.43"/><ellipse class="cls-1" cx="928.23" cy="211.73" rx="26.47" ry="16.43"/><ellipse class="cls-1" cx="1451" cy="91.28" rx="30.12" ry="20.08"/><ellipse class="cls-1" cx="1476.56" cy="107.71" rx="26.47" ry="16.43"/><ellipse class="cls-1" cx="1500.29" cy="87.63" rx="26.47" ry="16.43"/><ellipse class="cls-1" cx="1516.72" cy="111.36" rx="26.47" ry="16.43"/><ellipse class="cls-1" cx="1418.14" cy="104.06" rx="26.47" ry="16.43"/><ellipse class="cls-1" cx="1452.83" cy="124.14" rx="26.47" ry="16.43"/><ellipse class="cls-1" cx="1451" cy="91.28" rx="30.12" ry="20.08"/><ellipse class="cls-1" cx="1476.56" cy="107.71" rx="26.47" ry="16.43"/><ellipse class="cls-1" cx="1500.29" cy="87.63" rx="26.47" ry="16.43"/><ellipse class="cls-1" cx="1516.72" cy="111.36" rx="26.47" ry="16.43"/><ellipse class="cls-1" cx="1418.14" cy="104.06" rx="26.47" ry="16.43"/><ellipse class="cls-1" cx="1452.83" cy="124.14" rx="26.47" ry="16.43"/><ellipse class="cls-1" cx="1644.84" cy="164.26" rx="30.12" ry="20.08"/><ellipse class="cls-1" cx="1670.4" cy="180.69" rx="26.47" ry="16.43"/><ellipse class="cls-1" cx="1694.13" cy="160.61" rx="26.47" ry="16.43"/><ellipse class="cls-1" cx="1710.56" cy="184.34" rx="26.47" ry="16.43"/><ellipse class="cls-1" cx="1611.98" cy="177.04" rx="26.47" ry="16.43"/><ellipse class="cls-1" cx="1625.93" cy="246.56" rx="26.47" ry="16.43"/><ellipse class="cls-1" cx="1644.84" cy="164.26" rx="30.12" ry="20.08"/><ellipse class="cls-1" cx="1670.4" cy="180.69" rx="26.47" ry="16.43"/><ellipse class="cls-1" cx="1694.13" cy="160.61" rx="26.47" ry="16.43"/><ellipse class="cls-1" cx="1710.56" cy="184.34" rx="26.47" ry="16.43"/><ellipse class="cls-1" cx="1611.98" cy="177.04" rx="26.47" ry="16.43"/><ellipse class="cls-1" cx="1625.93" cy="246.56" rx="26.47" ry="16.43"/><ellipse class="cls-1" cx="59.33" cy="40.16" rx="30.12" ry="20.08"/><ellipse class="cls-1" cx="84.89" cy="56.59" rx="26.47" ry="16.43"/><ellipse class="cls-1" cx="108.62" cy="36.51" rx="26.47" ry="16.43"/><ellipse class="cls-1" cx="125.05" cy="60.24" rx="26.47" ry="16.43"/><ellipse class="cls-1" cx="26.47" cy="52.94" rx="26.47" ry="16.43"/><ellipse class="cls-1" cx="61.16" cy="73.02" rx="26.47" ry="16.43"/><ellipse class="cls-1" cx="59.33" cy="40.16" rx="30.12" ry="20.08"/><ellipse class="cls-1" cx="84.89" cy="56.59" rx="26.47" ry="16.43"/><ellipse class="cls-1" cx="108.62" cy="36.51" rx="26.47" ry="16.43"/><ellipse class="cls-1" cx="125.05" cy="60.24" rx="26.47" ry="16.43"/><ellipse class="cls-1" cx="26.47" cy="52.94" rx="26.47" ry="16.43"/><ellipse class="cls-1" cx="61.16" cy="73.02" rx="26.47" ry="16.43"/><ellipse class="cls-1" cx="82.15" cy="367.51" rx="30.12" ry="20.08"/><ellipse class="cls-1" cx="107.71" cy="383.94" rx="26.47" ry="16.43"/><ellipse class="cls-1" cx="131.44" cy="363.86" rx="26.47" ry="16.43"/><ellipse class="cls-1" cx="147.87" cy="387.59" rx="26.47" ry="16.43"/><ellipse class="cls-1" cx="49.29" cy="380.29" rx="26.47" ry="16.43"/><ellipse class="cls-1" cx="83.98" cy="400.37" rx="26.47" ry="16.43"/><ellipse class="cls-1" cx="82.15" cy="367.51" rx="30.12" ry="20.08"/><ellipse class="cls-1" cx="107.71" cy="383.94" rx="26.47" ry="16.43"/><ellipse class="cls-1" cx="131.44" cy="363.86" rx="26.47" ry="16.43"/><ellipse class="cls-1" cx="147.87" cy="387.59" rx="26.47" ry="16.43"/><ellipse class="cls-1" cx="49.29" cy="380.29" rx="26.47" ry="16.43"/><ellipse class="cls-1" cx="83.98" cy="400.37" rx="26.47" ry="16.43"/><ellipse class="cls-1" cx="1551.59" cy="263" rx="30.12" ry="20.08"/><ellipse class="cls-1" cx="1577.15" cy="279.43" rx="26.47" ry="16.43"/><ellipse class="cls-1" cx="1600.88" cy="259.34" rx="26.47" ry="16.43"/><ellipse class="cls-1" cx="1617.31" cy="283.08" rx="26.47" ry="16.43"/><ellipse class="cls-1" cx="1518.73" cy="275.77" rx="26.47" ry="16.43"/><ellipse class="cls-1" cx="1553.42" cy="295.86" rx="26.47" ry="16.43"/><ellipse class="cls-1" cx="1551.59" cy="263" rx="30.12" ry="20.08"/><ellipse class="cls-1" cx="1577.15" cy="279.43" rx="26.47" ry="16.43"/><ellipse class="cls-1" cx="1600.88" cy="259.34" rx="26.47" ry="16.43"/><ellipse class="cls-1" cx="1617.31" cy="283.08" rx="26.47" ry="16.43"/><ellipse class="cls-1" cx="1518.73" cy="275.77" rx="26.47" ry="16.43"/><ellipse class="cls-1" cx="1553.42" cy="295.86" rx="26.47" ry="16.43"/><ellipse class="cls-1" cx="118.66" cy="349.25" rx="30.12" ry="20.08"/><ellipse class="cls-1" cx="144.22" cy="365.68" rx="26.47" ry="16.43"/><ellipse class="cls-1" cx="167.95" cy="345.6" rx="26.47" ry="16.43"/><ellipse class="cls-1" cx="184.38" cy="369.33" rx="26.47" ry="16.43"/><ellipse class="cls-1" cx="85.8" cy="362.03" rx="26.47" ry="16.43"/><ellipse class="cls-1" cx="120.49" cy="382.11" rx="26.47" ry="16.43"/><ellipse class="cls-1" cx="118.66" cy="349.25" rx="30.12" ry="20.08"/><ellipse class="cls-1" cx="144.22" cy="365.68" rx="26.47" ry="16.43"/><ellipse class="cls-1" cx="167.95" cy="345.6" rx="26.47" ry="16.43"/><ellipse class="cls-1" cx="184.38" cy="369.33" rx="26.47" ry="16.43"/><ellipse class="cls-1" cx="85.8" cy="362.03" rx="26.47" ry="16.43"/><ellipse class="cls-1" cx="120.49" cy="382.11" rx="26.47" ry="16.43"/><ellipse class="cls-1" cx="1333.18" cy="410" rx="30.12" ry="20.08"/><ellipse class="cls-1" cx="1358.74" cy="426.43" rx="26.47" ry="16.43"/><ellipse class="cls-1" cx="1382.47" cy="406.35" rx="26.47" ry="16.43"/><ellipse class="cls-1" cx="1398.9" cy="430.08" rx="26.47" ry="16.43"/><ellipse class="cls-1" cx="1300.32" cy="422.78" rx="26.47" ry="16.43"/><ellipse class="cls-1" cx="1335.01" cy="442.86" rx="26.47" ry="16.43"/><ellipse class="cls-1" cx="1333.18" cy="410" rx="30.12" ry="20.08"/><ellipse class="cls-1" cx="1358.74" cy="426.43" rx="26.47" ry="16.43"/><ellipse class="cls-1" cx="1382.47" cy="406.35" rx="26.47" ry="16.43"/><ellipse class="cls-1" cx="1398.9" cy="430.08" rx="26.47" ry="16.43"/><ellipse class="cls-1" cx="1300.32" cy="422.78" rx="26.47" ry="16.43"/><ellipse class="cls-1" cx="1335.01" cy="442.86" rx="26.47" ry="16.43"/><ellipse class="cls-1" cx="1369.69" cy="391.75" rx="30.12" ry="20.08"/><ellipse class="cls-1" cx="1395.25" cy="408.18" rx="26.47" ry="16.43"/><ellipse class="cls-1" cx="1418.98" cy="388.1" rx="26.47" ry="16.43"/><ellipse class="cls-1" cx="1435.41" cy="411.83" rx="26.47" ry="16.43"/><ellipse class="cls-1" cx="1336.83" cy="404.53" rx="26.47" ry="16.43"/><ellipse class="cls-1" cx="1371.52" cy="424.61" rx="26.47" ry="16.43"/><ellipse class="cls-1" cx="1369.69" cy="391.75" rx="30.12" ry="20.08"/><ellipse class="cls-1" cx="1395.25" cy="408.18" rx="26.47" ry="16.43"/><ellipse class="cls-1" cx="1418.98" cy="388.1" rx="26.47" ry="16.43"/><ellipse class="cls-1" cx="1435.41" cy="411.83" rx="26.47" ry="16.43"/><ellipse class="cls-1" cx="1336.83" cy="404.53" rx="26.47" ry="16.43"/><ellipse class="cls-1" cx="1371.52" cy="424.61" rx="26.47" ry="16.43"/></g></g></svg>