<svg xmlns="http://www.w3.org/2000/svg" viewBox="0 0 768.36 1365.46"><defs><style>.cls-1{fill:#00a2ae;}.cls-2{fill:#222;}.cls-3{fill:#838383;}.cls-4{fill:#288848;}.cls-5{fill:#a8a8a8;}.cls-6{fill:#c4c4c4;}.cls-7{fill:#fff;}</style></defs><title>Layer 16</title><g id="Layer_2" data-name="Layer 2"><g id="Layer_16" data-name="Layer 16"><path class="cls-1" d="M0,1263.1H767.71v102.36H0Z"/><rect class="cls-2" x="0.66" width="767.71" height="1364.81"/><path class="cls-3" d="M0,1076.09H767.71v27.73H0Z"/><path class="cls-1" d="M0,1263.1H767.71v102.36H0Z"/><path class="cls-4" d="M0,1103.82H767.71V1263.1H0Z"/><rect class="cls-5" x="13.3" y="694.37" width="113.02" height="381.72"/><rect class="cls-6" x="128.45" y="786.07" width="113.02" height="290.02"/><rect class="cls-5" x="243.61" y="621.87" width="113.02" height="454.23"/><rect class="cls-6" x="358.76" y="843.65" width="113.02" height="232.44"/><rect class="cls-7" x="363.03" y="850.05" width="23.46" height="31.99"/><rect class="cls-7" x="390.75" y="850.05" width="21.33" height="31.99"/><rect class="cls-7" x="416.34" y="850.05" width="23.46" height="31.99"/><rect class="cls-7" x="363.03" y="886.3" width="23.46" height="31.99"/><rect class="cls-7" x="390.75" y="886.3" width="21.33" height="31.99"/><rect class="cls-7" x="416.34" y="886.3" width="23.46" height="31.99"/><rect class="cls-7" x="363.03" y="922.55" width="23.46" height="31.99"/><rect class="cls-7" x="390.75" y="922.55" width="21.33" height="31.99"/><rect class="cls-7" x="416.34" y="922.55" width="23.46" height="31.99"/><rect class="cls-7" x="363.03" y="958.8" width="23.46" height="31.99"/><rect class="cls-7" x="390.75" y="958.8" width="21.33" height="31.99"/><rect class="cls-7" x="416.34" y="958.8" width="23.46" height="31.99"/><rect class="cls-7" x="363.03" y="995.06" width="23.46" height="31.99"/><rect class="cls-7" x="363.03" y="1031.31" width="23.46" height="31.99"/><rect class="cls-7" x="390.75" y="995.06" width="21.33" height="31.99"/><rect class="cls-7" x="390.75" y="1031.31" width="21.33" height="31.99"/><rect class="cls-7" x="416.34" y="995.06" width="23.46" height="31.99"/><rect class="cls-7" x="444.06" y="850.05" width="23.46" height="31.99"/><rect class="cls-7" x="444.06" y="886.3" width="23.46" height="31.99"/><rect class="cls-7" x="444.06" y="922.55" width="23.46" height="31.99"/><rect class="cls-7" x="444.06" y="958.8" width="23.46" height="31.99"/><rect class="cls-7" x="444.06" y="995.06" width="23.46" height="31.99"/><rect class="cls-7" x="132.72" y="790.33" width="23.46" height="31.99"/><rect class="cls-7" x="160.44" y="790.33" width="21.33" height="31.99"/><rect class="cls-7" x="186.03" y="790.33" width="23.46" height="31.99"/><rect class="cls-7" x="132.72" y="826.59" width="23.46" height="31.99"/><rect class="cls-7" x="160.44" y="826.59" width="21.33" height="31.99"/><rect class="cls-7" x="186.03" y="826.59" width="23.46" height="31.99"/><rect class="cls-7" x="132.72" y="862.84" width="23.46" height="31.99"/><rect class="cls-7" x="160.44" y="862.84" width="21.33" height="31.99"/><rect class="cls-7" x="186.03" y="862.84" width="23.46" height="31.99"/><rect class="cls-7" x="132.72" y="899.09" width="23.46" height="31.99"/><rect class="cls-7" x="160.44" y="899.09" width="21.33" height="31.99"/><rect class="cls-7" x="186.03" y="899.09" width="23.46" height="31.99"/><rect class="cls-7" x="132.72" y="935.35" width="23.46" height="31.99"/><rect class="cls-7" x="160.44" y="935.35" width="21.33" height="31.99"/><rect class="cls-7" x="186.03" y="935.35" width="23.46" height="31.99"/><rect class="cls-7" x="213.75" y="790.33" width="23.46" height="31.99"/><rect class="cls-7" x="213.75" y="826.59" width="23.46" height="31.99"/><rect class="cls-7" x="213.75" y="862.84" width="23.46" height="31.99"/><rect class="cls-7" x="213.75" y="899.09" width="23.46" height="31.99"/><rect class="cls-7" x="213.75" y="935.35" width="23.46" height="31.99"/><rect class="cls-7" x="132.72" y="971.6" width="23.46" height="31.99"/><rect class="cls-7" x="160.44" y="971.6" width="21.33" height="31.99"/><rect class="cls-7" x="186.03" y="971.6" width="23.46" height="31.99"/><rect class="cls-7" x="132.72" y="1007.85" width="23.46" height="31.99"/><rect class="cls-7" x="160.44" y="1007.85" width="21.33" height="31.99"/><rect class="cls-7" x="186.03" y="1007.85" width="23.46" height="31.99"/><rect class="cls-7" x="213.75" y="971.6" width="23.46" height="31.99"/><rect class="cls-7" x="213.75" y="1007.85" width="23.46" height="31.99"/><rect class="cls-7" x="17.56" y="700.77" width="23.46" height="31.99"/><rect class="cls-7" x="45.28" y="700.77" width="21.33" height="31.99"/><rect class="cls-7" x="70.87" y="700.77" width="23.46" height="31.99"/><rect class="cls-7" x="17.56" y="737.02" width="23.46" height="31.99"/><rect class="cls-7" x="45.28" y="737.02" width="21.33" height="31.99"/><rect class="cls-7" x="70.87" y="737.02" width="23.46" height="31.99"/><rect class="cls-7" x="17.56" y="773.27" width="23.46" height="31.99"/><rect class="cls-7" x="45.28" y="773.27" width="21.33" height="31.99"/><rect class="cls-7" x="70.87" y="773.27" width="23.46" height="31.99"/><rect class="cls-7" x="17.56" y="809.53" width="23.46" height="31.99"/><rect class="cls-7" x="45.28" y="809.53" width="21.33" height="31.99"/><rect class="cls-7" x="70.87" y="809.53" width="23.46" height="31.99"/><rect class="cls-7" x="17.56" y="845.78" width="23.46" height="31.99"/><rect class="cls-7" x="45.28" y="845.78" width="21.33" height="31.99"/><rect class="cls-7" x="70.87" y="845.78" width="23.46" height="31.99"/><rect class="cls-7" x="98.6" y="700.77" width="23.46" height="31.99"/><rect class="cls-7" x="98.6" y="737.02" width="23.46" height="31.99"/><rect class="cls-7" x="98.6" y="773.27" width="23.46" height="31.99"/><rect class="cls-7" x="98.6" y="809.53" width="23.46" height="31.99"/><rect class="cls-7" x="98.6" y="845.78" width="23.46" height="31.99"/><rect class="cls-7" x="17.56" y="882.03" width="23.46" height="31.99"/><rect class="cls-7" x="45.28" y="882.03" width="21.33" height="31.99"/><rect class="cls-7" x="70.87" y="882.03" width="23.46" height="31.99"/><rect class="cls-7" x="17.56" y="918.29" width="23.46" height="31.99"/><rect class="cls-7" x="45.28" y="918.29" width="21.33" height="31.99"/><rect class="cls-7" x="70.87" y="918.29" width="23.46" height="31.99"/><rect class="cls-7" x="98.6" y="882.03" width="23.46" height="31.99"/><rect class="cls-7" x="98.6" y="918.29" width="23.46" height="31.99"/><rect class="cls-7" x="17.56" y="954.54" width="23.46" height="31.99"/><rect class="cls-7" x="45.28" y="954.54" width="21.33" height="31.99"/><rect class="cls-7" x="70.87" y="954.54" width="23.46" height="31.99"/><rect class="cls-7" x="17.56" y="990.79" width="23.46" height="31.99"/><rect class="cls-7" x="45.28" y="990.79" width="21.33" height="31.99"/><rect class="cls-7" x="70.87" y="990.79" width="23.46" height="31.99"/><rect class="cls-7" x="98.6" y="954.54" width="23.46" height="31.99"/><rect class="cls-7" x="98.6" y="990.79" width="23.46" height="31.99"/><rect class="cls-7" x="247.87" y="626.13" width="23.46" height="31.99"/><rect class="cls-7" x="275.6" y="626.13" width="21.33" height="31.99"/><rect class="cls-7" x="301.19" y="626.13" width="23.46" height="31.99"/><rect class="cls-7" x="247.87" y="662.38" width="23.46" height="31.99"/><rect class="cls-7" x="275.6" y="662.38" width="21.33" height="31.99"/><rect class="cls-7" x="301.19" y="662.38" width="23.46" height="31.99"/><rect class="cls-7" x="247.87" y="698.64" width="23.46" height="31.99"/><rect class="cls-7" x="275.6" y="698.64" width="21.33" height="31.99"/><rect class="cls-7" x="301.19" y="698.64" width="23.46" height="31.99"/><rect class="cls-7" x="247.87" y="734.89" width="23.46" height="31.99"/><rect class="cls-7" x="275.6" y="734.89" width="21.33" height="31.99"/><rect class="cls-7" x="301.19" y="734.89" width="23.46" height="31.99"/><rect class="cls-7" x="247.87" y="771.14" width="23.46" height="31.99"/><rect class="cls-7" x="275.6" y="771.14" width="21.33" height="31.99"/><rect class="cls-7" x="301.19" y="771.14" width="23.46" height="31.99"/><rect class="cls-7" x="328.91" y="626.13" width="23.46" height="31.99"/><rect class="cls-7" x="328.91" y="662.38" width="23.46" height="31.99"/><rect class="cls-7" x="328.91" y="698.64" width="23.46" height="31.99"/><rect class="cls-7" x="328.91" y="734.89" width="23.46" height="31.99"/><rect class="cls-7" x="328.91" y="771.14" width="23.46" height="31.99"/><rect class="cls-7" x="247.87" y="807.4" width="23.46" height="31.99"/><rect class="cls-7" x="275.6" y="807.4" width="21.33" height="31.99"/><rect class="cls-7" x="301.19" y="807.4" width="23.46" height="31.99"/><rect class="cls-7" x="247.87" y="843.65" width="23.46" height="31.99"/><rect class="cls-7" x="275.6" y="843.65" width="21.33" height="31.99"/><rect class="cls-7" x="301.19" y="843.65" width="23.46" height="31.99"/><rect class="cls-7" x="328.91" y="807.4" width="23.46" height="31.99"/><rect class="cls-7" x="328.91" y="843.65" width="23.46" height="31.99"/><rect class="cls-7" x="247.87" y="879.9" width="23.46" height="31.99"/><rect class="cls-7" x="275.6" y="879.9" width="21.33" height="31.99"/><rect class="cls-7" x="301.19" y="879.9" width="23.46" height="31.99"/><rect class="cls-7" x="247.87" y="916.15" width="23.46" height="31.99"/><rect class="cls-7" x="275.6" y="916.15" width="21.33" height="31.99"/><rect class="cls-7" x="301.19" y="916.15" width="23.46" height="31.99"/><rect class="cls-7" x="328.91" y="879.9" width="23.46" height="31.99"/><rect class="cls-7" x="328.91" y="916.15" width="23.46" height="31.99"/><rect class="cls-7" x="247.87" y="952.41" width="23.46" height="31.99"/><rect class="cls-7" x="275.6" y="952.41" width="21.33" height="31.99"/><rect class="cls-7" x="301.19" y="952.41" width="23.46" height="31.99"/><rect class="cls-7" x="247.87" y="988.66" width="23.46" height="31.99"/><rect class="cls-7" x="275.6" y="988.66" width="21.33" height="31.99"/><rect class="cls-7" x="301.19" y="988.66" width="23.46" height="31.99"/><rect class="cls-7" x="328.91" y="952.41" width="23.46" height="31.99"/><rect class="cls-7" x="328.91" y="988.66" width="23.46" height="31.99"/><rect class="cls-7" x="328.91" y="1024.91" width="23.46" height="31.99"/><rect class="cls-7" x="70.87" y="1027.04" width="23.46" height="31.99"/><rect class="cls-7" x="98.6" y="1027.04" width="23.46" height="31.99"/><rect class="cls-7" x="258.54" y="1044.1" width="23.46" height="31.99"/><rect class="cls-7" x="30.36" y="1044.1" width="19.19" height="31.99"/><rect class="cls-7" x="173.23" y="1044.1" width="19.19" height="31.99"/><rect class="cls-7" x="433.4" y="1044.1" width="19.19" height="31.99"/><rect class="cls-7" x="363.03" y="850.05" width="23.46" height="31.99"/><rect class="cls-7" x="390.75" y="850.05" width="21.33" height="31.99"/><rect class="cls-7" x="416.34" y="850.05" width="23.46" height="31.99"/><rect class="cls-7" x="363.03" y="886.3" width="23.46" height="31.99"/><rect class="cls-7" x="390.75" y="886.3" width="21.33" height="31.99"/><rect class="cls-7" x="416.34" y="886.3" width="23.46" height="31.99"/><rect class="cls-7" x="363.03" y="922.55" width="23.46" height="31.99"/><rect class="cls-7" x="390.75" y="922.55" width="21.33" height="31.99"/><rect class="cls-7" x="416.34" y="922.55" width="23.46" height="31.99"/><rect class="cls-7" x="363.03" y="958.8" width="23.46" height="31.99"/><rect class="cls-7" x="390.75" y="958.8" width="21.33" height="31.99"/><rect class="cls-7" x="416.34" y="958.8" width="23.46" height="31.99"/><rect class="cls-7" x="363.03" y="995.06" width="23.46" height="31.99"/><rect class="cls-7" x="363.03" y="1031.31" width="23.46" height="31.99"/><rect class="cls-7" x="390.75" y="995.06" width="21.33" height="31.99"/><rect class="cls-7" x="390.75" y="1031.31" width="21.33" height="31.99"/><rect class="cls-7" x="416.34" y="995.06" width="23.46" height="31.99"/><rect class="cls-7" x="444.06" y="850.05" width="23.46" height="31.99"/><rect class="cls-7" x="444.06" y="886.3" width="23.46" height="31.99"/><rect class="cls-7" x="444.06" y="922.55" width="23.46" height="31.99"/><rect class="cls-7" x="444.06" y="958.8" width="23.46" height="31.99"/><rect class="cls-7" x="444.06" y="995.06" width="23.46" height="31.99"/><rect class="cls-7" x="132.72" y="790.33" width="23.46" height="31.99"/><rect class="cls-7" x="160.44" y="790.33" width="21.33" height="31.99"/><rect class="cls-7" x="186.03" y="790.33" width="23.46" height="31.99"/><rect class="cls-7" x="132.72" y="826.59" width="23.46" height="31.99"/><rect class="cls-7" x="160.44" y="826.59" width="21.33" height="31.99"/><rect class="cls-7" x="186.03" y="826.59" width="23.46" height="31.99"/><rect class="cls-7" x="132.72" y="862.84" width="23.46" height="31.99"/><rect class="cls-7" x="160.44" y="862.84" width="21.33" height="31.99"/><rect class="cls-7" x="186.03" y="862.84" width="23.46" height="31.99"/><rect class="cls-7" x="132.72" y="899.09" width="23.46" height="31.99"/><rect class="cls-7" x="160.44" y="899.09" width="21.33" height="31.99"/><rect class="cls-7" x="186.03" y="899.09" width="23.46" height="31.99"/><rect class="cls-7" x="132.72" y="935.35" width="23.46" height="31.99"/><rect class="cls-7" x="160.44" y="935.35" width="21.33" height="31.99"/><rect class="cls-7" x="186.03" y="935.35" width="23.46" height="31.99"/><rect class="cls-7" x="213.75" y="790.33" width="23.46" height="31.99"/><rect class="cls-7" x="213.75" y="826.59" width="23.46" height="31.99"/><rect class="cls-7" x="213.75" y="862.84" width="23.46" height="31.99"/><rect class="cls-7" x="213.75" y="899.09" width="23.46" height="31.99"/><rect class="cls-7" x="213.75" y="935.35" width="23.46" height="31.99"/><rect class="cls-7" x="132.72" y="971.6" width="23.46" height="31.99"/><rect class="cls-7" x="160.44" y="971.6" width="21.33" height="31.99"/><rect class="cls-7" x="186.03" y="971.6" width="23.46" height="31.99"/><rect class="cls-7" x="132.72" y="1007.85" width="23.46" height="31.99"/><rect class="cls-7" x="160.44" y="1007.85" width="21.33" height="31.99"/><rect class="cls-7" x="186.03" y="1007.85" width="23.46" height="31.99"/><rect class="cls-7" x="213.75" y="971.6" width="23.46" height="31.99"/><rect class="cls-7" x="213.75" y="1007.85" width="23.46" height="31.99"/><rect class="cls-7" x="17.56" y="700.77" width="23.46" height="31.99"/><rect class="cls-7" x="45.28" y="700.77" width="21.33" height="31.99"/><rect class="cls-7" x="70.87" y="700.77" width="23.46" height="31.99"/><rect class="cls-7" x="17.56" y="737.02" width="23.46" height="31.99"/><rect class="cls-7" x="45.28" y="737.02" width="21.33" height="31.99"/><rect class="cls-7" x="70.87" y="737.02" width="23.46" height="31.99"/><rect class="cls-7" x="17.56" y="773.27" width="23.46" height="31.99"/><rect class="cls-7" x="45.28" y="773.27" width="21.33" height="31.99"/><rect class="cls-7" x="70.87" y="773.27" width="23.46" height="31.99"/><rect class="cls-7" x="17.56" y="809.53" width="23.46" height="31.99"/><rect class="cls-7" x="45.28" y="809.53" width="21.33" height="31.99"/><rect class="cls-7" x="70.87" y="809.53" width="23.46" height="31.99"/><rect class="cls-7" x="17.56" y="845.78" width="23.46" height="31.99"/><rect class="cls-7" x="45.28" y="845.78" width="21.33" height="31.99"/><rect class="cls-7" x="70.87" y="845.78" width="23.46" height="31.99"/><rect class="cls-7" x="98.6" y="700.77" width="23.46" height="31.99"/><rect class="cls-7" x="98.6" y="737.02" width="23.46" height="31.99"/><rect class="cls-7" x="98.6" y="773.27" width="23.46" height="31.99"/><rect class="cls-7" x="98.6" y="809.53" width="23.46" height="31.99"/><rect class="cls-7" x="98.6" y="845.78" width="23.46" height="31.99"/><rect class="cls-7" x="17.56" y="882.03" width="23.46" height="31.99"/><rect class="cls-7" x="45.28" y="882.03" width="21.33" height="31.99"/><rect class="cls-7" x="70.87" y="882.03" width="23.46" height="31.99"/><rect class="cls-7" x="17.56" y="918.29" width="23.46" height="31.99"/><rect class="cls-7" x="45.28" y="918.29" width="21.33" height="31.99"/><rect class="cls-7" x="70.87" y="918.29" width="23.46" height="31.99"/><rect class="cls-7" x="98.6" y="882.03" width="23.46" height="31.99"/><rect class="cls-7" x="98.6" y="918.29" width="23.46" height="31.99"/><rect class="cls-7" x="17.56" y="954.54" width="23.46" height="31.99"/><rect class="cls-7" x="45.28" y="954.54" width="21.33" height="31.99"/><rect class="cls-7" x="70.87" y="954.54" width="23.46" height="31.99"/><rect class="cls-7" x="17.56" y="990.79" width="23.46" height="31.99"/><rect class="cls-7" x="45.28" y="990.79" width="21.33" height="31.99"/><rect class="cls-7" x="70.87" y="990.79" width="23.46" height="31.99"/><rect class="cls-7" x="98.6" y="954.54" width="23.46" height="31.99"/><rect class="cls-7" x="98.6" y="990.79" width="23.46" height="31.99"/><rect class="cls-7" x="247.87" y="626.13" width="23.46" height="31.99"/><rect class="cls-7" x="275.6" y="626.13" width="21.33" height="31.99"/><rect class="cls-7" x="301.19" y="626.13" width="23.46" height="31.99"/><rect class="cls-7" x="247.87" y="662.38" width="23.46" height="31.99"/><rect class="cls-7" x="275.6" y="662.38" width="21.33" height="31.99"/><rect class="cls-7" x="301.19" y="662.38" width="23.46" height="31.99"/><rect class="cls-7" x="247.87" y="698.64" width="23.46" height="31.99"/><rect class="cls-7" x="275.6" y="698.64" width="21.33" height="31.99"/><rect class="cls-7" x="301.19" y="698.64" width="23.46" height="31.99"/><rect class="cls-7" x="247.87" y="734.89" width="23.46" height="31.99"/><rect class="cls-7" x="275.6" y="734.89" width="21.33" height="31.99"/><rect class="cls-7" x="301.19" y="734.89" width="23.46" height="31.99"/><rect class="cls-7" x="247.87" y="771.14" width="23.46" height="31.99"/><rect class="cls-7" x="275.6" y="771.14" width="21.33" height="31.99"/><rect class="cls-7" x="301.19" y="771.14" width="23.46" height="31.99"/><rect class="cls-7" x="328.91" y="626.13" width="23.46" height="31.99"/><rect class="cls-7" x="328.91" y="662.38" width="23.46" height="31.99"/><rect class="cls-7" x="328.91" y="698.64" width="23.46" height="31.99"/><rect class="cls-7" x="328.91" y="734.89" width="23.46" height="31.99"/><rect class="cls-7" x="328.91" y="771.14" width="23.46" height="31.99"/><rect class="cls-7" x="247.87" y="807.4" width="23.46" height="31.99"/><rect class="cls-7" x="275.6" y="807.4" width="21.33" height="31.99"/><rect class="cls-7" x="301.19" y="807.4" width="23.46" height="31.99"/><rect class="cls-7" x="247.87" y="843.65" width="23.46" height="31.99"/><rect class="cls-7" x="275.6" y="843.65" width="21.33" height="31.99"/><rect class="cls-7" x="301.19" y="843.65" width="23.46" height="31.99"/><rect class="cls-7" x="328.91" y="807.4" width="23.46" height="31.99"/><rect class="cls-7" x="328.91" y="843.65" width="23.46" height="31.99"/><rect class="cls-7" x="247.87" y="879.9" width="23.46" height="31.99"/><rect class="cls-7" x="275.6" y="879.9" width="21.33" height="31.99"/><rect class="cls-7" x="301.19" y="879.9" width="23.46" height="31.99"/><rect class="cls-7" x="247.87" y="916.15" width="23.46" height="31.99"/><rect class="cls-7" x="275.6" y="916.15" width="21.33" height="31.99"/><rect class="cls-7" x="301.19" y="916.15" width="23.46" height="31.99"/><rect class="cls-7" x="328.91" y="879.9" width="23.46" height="31.99"/><rect class="cls-7" x="328.91" y="916.15" width="23.46" height="31.99"/><rect class="cls-7" x="247.87" y="952.41" width="23.46" height="31.99"/><rect class="cls-7" x="275.6" y="952.41" width="21.33" height="31.99"/><rect class="cls-7" x="301.19" y="952.41" width="23.46" height="31.99"/><rect class="cls-7" x="247.87" y="988.66" width="23.46" height="31.99"/><rect class="cls-7" x="275.6" y="988.66" width="21.33" height="31.99"/><rect class="cls-7" x="301.19" y="988.66" width="23.46" height="31.99"/><rect class="cls-7" x="328.91" y="952.41" width="23.46" height="31.99"/><rect class="cls-7" x="328.91" y="988.66" width="23.46" height="31.99"/><rect class="cls-7" x="328.91" y="1024.91" width="23.46" height="31.99"/><rect class="cls-7" x="70.87" y="1027.04" width="23.46" height="31.99"/><rect class="cls-7" x="98.6" y="1027.04" width="23.46" height="31.99"/><rect class="cls-7" x="258.54" y="1044.1" width="23.46" height="31.99"/><rect class="cls-7" x="30.36" y="1044.1" width="19.19" height="31.99"/><rect class="cls-7" x="173.23" y="1044.1" width="19.19" height="31.99"/><rect class="cls-7" x="433.4" y="1044.1" width="19.19" height="31.99"/></g></g></svg>