<svg xmlns="http://www.w3.org/2000/svg" viewBox="0 0 147 300"><defs><style>.cls-1{fill:#fff;}.cls-2{fill:#595959;}</style></defs><title>Layer 20</title><g id="Layer_2" data-name="Layer 2"><g id="Layer_20" data-name="Layer 20"><path class="cls-1" d="M51.5,216l21.22,42H30.28Z"/><path class="cls-1" d="M90.5,216l21.22,42H69.28Z"/><rect class="cls-2" y="257" width="147" height="43"/><rect class="cls-1" x="51" y="117" width="40" height="140"/><path class="cls-1" d="M71.5,0,92.72,117.75H50.28Z"/><circle cx="72.5" cy="133.5" r="10.5"/><circle cx="72.5" cy="167.5" r="10.5"/><path class="cls-1" d="M51.5,216l21.22,42H30.28Z"/><path class="cls-1" d="M90.5,216l21.22,42H69.28Z"/><rect class="cls-2" y="257" width="147" height="43"/><rect class="cls-1" x="51" y="117" width="40" height="140"/><path class="cls-1" d="M71.5,0,92.72,117.75H50.28Z"/><circle cx="72.5" cy="133.5" r="10.5"/><circle cx="72.5" cy="167.5" r="10.5"/><path class="cls-1" d="M51.5,216l21.22,42H30.28Z"/><path class="cls-1" d="M90.5,216l21.22,42H69.28Z"/><rect class="cls-2" y="257" width="147" height="43"/><rect class="cls-1" x="51" y="117" width="40" height="140"/><path class="cls-1" d="M71.5,0,92.72,117.75H50.28Z"/><circle cx="72.5" cy="133.5" r="10.5"/><circle cx="72.5" cy="167.5" r="10.5"/><path class="cls-1" d="M51.5,216l21.22,42H30.28Z"/><path class="cls-1" d="M90.5,216l21.22,42H69.28Z"/><rect class="cls-2" y="257" width="147" height="43"/><rect class="cls-1" x="51" y="117" width="40" height="140"/><path class="cls-1" d="M71.5,0,92.72,117.75H50.28Z"/><circle cx="72.5" cy="133.5" r="10.5"/><circle cx="72.5" cy="167.5" r="10.5"/></g></g></svg>