<svg xmlns="http://www.w3.org/2000/svg" viewBox="0 0 736 676.26"><defs><style>.cls-1{fill:#fff;}.cls-2{fill:#f1f1f1;}.cls-3{fill:none;}.cls-4{fill:#00e0ff;}</style></defs><title>Layer 19</title><g id="Layer_2" data-name="Layer 2"><g id="Layer_19" data-name="Layer 19"><path class="cls-1" d="M183.5,53l1.68,5.18h5.45l-4.4,3.21,1.68,5.18-4.41-3.21-4.41,3.21,1.68-5.18-4.4-3.21h5.45Z"/><path class="cls-1" d="M367,185l1.8,5.18h5.81l-4.7,3.2,1.79,5.19-4.7-3.2-4.7,3.2,1.79-5.19-4.7-3.2h5.81Z"/><path class="cls-1" d="M414.5,36l1.68,5.18h5.45l-4.4,3.21,1.68,5.18-4.41-3.21-4.41,3.21,1.68-5.18-4.4-3.21h5.45Z"/><path class="cls-1" d="M399.5,141l1.68,5.53h5.45l-4.4,3.41,1.68,5.53-4.41-3.41-4.41,3.41,1.68-5.53-4.4-3.41h5.45Z"/><path class="cls-1" d="M279.5,191l1.68,5.18h5.45l-4.4,3.2,1.68,5.19-4.41-3.2-4.41,3.2,1.68-5.19-4.4-3.2h5.45Z"/><path class="cls-1" d="M662.5,306l1.91,5.18h6.17l-5,3.21,1.91,5.18-5-3.21-5,3.21,1.91-5.18-5-3.21h6.17Z"/><path class="cls-1" d="M468.5,101l1.91,5.18h6.17l-5,3.21,1.91,5.18-5-3.21-5,3.21,1.91-5.18-5-3.21h6.17Z"/><path class="cls-1" d="M553.5,230l1.91,5.18h6.17l-5,3.2,1.91,5.19-5-3.2-5,3.2,1.91-5.19-5-3.2h6.17Z"/><path class="cls-1" d="M709.5,200l1.91,4.84h6.17l-5,3,1.91,4.83-5-3-5,3,1.91-4.83-5-3h6.17Z"/><path class="cls-1" d="M109.5,297l1.91,5.18h6.17l-5,3.21,1.91,5.18-5-3.21-5,3.21,1.91-5.18-5-3.21h6.17Z"/><path class="cls-1" d="M30.5,281l1.91,5.53h6.17l-5,3.41,1.91,5.53-5-3.41-5,3.41,1.91-5.53-5-3.41h6.17Z"/><path class="cls-1" d="M320.5,74l1.91,5.53h6.17l-5,3.41,1.91,5.53-5-3.41-5,3.41,1.91-5.53-5-3.41h6.17Z"/><path class="cls-1" d="M250.5,133l1.91,4.84h6.17l-5,3,1.91,4.83-5-3-5,3,1.91-4.83-5-3h6.17Z"/><path class="cls-1" d="M79.5,141l1.91,5.53h6.17l-5,3.41,1.91,5.53-5-3.41-5,3.41,1.91-5.53-5-3.41h6.17Z"/><path class="cls-1" d="M345.5,3l1.68,5.18h5.45l-4.4,3.21,1.68,5.18-4.41-3.21-4.41,3.21,1.68-5.18-4.4-3.21h5.45Z"/><path class="cls-1" d="M547,133l1.89,5H555L550.06,141l1.88,5L547,142.93,542.06,146l1.88-5L539,138h6.11Z"/><path class="cls-1" d="M617.5,214l1.91,5.53h6.17l-5,3.41,1.91,5.53-5-3.41-5,3.41,1.91-5.53-5-3.41h6.17Z"/><path class="cls-1" d="M477.5,42l1.91,5.18h6.17l-5,3.21,1.91,5.18-5-3.21-5,3.21,1.91-5.18-5-3.21h6.17Z"/><path class="cls-1" d="M532.5,9l1.91,5.53h6.17l-5,3.41,1.91,5.53-5-3.41-5,3.41,1.91-5.53-5-3.41h6.17Z"/><path class="cls-1" d="M56.5,214l1.91,5.53h6.17l-5,3.41,1.91,5.53-5-3.41-5,3.41,1.91-5.53-5-3.41h6.17Z"/><path class="cls-1" d="M69.5,436l1.91,5.18h6.17l-5,3.21,1.91,5.18-5-3.21-5,3.21,1.91-5.18-5-3.21h6.17Z"/><path class="cls-1" d="M215.5,492l1.68,5.18h5.45l-4.4,3.21,1.68,5.18-4.41-3.21-4.41,3.21,1.68-5.18-4.4-3.21h5.45Z"/><path class="cls-1" d="M192.5,394l1.91,5.18h6.17l-5,3.21,1.91,5.18-5-3.21-5,3.21,1.91-5.18-5-3.21h6.17Z"/><path class="cls-1" d="M16.5,354l1.91,5.18h6.17l-5,3.21,1.91,5.18-5-3.21-5,3.21,1.91-5.18-5-3.21h6.17Z"/><path class="cls-1" d="M173.5,170l1.91,5.18h6.17l-5,3.2,1.91,5.19-5-3.2-5,3.2,1.91-5.19-5-3.2h6.17Z"/><path class="cls-1" d="M39.5,105l1.91,5.18h6.17l-5,3.21,1.91,5.18-5-3.21-5,3.21,1.91-5.18-5-3.21h6.17Z"/><ellipse class="cls-2" cx="654" cy="83.5" rx="82" ry="83.5"/><rect class="cls-3" x="159" y="271" width="416" height="89"/><rect class="cls-3" y="6" width="292" height="37"/><path class="cls-1" d="M183.5,53l1.68,5.18h5.45l-4.4,3.21,1.68,5.18-4.41-3.21-4.41,3.21,1.68-5.18-4.4-3.21h5.45Z"/><path class="cls-1" d="M367,185l1.8,5.18h5.81l-4.7,3.2,1.79,5.19-4.7-3.2-4.7,3.2,1.79-5.19-4.7-3.2h5.81Z"/><path class="cls-1" d="M414.5,36l1.68,5.18h5.45l-4.4,3.21,1.68,5.18-4.41-3.21-4.41,3.21,1.68-5.18-4.4-3.21h5.45Z"/><path class="cls-1" d="M399.5,141l1.68,5.53h5.45l-4.4,3.41,1.68,5.53-4.41-3.41-4.41,3.41,1.68-5.53-4.4-3.41h5.45Z"/><path class="cls-1" d="M279.5,191l1.68,5.18h5.45l-4.4,3.2,1.68,5.19-4.41-3.2-4.41,3.2,1.68-5.19-4.4-3.2h5.45Z"/><path class="cls-1" d="M662.5,306l1.91,5.18h6.17l-5,3.21,1.91,5.18-5-3.21-5,3.21,1.91-5.18-5-3.21h6.17Z"/><path class="cls-1" d="M468.5,101l1.91,5.18h6.17l-5,3.21,1.91,5.18-5-3.21-5,3.21,1.91-5.18-5-3.21h6.17Z"/><path class="cls-1" d="M553.5,230l1.91,5.18h6.17l-5,3.2,1.91,5.19-5-3.2-5,3.2,1.91-5.19-5-3.2h6.17Z"/><path class="cls-1" d="M709.5,200l1.91,4.84h6.17l-5,3,1.91,4.83-5-3-5,3,1.91-4.83-5-3h6.17Z"/><path class="cls-1" d="M109.5,297l1.91,5.18h6.17l-5,3.21,1.91,5.18-5-3.21-5,3.21,1.91-5.18-5-3.21h6.17Z"/><path class="cls-1" d="M30.5,281l1.91,5.53h6.17l-5,3.41,1.91,5.53-5-3.41-5,3.41,1.91-5.53-5-3.41h6.17Z"/><path class="cls-1" d="M320.5,74l1.91,5.53h6.17l-5,3.41,1.91,5.53-5-3.41-5,3.41,1.91-5.53-5-3.41h6.17Z"/><path class="cls-1" d="M250.5,133l1.91,4.84h6.17l-5,3,1.91,4.83-5-3-5,3,1.91-4.83-5-3h6.17Z"/><path class="cls-1" d="M79.5,141l1.91,5.53h6.17l-5,3.41,1.91,5.53-5-3.41-5,3.41,1.91-5.53-5-3.41h6.17Z"/><path class="cls-1" d="M345.5,3l1.68,5.18h5.45l-4.4,3.21,1.68,5.18-4.41-3.21-4.41,3.21,1.68-5.18-4.4-3.21h5.45Z"/><path class="cls-1" d="M547,133l1.89,5H555L550.06,141l1.88,5L547,142.93,542.06,146l1.88-5L539,138h6.11Z"/><path class="cls-1" d="M617.5,214l1.91,5.53h6.17l-5,3.41,1.91,5.53-5-3.41-5,3.41,1.91-5.53-5-3.41h6.17Z"/><path class="cls-1" d="M477.5,42l1.91,5.18h6.17l-5,3.21,1.91,5.18-5-3.21-5,3.21,1.91-5.18-5-3.21h6.17Z"/><path class="cls-1" d="M532.5,9l1.91,5.53h6.17l-5,3.41,1.91,5.53-5-3.41-5,3.41,1.91-5.53-5-3.41h6.17Z"/><path class="cls-1" d="M56.5,214l1.91,5.53h6.17l-5,3.41,1.91,5.53-5-3.41-5,3.41,1.91-5.53-5-3.41h6.17Z"/><path class="cls-1" d="M69.5,436l1.91,5.18h6.17l-5,3.21,1.91,5.18-5-3.21-5,3.21,1.91-5.18-5-3.21h6.17Z"/><path class="cls-1" d="M215.5,492l1.68,5.18h5.45l-4.4,3.21,1.68,5.18-4.41-3.21-4.41,3.21,1.68-5.18-4.4-3.21h5.45Z"/><path class="cls-1" d="M192.5,394l1.91,5.18h6.17l-5,3.21,1.91,5.18-5-3.21-5,3.21,1.91-5.18-5-3.21h6.17Z"/><path class="cls-1" d="M16.5,354l1.91,5.18h6.17l-5,3.21,1.91,5.18-5-3.21-5,3.21,1.91-5.18-5-3.21h6.17Z"/><path class="cls-1" d="M173.5,170l1.91,5.18h6.17l-5,3.2,1.91,5.19-5-3.2-5,3.2,1.91-5.19-5-3.2h6.17Z"/><path class="cls-1" d="M39.5,105l1.91,5.18h6.17l-5,3.21,1.91,5.18-5-3.21-5,3.21,1.91-5.18-5-3.21h6.17Z"/><rect class="cls-3" x="159" y="271" width="416" height="89"/><path class="cls-1" d="M367,185l1.8,5.18h5.81l-4.7,3.2,1.79,5.19-4.7-3.2-4.7,3.2,1.79-5.19-4.7-3.2h5.81Z"/><path class="cls-1" d="M414.5,36l1.68,5.18h5.45l-4.4,3.21,1.68,5.18-4.41-3.21-4.41,3.21,1.68-5.18-4.4-3.21h5.45Z"/><path class="cls-1" d="M399.5,141l1.68,5.53h5.45l-4.4,3.41,1.68,5.53-4.41-3.41-4.41,3.41,1.68-5.53-4.4-3.41h5.45Z"/><path class="cls-1" d="M279.5,191l1.68,5.18h5.45l-4.4,3.2,1.68,5.19-4.41-3.2-4.41,3.2,1.68-5.19-4.4-3.2h5.45Z"/><path class="cls-1" d="M662.5,306l1.91,5.18h6.17l-5,3.21,1.91,5.18-5-3.21-5,3.21,1.91-5.18-5-3.21h6.17Z"/><path class="cls-1" d="M468.5,101l1.91,5.18h6.17l-5,3.21,1.91,5.18-5-3.21-5,3.21,1.91-5.18-5-3.21h6.17Z"/><path class="cls-1" d="M553.5,230l1.91,5.18h6.17l-5,3.2,1.91,5.19-5-3.2-5,3.2,1.91-5.19-5-3.2h6.17Z"/><path class="cls-1" d="M709.5,200l1.91,4.84h6.17l-5,3,1.91,4.83-5-3-5,3,1.91-4.83-5-3h6.17Z"/><path class="cls-1" d="M109.5,297l1.91,5.18h6.17l-5,3.21,1.91,5.18-5-3.21-5,3.21,1.91-5.18-5-3.21h6.17Z"/><path class="cls-1" d="M30.5,281l1.91,5.53h6.17l-5,3.41,1.91,5.53-5-3.41-5,3.41,1.91-5.53-5-3.41h6.17Z"/><path class="cls-1" d="M320.5,74l1.91,5.53h6.17l-5,3.41,1.91,5.53-5-3.41-5,3.41,1.91-5.53-5-3.41h6.17Z"/><path class="cls-1" d="M250.5,133l1.91,4.84h6.17l-5,3,1.91,4.83-5-3-5,3,1.91-4.83-5-3h6.17Z"/><path class="cls-1" d="M79.5,141l1.91,5.53h6.17l-5,3.41,1.91,5.53-5-3.41-5,3.41,1.91-5.53-5-3.41h6.17Z"/><path class="cls-1" d="M345.5,3l1.68,5.18h5.45l-4.4,3.21,1.68,5.18-4.41-3.21-4.41,3.21,1.68-5.18-4.4-3.21h5.45Z"/><path class="cls-1" d="M547,133l1.89,5H555L550.06,141l1.88,5L547,142.93,542.06,146l1.88-5L539,138h6.11Z"/><path class="cls-1" d="M617.5,214l1.91,5.53h6.17l-5,3.41,1.91,5.53-5-3.41-5,3.41,1.91-5.53-5-3.41h6.17Z"/><path class="cls-1" d="M477.5,42l1.91,5.18h6.17l-5,3.21,1.91,5.18-5-3.21-5,3.21,1.91-5.18-5-3.21h6.17Z"/><path class="cls-1" d="M532.5,9l1.91,5.53h6.17l-5,3.41,1.91,5.53-5-3.41-5,3.41,1.91-5.53-5-3.41h6.17Z"/><path class="cls-1" d="M56.5,214l1.91,5.53h6.17l-5,3.41,1.91,5.53-5-3.41-5,3.41,1.91-5.53-5-3.41h6.17Z"/><path class="cls-1" d="M69.5,436l1.91,5.18h6.17l-5,3.21,1.91,5.18-5-3.21-5,3.21,1.91-5.18-5-3.21h6.17Z"/><path class="cls-1" d="M215.5,492l1.68,5.18h5.45l-4.4,3.21,1.68,5.18-4.41-3.21-4.41,3.21,1.68-5.18-4.4-3.21h5.45Z"/><path class="cls-1" d="M192.5,394l1.91,5.18h6.17l-5,3.21,1.91,5.18-5-3.21-5,3.21,1.91-5.18-5-3.21h6.17Z"/><path class="cls-1" d="M16.5,354l1.91,5.18h6.17l-5,3.21,1.91,5.18-5-3.21-5,3.21,1.91-5.18-5-3.21h6.17Z"/><path class="cls-1" d="M173.5,170l1.91,5.18h6.17l-5,3.2,1.91,5.19-5-3.2-5,3.2,1.91-5.19-5-3.2h6.17Z"/><path class="cls-1" d="M39.5,105l1.91,5.18h6.17l-5,3.21,1.91,5.18-5-3.21-5,3.21,1.91-5.18-5-3.21h6.17Z"/><rect class="cls-3" x="159" y="271" width="416" height="89"/><path class="cls-1" d="M367,185l1.8,5.18h5.81l-4.7,3.2,1.79,5.19-4.7-3.2-4.7,3.2,1.79-5.19-4.7-3.2h5.81Z"/><path class="cls-1" d="M414.5,36l1.68,5.18h5.45l-4.4,3.21,1.68,5.18-4.41-3.21-4.41,3.21,1.68-5.18-4.4-3.21h5.45Z"/><path class="cls-1" d="M399.5,141l1.68,5.53h5.45l-4.4,3.41,1.68,5.53-4.41-3.41-4.41,3.41,1.68-5.53-4.4-3.41h5.45Z"/><path class="cls-1" d="M279.5,191l1.68,5.18h5.45l-4.4,3.2,1.68,5.19-4.41-3.2-4.41,3.2,1.68-5.19-4.4-3.2h5.45Z"/><path class="cls-1" d="M662.5,306l1.91,5.18h6.17l-5,3.21,1.91,5.18-5-3.21-5,3.21,1.91-5.18-5-3.21h6.17Z"/><path class="cls-1" d="M468.5,101l1.91,5.18h6.17l-5,3.21,1.91,5.18-5-3.21-5,3.21,1.91-5.18-5-3.21h6.17Z"/><path class="cls-1" d="M553.5,230l1.91,5.18h6.17l-5,3.2,1.91,5.19-5-3.2-5,3.2,1.91-5.19-5-3.2h6.17Z"/><path class="cls-1" d="M709.5,200l1.91,4.84h6.17l-5,3,1.91,4.83-5-3-5,3,1.91-4.83-5-3h6.17Z"/><path class="cls-1" d="M109.5,297l1.91,5.18h6.17l-5,3.21,1.91,5.18-5-3.21-5,3.21,1.91-5.18-5-3.21h6.17Z"/><path class="cls-1" d="M30.5,281l1.91,5.53h6.17l-5,3.41,1.91,5.53-5-3.41-5,3.41,1.91-5.53-5-3.41h6.17Z"/><path class="cls-1" d="M320.5,74l1.91,5.53h6.17l-5,3.41,1.91,5.53-5-3.41-5,3.41,1.91-5.53-5-3.41h6.17Z"/><path class="cls-1" d="M250.5,133l1.91,4.84h6.17l-5,3,1.91,4.83-5-3-5,3,1.91-4.83-5-3h6.17Z"/><path class="cls-1" d="M79.5,141l1.91,5.53h6.17l-5,3.41,1.91,5.53-5-3.41-5,3.41,1.91-5.53-5-3.41h6.17Z"/><path class="cls-1" d="M345.5,3l1.68,5.18h5.45l-4.4,3.21,1.68,5.18-4.41-3.21-4.41,3.21,1.68-5.18-4.4-3.21h5.45Z"/><path class="cls-1" d="M547,133l1.89,5H555L550.06,141l1.88,5L547,142.93,542.06,146l1.88-5L539,138h6.11Z"/><path class="cls-1" d="M617.5,214l1.91,5.53h6.17l-5,3.41,1.91,5.53-5-3.41-5,3.41,1.91-5.53-5-3.41h6.17Z"/><path class="cls-1" d="M477.5,42l1.91,5.18h6.17l-5,3.21,1.91,5.18-5-3.21-5,3.21,1.91-5.18-5-3.21h6.17Z"/><path class="cls-1" d="M532.5,9l1.91,5.53h6.17l-5,3.41,1.91,5.53-5-3.41-5,3.41,1.91-5.53-5-3.41h6.17Z"/><path class="cls-1" d="M56.5,214l1.91,5.53h6.17l-5,3.41,1.91,5.53-5-3.41-5,3.41,1.91-5.53-5-3.41h6.17Z"/><path class="cls-1" d="M69.5,436l1.91,5.18h6.17l-5,3.21,1.91,5.18-5-3.21-5,3.21,1.91-5.18-5-3.21h6.17Z"/><path class="cls-1" d="M215.5,492l1.68,5.18h5.45l-4.4,3.21,1.68,5.18-4.41-3.21-4.41,3.21,1.68-5.18-4.4-3.21h5.45Z"/><path class="cls-1" d="M192.5,394l1.91,5.18h6.17l-5,3.21,1.91,5.18-5-3.21-5,3.21,1.91-5.18-5-3.21h6.17Z"/><path class="cls-1" d="M16.5,354l1.91,5.18h6.17l-5,3.21,1.91,5.18-5-3.21-5,3.21,1.91-5.18-5-3.21h6.17Z"/><path class="cls-1" d="M173.5,170l1.91,5.18h6.17l-5,3.2,1.91,5.19-5-3.2-5,3.2,1.91-5.19-5-3.2h6.17Z"/><path class="cls-1" d="M39.5,105l1.91,5.18h6.17l-5,3.21,1.91,5.18-5-3.21-5,3.21,1.91-5.18-5-3.21h6.17Z"/><rect class="cls-3" x="159" y="271" width="416" height="89"/><path class="cls-4" d="M151.5,428l1.68,5.18h5.45l-4.4,3.21,1.68,5.18-4.41-3.21-4.41,3.21,1.68-5.18-4.4-3.21h5.45Z"/><path class="cls-4" d="M475.5,193l1.68,5.18h5.45l-4.4,3.2,1.68,5.19-4.41-3.2-4.41,3.2,1.68-5.19-4.4-3.2h5.45Z"/><path class="cls-4" d="M708.5,409l1.68,5.18h5.45l-4.41,3.21,1.69,5.18-4.41-3.21-4.41,3.21,1.69-5.18-4.41-3.21h5.45Z"/><path class="cls-4" d="M141.5,101l1.68,5.18h5.45l-4.4,3.21,1.68,5.18-4.41-3.21-4.41,3.21,1.68-5.18-4.4-3.21h5.45Z"/><path class="cls-4" d="M409.5,89l1.68,5.18h5.45l-4.4,3.21,1.68,5.18-4.41-3.21-4.41,3.21,1.68-5.18-4.4-3.21h5.45Z"/><path class="cls-4" d="M19.5,473l1.68,5.18h5.45l-4.41,3.21,1.69,5.18-4.41-3.21-4.41,3.21,1.69-5.18-4.41-3.21h5.45Z"/><path class="cls-4" d="M317.5,120l1.68,5.18h5.45l-4.4,3.2,1.68,5.19-4.41-3.2-4.41,3.2,1.68-5.19-4.4-3.2h5.45Z"/><path class="cls-1" d="M611.92,375.54l1.9,5.18H620l-5,3.21,1.91,5.18-5-3.2-5,3.2,1.91-5.18-5-3.21H610Z"/><path class="cls-1" d="M473.92,377.54l1.9,5.18H482l-5,3.21,1.91,5.18-5-3.2-5,3.2,1.91-5.18-5-3.21H472Z"/><path class="cls-1" d="M581.92,463.54l1.9,5.53H590l-5,3.42,1.91,5.52-5-3.41-5,3.41,1.91-5.52-5-3.42H580Z"/><path class="cls-1" d="M453.92,487.54l1.9,5.18H462l-5,3.21,1.91,5.18-5-3.2-5,3.2,1.91-5.18-5-3.21H452Z"/><path class="cls-1" d="M308.92,383.54l1.9,5.18H317l-5,3.21,1.91,5.18-5-3.2-5,3.2,1.91-5.18-5-3.21H307Z"/><path class="cls-1" d="M611.92,375.54l1.9,5.18H620l-5,3.21,1.91,5.18-5-3.2-5,3.2,1.91-5.18-5-3.21H610Z"/><path class="cls-1" d="M473.92,377.54l1.9,5.18H482l-5,3.21,1.91,5.18-5-3.2-5,3.2,1.91-5.18-5-3.21H472Z"/><path class="cls-1" d="M581.92,463.54l1.9,5.53H590l-5,3.42,1.91,5.52-5-3.41-5,3.41,1.91-5.52-5-3.42H580Z"/><path class="cls-1" d="M453.92,487.54l1.9,5.18H462l-5,3.21,1.91,5.18-5-3.2-5,3.2,1.91-5.18-5-3.21H452Z"/><path class="cls-1" d="M308.92,383.54l1.9,5.18H317l-5,3.21,1.91,5.18-5-3.2-5,3.2,1.91-5.18-5-3.21H307Z"/><path class="cls-1" d="M611.92,375.54l1.9,5.18H620l-5,3.21,1.91,5.18-5-3.2-5,3.2,1.91-5.18-5-3.21H610Z"/><path class="cls-1" d="M473.92,377.54l1.9,5.18H482l-5,3.21,1.91,5.18-5-3.2-5,3.2,1.91-5.18-5-3.21H472Z"/><path class="cls-1" d="M581.92,463.54l1.9,5.53H590l-5,3.42,1.91,5.52-5-3.41-5,3.41,1.91-5.52-5-3.42H580Z"/><path class="cls-1" d="M453.92,487.54l1.9,5.18H462l-5,3.21,1.91,5.18-5-3.2-5,3.2,1.91-5.18-5-3.21H452Z"/><path class="cls-1" d="M308.92,383.54l1.9,5.18H317l-5,3.21,1.91,5.18-5-3.2-5,3.2,1.91-5.18-5-3.21H307Z"/><path class="cls-1" d="M611.92,375.54l1.9,5.18H620l-5,3.21,1.91,5.18-5-3.2-5,3.2,1.91-5.18-5-3.21H610Z"/><path class="cls-1" d="M473.92,377.54l1.9,5.18H482l-5,3.21,1.91,5.18-5-3.2-5,3.2,1.91-5.18-5-3.21H472Z"/><path class="cls-1" d="M581.92,463.54l1.9,5.53H590l-5,3.42,1.91,5.52-5-3.41-5,3.41,1.91-5.52-5-3.42H580Z"/><path class="cls-1" d="M453.92,487.54l1.9,5.18H462l-5,3.21,1.91,5.18-5-3.2-5,3.2,1.91-5.18-5-3.21H452Z"/><path class="cls-1" d="M308.92,383.54l1.9,5.18H317l-5,3.21,1.91,5.18-5-3.2-5,3.2,1.91-5.18-5-3.21H307Z"/><path class="cls-4" d="M336.92,463.54l1.68,5.18h5.45l-4.41,3.21,1.68,5.18-4.4-3.2-4.41,3.2,1.68-5.18-4.41-3.21h5.45Z"/><path class="cls-1" d="M684,550.69l1.91,5.18h6.17l-5,3.21,1.91,5.18-5-3.2-5,3.2,1.91-5.18-5-3.21h6.17Z"/><path class="cls-1" d="M546,552.69l1.91,5.18h6.17l-5,3.21,1.91,5.18-5-3.2-5,3.2,1.91-5.18-5-3.21h6.17Z"/><path class="cls-1" d="M654,638.69l1.91,5.53h6.17l-5,3.41,1.91,5.53-5-3.41-5,3.41,1.91-5.53-5-3.41h6.17Z"/><path class="cls-1" d="M526,662.69l1.91,5.18h6.17l-5,3.21,1.91,5.18-5-3.2-5,3.2,1.91-5.18-5-3.21h6.17Z"/><path class="cls-1" d="M381,558.69l1.91,5.18h6.17l-5,3.21,1.91,5.18-5-3.2-5,3.2,1.91-5.18-5-3.21h6.17Z"/><path class="cls-1" d="M684,550.69l1.91,5.18h6.17l-5,3.21,1.91,5.18-5-3.2-5,3.2,1.91-5.18-5-3.21h6.17Z"/><path class="cls-1" d="M546,552.69l1.91,5.18h6.17l-5,3.21,1.91,5.18-5-3.2-5,3.2,1.91-5.18-5-3.21h6.17Z"/><path class="cls-1" d="M654,638.69l1.91,5.53h6.17l-5,3.41,1.91,5.53-5-3.41-5,3.41,1.91-5.53-5-3.41h6.17Z"/><path class="cls-1" d="M526,662.69l1.91,5.18h6.17l-5,3.21,1.91,5.18-5-3.2-5,3.2,1.91-5.18-5-3.21h6.17Z"/><path class="cls-1" d="M381,558.69l1.91,5.18h6.17l-5,3.21,1.91,5.18-5-3.2-5,3.2,1.91-5.18-5-3.21h6.17Z"/><path class="cls-1" d="M684,550.69l1.91,5.18h6.17l-5,3.21,1.91,5.18-5-3.2-5,3.2,1.91-5.18-5-3.21h6.17Z"/><path class="cls-1" d="M546,552.69l1.91,5.18h6.17l-5,3.21,1.91,5.18-5-3.2-5,3.2,1.91-5.18-5-3.21h6.17Z"/><path class="cls-1" d="M654,638.69l1.91,5.53h6.17l-5,3.41,1.91,5.53-5-3.41-5,3.41,1.91-5.53-5-3.41h6.17Z"/><path class="cls-1" d="M526,662.69l1.91,5.18h6.17l-5,3.21,1.91,5.18-5-3.2-5,3.2,1.91-5.18-5-3.21h6.17Z"/><path class="cls-1" d="M381,558.69l1.91,5.18h6.17l-5,3.21,1.91,5.18-5-3.2-5,3.2,1.91-5.18-5-3.21h6.17Z"/><path class="cls-1" d="M684,550.69l1.91,5.18h6.17l-5,3.21,1.91,5.18-5-3.2-5,3.2,1.91-5.18-5-3.21h6.17Z"/><path class="cls-1" d="M546,552.69l1.91,5.18h6.17l-5,3.21,1.91,5.18-5-3.2-5,3.2,1.91-5.18-5-3.21h6.17Z"/><path class="cls-1" d="M654,638.69l1.91,5.53h6.17l-5,3.41,1.91,5.53-5-3.41-5,3.41,1.91-5.53-5-3.41h6.17Z"/><path class="cls-1" d="M526,662.69l1.91,5.18h6.17l-5,3.21,1.91,5.18-5-3.2-5,3.2,1.91-5.18-5-3.21h6.17Z"/><path class="cls-1" d="M381,558.69l1.91,5.18h6.17l-5,3.21,1.91,5.18-5-3.2-5,3.2,1.91-5.18-5-3.21h6.17Z"/><path class="cls-4" d="M409,638.69l1.68,5.18h5.45l-4.4,3.21,1.68,5.18-4.41-3.2-4.41,3.2,1.69-5.18-4.41-3.21h5.45Z"/><path class="cls-1" d="M134.37,543.91l1.68,5.18h5.45l-4.41,3.2,1.69,5.18-4.41-3.2-4.41,3.2,1.68-5.18-4.41-3.2h5.45Z"/><path class="cls-1" d="M24.06,596.79,26,602h6.17l-5,3.2,1.91,5.19-5-3.21-5,3.21L21,605.17,16,602h6.17Z"/><path class="cls-1" d="M24.06,596.79,26,602h6.17l-5,3.2,1.91,5.19-5-3.21-5,3.21L21,605.17,16,602h6.17Z"/><path class="cls-1" d="M24.06,596.79,26,602h6.17l-5,3.2,1.91,5.19-5-3.21-5,3.21L21,605.17,16,602h6.17Z"/><path class="cls-1" d="M24.06,596.79,26,602h6.17l-5,3.2,1.91,5.19-5-3.21-5,3.21L21,605.17,16,602h6.17Z"/><path class="cls-4" d="M106.06,588.79l1.68,5.18h5.45l-4.41,3.2,1.69,5.19-4.41-3.21-4.41,3.21,1.68-5.19-4.4-3.2h5.45Z"/></g></g></svg>