<svg xmlns="http://www.w3.org/2000/svg" viewBox="0 0 3381.12 380.64"><defs><style>.cls-1{fill:#fff;}</style></defs><title>Layer 25</title><g id="Layer_2" data-name="Layer 2"><g id="Layer_25" data-name="Layer 25"><ellipse class="cls-1" cx="1762.9" cy="45.39" rx="24.96" ry="16.64"/><ellipse class="cls-1" cx="1784.08" cy="59" rx="21.94" ry="13.62"/><ellipse class="cls-1" cx="1803.75" cy="42.36" rx="21.94" ry="13.62"/><ellipse class="cls-1" cx="1817.37" cy="62.03" rx="21.94" ry="13.62"/><ellipse class="cls-1" cx="1735.67" cy="55.98" rx="21.94" ry="13.62"/><ellipse class="cls-1" cx="1764.41" cy="72.62" rx="21.94" ry="13.62"/><ellipse class="cls-1" cx="1762.9" cy="45.39" rx="24.96" ry="16.64"/><ellipse class="cls-1" cx="1784.08" cy="59" rx="21.94" ry="13.62"/><ellipse class="cls-1" cx="1803.75" cy="42.36" rx="21.94" ry="13.62"/><ellipse class="cls-1" cx="1817.37" cy="62.03" rx="21.94" ry="13.62"/><ellipse class="cls-1" cx="1735.67" cy="55.98" rx="21.94" ry="13.62"/><ellipse class="cls-1" cx="1764.41" cy="72.62" rx="21.94" ry="13.62"/><ellipse class="cls-1" cx="1403.57" cy="182.89" rx="24.96" ry="16.64"/><ellipse class="cls-1" cx="1424.75" cy="196.51" rx="21.94" ry="13.62"/><ellipse class="cls-1" cx="1444.42" cy="179.87" rx="21.94" ry="13.62"/><ellipse class="cls-1" cx="1458.04" cy="199.53" rx="21.94" ry="13.62"/><ellipse class="cls-1" cx="1376.34" cy="193.48" rx="21.94" ry="13.62"/><ellipse class="cls-1" cx="1405.08" cy="210.13" rx="21.94" ry="13.62"/><ellipse class="cls-1" cx="1403.57" cy="182.89" rx="24.96" ry="16.64"/><ellipse class="cls-1" cx="1424.75" cy="196.51" rx="21.94" ry="13.62"/><ellipse class="cls-1" cx="1444.42" cy="179.87" rx="21.94" ry="13.62"/><ellipse class="cls-1" cx="1458.04" cy="199.53" rx="21.94" ry="13.62"/><ellipse class="cls-1" cx="1376.34" cy="193.48" rx="21.94" ry="13.62"/><ellipse class="cls-1" cx="1405.08" cy="210.13" rx="21.94" ry="13.62"/><ellipse class="cls-1" cx="1977.68" cy="16.64" rx="24.96" ry="16.64"/><ellipse class="cls-1" cx="1998.86" cy="30.26" rx="21.94" ry="13.62"/><ellipse class="cls-1" cx="2018.52" cy="13.62" rx="21.94" ry="13.62"/><ellipse class="cls-1" cx="2032.14" cy="33.28" rx="21.94" ry="13.62"/><ellipse class="cls-1" cx="1950.44" cy="27.23" rx="21.94" ry="13.62"/><ellipse class="cls-1" cx="1979.19" cy="43.88" rx="21.94" ry="13.62"/><ellipse class="cls-1" cx="1977.68" cy="16.64" rx="24.96" ry="16.64"/><ellipse class="cls-1" cx="1998.86" cy="30.26" rx="21.94" ry="13.62"/><ellipse class="cls-1" cx="2018.52" cy="13.62" rx="21.94" ry="13.62"/><ellipse class="cls-1" cx="2032.14" cy="33.28" rx="21.94" ry="13.62"/><ellipse class="cls-1" cx="1950.44" cy="27.23" rx="21.94" ry="13.62"/><ellipse class="cls-1" cx="1979.19" cy="43.88" rx="21.94" ry="13.62"/><ellipse class="cls-1" cx="2141.8" cy="259.36" rx="24.96" ry="16.64"/><ellipse class="cls-1" cx="2162.98" cy="272.98" rx="21.94" ry="13.62"/><ellipse class="cls-1" cx="2182.65" cy="256.33" rx="21.94" ry="13.62"/><ellipse class="cls-1" cx="2196.26" cy="276" rx="21.94" ry="13.62"/><ellipse class="cls-1" cx="2114.56" cy="269.95" rx="21.94" ry="13.62"/><ellipse class="cls-1" cx="2143.31" cy="286.59" rx="21.94" ry="13.62"/><ellipse class="cls-1" cx="2141.8" cy="259.36" rx="24.96" ry="16.64"/><ellipse class="cls-1" cx="2162.98" cy="272.98" rx="21.94" ry="13.62"/><ellipse class="cls-1" cx="2182.65" cy="256.33" rx="21.94" ry="13.62"/><ellipse class="cls-1" cx="2196.26" cy="276" rx="21.94" ry="13.62"/><ellipse class="cls-1" cx="2114.56" cy="269.95" rx="21.94" ry="13.62"/><ellipse class="cls-1" cx="2143.31" cy="286.59" rx="21.94" ry="13.62"/><ellipse class="cls-1" cx="1972.66" cy="299.99" rx="24.96" ry="16.64"/><ellipse class="cls-1" cx="1993.84" cy="313.61" rx="21.94" ry="13.62"/><ellipse class="cls-1" cx="2013.5" cy="296.96" rx="21.94" ry="13.62"/><ellipse class="cls-1" cx="2027.12" cy="316.63" rx="21.94" ry="13.62"/><ellipse class="cls-1" cx="1945.42" cy="310.58" rx="21.94" ry="13.62"/><ellipse class="cls-1" cx="1974.17" cy="327.22" rx="21.94" ry="13.62"/><ellipse class="cls-1" cx="1972.66" cy="299.99" rx="24.96" ry="16.64"/><ellipse class="cls-1" cx="1993.84" cy="313.61" rx="21.94" ry="13.62"/><ellipse class="cls-1" cx="2013.5" cy="296.96" rx="21.94" ry="13.62"/><ellipse class="cls-1" cx="2027.12" cy="316.63" rx="21.94" ry="13.62"/><ellipse class="cls-1" cx="1945.42" cy="310.58" rx="21.94" ry="13.62"/><ellipse class="cls-1" cx="1974.17" cy="327.22" rx="21.94" ry="13.62"/><ellipse class="cls-1" cx="1588.91" cy="306.13" rx="24.96" ry="16.64"/><ellipse class="cls-1" cx="1610.09" cy="319.75" rx="21.94" ry="13.62"/><ellipse class="cls-1" cx="1629.76" cy="303.11" rx="21.94" ry="13.62"/><ellipse class="cls-1" cx="1643.38" cy="322.78" rx="21.94" ry="13.62"/><ellipse class="cls-1" cx="1561.68" cy="316.72" rx="21.94" ry="13.62"/><ellipse class="cls-1" cx="1590.43" cy="333.37" rx="21.94" ry="13.62"/><ellipse class="cls-1" cx="1588.91" cy="306.13" rx="24.96" ry="16.64"/><ellipse class="cls-1" cx="1610.09" cy="319.75" rx="21.94" ry="13.62"/><ellipse class="cls-1" cx="1629.76" cy="303.11" rx="21.94" ry="13.62"/><ellipse class="cls-1" cx="1643.38" cy="322.78" rx="21.94" ry="13.62"/><ellipse class="cls-1" cx="1561.68" cy="316.72" rx="21.94" ry="13.62"/><ellipse class="cls-1" cx="1590.43" cy="333.37" rx="21.94" ry="13.62"/><ellipse class="cls-1" cx="1451.99" cy="49.93" rx="24.96" ry="16.64"/><ellipse class="cls-1" cx="1473.17" cy="63.54" rx="21.94" ry="13.62"/><ellipse class="cls-1" cx="1492.83" cy="46.9" rx="21.94" ry="13.62"/><ellipse class="cls-1" cx="1506.45" cy="66.57" rx="21.94" ry="13.62"/><ellipse class="cls-1" cx="1424.75" cy="60.52" rx="21.94" ry="13.62"/><ellipse class="cls-1" cx="1453.5" cy="77.16" rx="21.94" ry="13.62"/><ellipse class="cls-1" cx="1451.99" cy="49.93" rx="24.96" ry="16.64"/><ellipse class="cls-1" cx="1473.17" cy="63.54" rx="21.94" ry="13.62"/><ellipse class="cls-1" cx="1492.83" cy="46.9" rx="21.94" ry="13.62"/><ellipse class="cls-1" cx="1506.45" cy="66.57" rx="21.94" ry="13.62"/><ellipse class="cls-1" cx="1424.75" cy="60.52" rx="21.94" ry="13.62"/><ellipse class="cls-1" cx="1453.5" cy="77.16" rx="21.94" ry="13.62"/><ellipse class="cls-1" cx="2302.69" cy="139.16" rx="24.96" ry="16.64"/><ellipse class="cls-1" cx="2323.87" cy="152.78" rx="21.94" ry="13.62"/><ellipse class="cls-1" cx="2343.54" cy="136.13" rx="21.94" ry="13.62"/><ellipse class="cls-1" cx="2357.16" cy="155.8" rx="21.94" ry="13.62"/><ellipse class="cls-1" cx="2275.46" cy="149.75" rx="21.94" ry="13.62"/><ellipse class="cls-1" cx="2304.2" cy="166.39" rx="21.94" ry="13.62"/><ellipse class="cls-1" cx="2302.69" cy="139.16" rx="24.96" ry="16.64"/><ellipse class="cls-1" cx="2323.87" cy="152.78" rx="21.94" ry="13.62"/><ellipse class="cls-1" cx="2343.54" cy="136.13" rx="21.94" ry="13.62"/><ellipse class="cls-1" cx="2357.16" cy="155.8" rx="21.94" ry="13.62"/><ellipse class="cls-1" cx="2275.46" cy="149.75" rx="21.94" ry="13.62"/><ellipse class="cls-1" cx="2304.2" cy="166.39" rx="21.94" ry="13.62"/><ellipse class="cls-1" cx="2089.63" cy="110.41" rx="24.96" ry="16.64"/><ellipse class="cls-1" cx="2110.81" cy="124.03" rx="21.94" ry="13.62"/><ellipse class="cls-1" cx="2130.48" cy="107.39" rx="21.94" ry="13.62"/><ellipse class="cls-1" cx="2144.1" cy="127.06" rx="21.94" ry="13.62"/><ellipse class="cls-1" cx="2062.4" cy="121" rx="21.94" ry="13.62"/><ellipse class="cls-1" cx="2091.15" cy="137.65" rx="21.94" ry="13.62"/><ellipse class="cls-1" cx="2089.63" cy="110.41" rx="24.96" ry="16.64"/><ellipse class="cls-1" cx="2110.81" cy="124.03" rx="21.94" ry="13.62"/><ellipse class="cls-1" cx="2130.48" cy="107.39" rx="21.94" ry="13.62"/><ellipse class="cls-1" cx="2144.1" cy="127.06" rx="21.94" ry="13.62"/><ellipse class="cls-1" cx="2062.4" cy="121" rx="21.94" ry="13.62"/><ellipse class="cls-1" cx="2091.15" cy="137.65" rx="21.94" ry="13.62"/><ellipse class="cls-1" cx="2416.96" cy="28.33" rx="24.96" ry="16.64"/><ellipse class="cls-1" cx="2438.14" cy="41.95" rx="21.94" ry="13.62"/><ellipse class="cls-1" cx="2457.81" cy="25.3" rx="21.94" ry="13.62"/><ellipse class="cls-1" cx="2471.43" cy="44.97" rx="21.94" ry="13.62"/><ellipse class="cls-1" cx="2389.73" cy="38.92" rx="21.94" ry="13.62"/><ellipse class="cls-1" cx="2418.47" cy="55.56" rx="21.94" ry="13.62"/><ellipse class="cls-1" cx="2416.96" cy="28.33" rx="24.96" ry="16.64"/><ellipse class="cls-1" cx="2438.14" cy="41.95" rx="21.94" ry="13.62"/><ellipse class="cls-1" cx="2457.81" cy="25.3" rx="21.94" ry="13.62"/><ellipse class="cls-1" cx="2471.43" cy="44.97" rx="21.94" ry="13.62"/><ellipse class="cls-1" cx="2389.73" cy="38.92" rx="21.94" ry="13.62"/><ellipse class="cls-1" cx="2418.47" cy="55.56" rx="21.94" ry="13.62"/><ellipse class="cls-1" cx="2635.87" cy="136.13" rx="24.96" ry="16.64"/><ellipse class="cls-1" cx="2657.05" cy="149.75" rx="21.94" ry="13.62"/><ellipse class="cls-1" cx="2676.72" cy="133.11" rx="21.94" ry="13.62"/><ellipse class="cls-1" cx="2608.64" cy="146.72" rx="21.94" ry="13.62"/><ellipse class="cls-1" cx="2620.2" cy="204.34" rx="21.94" ry="13.62"/><ellipse class="cls-1" cx="2635.87" cy="136.13" rx="24.96" ry="16.64"/><ellipse class="cls-1" cx="2657.05" cy="149.75" rx="21.94" ry="13.62"/><ellipse class="cls-1" cx="2676.72" cy="133.11" rx="21.94" ry="13.62"/><ellipse class="cls-1" cx="2608.64" cy="146.72" rx="21.94" ry="13.62"/><ellipse class="cls-1" cx="2620.2" cy="204.34" rx="21.94" ry="13.62"/><ellipse class="cls-1" cx="1321.87" cy="33.28" rx="24.96" ry="16.64"/><ellipse class="cls-1" cx="1343.05" cy="46.9" rx="21.94" ry="13.62"/><ellipse class="cls-1" cx="1362.72" cy="30.26" rx="21.94" ry="13.62"/><ellipse class="cls-1" cx="1376.34" cy="49.93" rx="21.94" ry="13.62"/><ellipse class="cls-1" cx="1294.64" cy="43.88" rx="21.94" ry="13.62"/><ellipse class="cls-1" cx="1323.38" cy="60.52" rx="21.94" ry="13.62"/><ellipse class="cls-1" cx="1321.87" cy="33.28" rx="24.96" ry="16.64"/><ellipse class="cls-1" cx="1343.05" cy="46.9" rx="21.94" ry="13.62"/><ellipse class="cls-1" cx="1362.72" cy="30.26" rx="21.94" ry="13.62"/><ellipse class="cls-1" cx="1376.34" cy="49.93" rx="21.94" ry="13.62"/><ellipse class="cls-1" cx="1294.64" cy="43.88" rx="21.94" ry="13.62"/><ellipse class="cls-1" cx="1323.38" cy="60.52" rx="21.94" ry="13.62"/><ellipse class="cls-1" cx="1340.78" cy="304.57" rx="24.96" ry="16.64"/><ellipse class="cls-1" cx="1361.96" cy="318.19" rx="21.94" ry="13.62"/><ellipse class="cls-1" cx="1381.63" cy="301.55" rx="21.94" ry="13.62"/><ellipse class="cls-1" cx="1395.25" cy="321.22" rx="21.94" ry="13.62"/><ellipse class="cls-1" cx="1313.55" cy="315.17" rx="21.94" ry="13.62"/><ellipse class="cls-1" cx="1342.3" cy="331.81" rx="21.94" ry="13.62"/><ellipse class="cls-1" cx="1340.78" cy="304.57" rx="24.96" ry="16.64"/><ellipse class="cls-1" cx="1361.96" cy="318.19" rx="21.94" ry="13.62"/><ellipse class="cls-1" cx="1381.63" cy="301.55" rx="21.94" ry="13.62"/><ellipse class="cls-1" cx="1395.25" cy="321.22" rx="21.94" ry="13.62"/><ellipse class="cls-1" cx="1313.55" cy="315.17" rx="21.94" ry="13.62"/><ellipse class="cls-1" cx="1342.3" cy="331.81" rx="21.94" ry="13.62"/><ellipse class="cls-1" cx="2558.59" cy="217.96" rx="24.96" ry="16.64"/><ellipse class="cls-1" cx="2579.77" cy="231.57" rx="21.94" ry="13.62"/><ellipse class="cls-1" cx="2599.44" cy="214.93" rx="21.94" ry="13.62"/><ellipse class="cls-1" cx="2613.05" cy="234.6" rx="21.94" ry="13.62"/><ellipse class="cls-1" cx="2531.36" cy="228.55" rx="21.94" ry="13.62"/><ellipse class="cls-1" cx="2560.1" cy="245.19" rx="21.94" ry="13.62"/><ellipse class="cls-1" cx="2558.59" cy="217.96" rx="24.96" ry="16.64"/><ellipse class="cls-1" cx="2579.77" cy="231.57" rx="21.94" ry="13.62"/><ellipse class="cls-1" cx="2599.44" cy="214.93" rx="21.94" ry="13.62"/><ellipse class="cls-1" cx="2613.05" cy="234.6" rx="21.94" ry="13.62"/><ellipse class="cls-1" cx="2531.36" cy="228.55" rx="21.94" ry="13.62"/><ellipse class="cls-1" cx="2560.1" cy="245.19" rx="21.94" ry="13.62"/><ellipse class="cls-1" cx="1371.04" cy="289.44" rx="24.96" ry="16.64"/><ellipse class="cls-1" cx="1392.22" cy="303.06" rx="21.94" ry="13.62"/><ellipse class="cls-1" cx="1411.89" cy="286.42" rx="21.94" ry="13.62"/><ellipse class="cls-1" cx="1425.51" cy="306.09" rx="21.94" ry="13.62"/><ellipse class="cls-1" cx="1343.81" cy="300.04" rx="21.94" ry="13.62"/><ellipse class="cls-1" cx="1372.56" cy="316.68" rx="21.94" ry="13.62"/><ellipse class="cls-1" cx="1371.04" cy="289.44" rx="24.96" ry="16.64"/><ellipse class="cls-1" cx="1392.22" cy="303.06" rx="21.94" ry="13.62"/><ellipse class="cls-1" cx="1411.89" cy="286.42" rx="21.94" ry="13.62"/><ellipse class="cls-1" cx="1425.51" cy="306.09" rx="21.94" ry="13.62"/><ellipse class="cls-1" cx="1343.81" cy="300.04" rx="21.94" ry="13.62"/><ellipse class="cls-1" cx="1372.56" cy="316.68" rx="21.94" ry="13.62"/><ellipse class="cls-1" cx="2377.58" cy="339.79" rx="24.96" ry="16.64"/><ellipse class="cls-1" cx="2398.76" cy="353.41" rx="21.94" ry="13.62"/><ellipse class="cls-1" cx="2418.43" cy="336.77" rx="21.94" ry="13.62"/><ellipse class="cls-1" cx="2432.05" cy="356.43" rx="21.94" ry="13.62"/><ellipse class="cls-1" cx="2350.35" cy="350.38" rx="21.94" ry="13.62"/><ellipse class="cls-1" cx="2379.09" cy="367.02" rx="21.94" ry="13.62"/><ellipse class="cls-1" cx="2377.58" cy="339.79" rx="24.96" ry="16.64"/><ellipse class="cls-1" cx="2398.76" cy="353.41" rx="21.94" ry="13.62"/><ellipse class="cls-1" cx="2418.43" cy="336.77" rx="21.94" ry="13.62"/><ellipse class="cls-1" cx="2432.05" cy="356.43" rx="21.94" ry="13.62"/><ellipse class="cls-1" cx="859.18" cy="198.02" rx="24.96" ry="16.64"/><ellipse class="cls-1" cx="880.36" cy="211.64" rx="21.94" ry="13.62"/><ellipse class="cls-1" cx="900.03" cy="195" rx="21.94" ry="13.62"/><ellipse class="cls-1" cx="913.64" cy="214.66" rx="21.94" ry="13.62"/><ellipse class="cls-1" cx="860.69" cy="225.25" rx="21.94" ry="13.62"/><ellipse class="cls-1" cx="859.18" cy="198.02" rx="24.96" ry="16.64"/><ellipse class="cls-1" cx="880.36" cy="211.64" rx="21.94" ry="13.62"/><ellipse class="cls-1" cx="900.03" cy="195" rx="21.94" ry="13.62"/><ellipse class="cls-1" cx="913.64" cy="214.66" rx="21.94" ry="13.62"/><ellipse class="cls-1" cx="860.69" cy="225.25" rx="21.94" ry="13.62"/><ellipse class="cls-1" cx="1046.36" cy="247.57" rx="24.96" ry="16.64"/><ellipse class="cls-1" cx="1067.54" cy="261.19" rx="21.94" ry="13.62"/><ellipse class="cls-1" cx="1087.21" cy="244.54" rx="21.94" ry="13.62"/><ellipse class="cls-1" cx="1100.82" cy="264.21" rx="21.94" ry="13.62"/><ellipse class="cls-1" cx="1019.12" cy="258.16" rx="21.94" ry="13.62"/><ellipse class="cls-1" cx="1047.87" cy="274.8" rx="21.94" ry="13.62"/><ellipse class="cls-1" cx="1046.36" cy="247.57" rx="24.96" ry="16.64"/><ellipse class="cls-1" cx="1067.54" cy="261.19" rx="21.94" ry="13.62"/><ellipse class="cls-1" cx="1087.21" cy="244.54" rx="21.94" ry="13.62"/><ellipse class="cls-1" cx="1100.82" cy="264.21" rx="21.94" ry="13.62"/><ellipse class="cls-1" cx="1019.12" cy="258.16" rx="21.94" ry="13.62"/><ellipse class="cls-1" cx="1047.87" cy="274.8" rx="21.94" ry="13.62"/><ellipse class="cls-1" cx="1136.74" cy="138.13" rx="24.96" ry="16.64"/><ellipse class="cls-1" cx="1157.92" cy="151.75" rx="21.94" ry="13.62"/><ellipse class="cls-1" cx="1109.51" cy="148.73" rx="21.94" ry="13.62"/><ellipse class="cls-1" cx="1138.25" cy="165.37" rx="21.94" ry="13.62"/><ellipse class="cls-1" cx="1136.74" cy="138.13" rx="24.96" ry="16.64"/><ellipse class="cls-1" cx="1157.92" cy="151.75" rx="21.94" ry="13.62"/><ellipse class="cls-1" cx="1109.51" cy="148.73" rx="21.94" ry="13.62"/><ellipse class="cls-1" cx="1138.25" cy="165.37" rx="21.94" ry="13.62"/><ellipse class="cls-1" cx="2350.35" cy="350.38" rx="21.94" ry="13.62"/><ellipse class="cls-1" cx="2379.09" cy="367.02" rx="21.94" ry="13.62"/><ellipse class="cls-1" cx="2407.84" cy="324.66" rx="24.96" ry="16.64"/><ellipse class="cls-1" cx="2429.02" cy="338.28" rx="21.94" ry="13.62"/><ellipse class="cls-1" cx="2448.69" cy="321.64" rx="21.94" ry="13.62"/><ellipse class="cls-1" cx="2462.3" cy="341.3" rx="21.94" ry="13.62"/><ellipse class="cls-1" cx="2380.61" cy="335.25" rx="21.94" ry="13.62"/><ellipse class="cls-1" cx="2409.35" cy="351.89" rx="21.94" ry="13.62"/><ellipse class="cls-1" cx="2407.84" cy="324.66" rx="24.96" ry="16.64"/><ellipse class="cls-1" cx="2429.02" cy="338.28" rx="21.94" ry="13.62"/><ellipse class="cls-1" cx="2448.69" cy="321.64" rx="21.94" ry="13.62"/><ellipse class="cls-1" cx="2462.3" cy="341.3" rx="21.94" ry="13.62"/><ellipse class="cls-1" cx="2380.61" cy="335.25" rx="21.94" ry="13.62"/><ellipse class="cls-1" cx="2409.35" cy="351.89" rx="21.94" ry="13.62"/><ellipse class="cls-1" cx="2824.26" cy="205.93" rx="24.96" ry="16.64"/><ellipse class="cls-1" cx="2845.44" cy="219.55" rx="21.94" ry="13.62"/><ellipse class="cls-1" cx="2865.11" cy="202.9" rx="21.94" ry="13.62"/><ellipse class="cls-1" cx="2878.73" cy="222.57" rx="21.94" ry="13.62"/><ellipse class="cls-1" cx="2797.03" cy="216.52" rx="21.94" ry="13.62"/><ellipse class="cls-1" cx="2825.77" cy="233.16" rx="21.94" ry="13.62"/><ellipse class="cls-1" cx="2824.26" cy="205.93" rx="24.96" ry="16.64"/><ellipse class="cls-1" cx="2845.44" cy="219.55" rx="21.94" ry="13.62"/><ellipse class="cls-1" cx="2865.11" cy="202.9" rx="21.94" ry="13.62"/><ellipse class="cls-1" cx="2878.73" cy="222.57" rx="21.94" ry="13.62"/><ellipse class="cls-1" cx="2797.03" cy="216.52" rx="21.94" ry="13.62"/><ellipse class="cls-1" cx="2825.77" cy="233.16" rx="21.94" ry="13.62"/><ellipse class="cls-1" cx="2985.15" cy="85.73" rx="24.96" ry="16.64"/><ellipse class="cls-1" cx="3006.33" cy="99.34" rx="21.94" ry="13.62"/><ellipse class="cls-1" cx="3026" cy="82.7" rx="21.94" ry="13.62"/><ellipse class="cls-1" cx="3039.62" cy="102.37" rx="21.94" ry="13.62"/><ellipse class="cls-1" cx="2957.92" cy="96.32" rx="21.94" ry="13.62"/><ellipse class="cls-1" cx="2986.66" cy="112.96" rx="21.94" ry="13.62"/><ellipse class="cls-1" cx="2985.15" cy="85.73" rx="24.96" ry="16.64"/><ellipse class="cls-1" cx="3006.33" cy="99.34" rx="21.94" ry="13.62"/><ellipse class="cls-1" cx="3026" cy="82.7" rx="21.94" ry="13.62"/><ellipse class="cls-1" cx="3039.62" cy="102.37" rx="21.94" ry="13.62"/><ellipse class="cls-1" cx="2957.92" cy="96.32" rx="21.94" ry="13.62"/><ellipse class="cls-1" cx="2986.66" cy="112.96" rx="21.94" ry="13.62"/><ellipse class="cls-1" cx="2772.1" cy="56.98" rx="24.96" ry="16.64"/><ellipse class="cls-1" cx="2793.28" cy="70.6" rx="21.94" ry="13.62"/><ellipse class="cls-1" cx="2812.94" cy="53.96" rx="21.94" ry="13.62"/><ellipse class="cls-1" cx="2826.56" cy="73.62" rx="21.94" ry="13.62"/><ellipse class="cls-1" cx="2773.61" cy="84.22" rx="21.94" ry="13.62"/><ellipse class="cls-1" cx="2772.1" cy="56.98" rx="24.96" ry="16.64"/><ellipse class="cls-1" cx="2793.28" cy="70.6" rx="21.94" ry="13.62"/><ellipse class="cls-1" cx="2812.94" cy="53.96" rx="21.94" ry="13.62"/><ellipse class="cls-1" cx="2826.56" cy="73.62" rx="21.94" ry="13.62"/><ellipse class="cls-1" cx="2773.61" cy="84.22" rx="21.94" ry="13.62"/><ellipse class="cls-1" cx="3157.69" cy="22.22" rx="24.96" ry="16.64"/><ellipse class="cls-1" cx="3178.87" cy="35.83" rx="21.94" ry="13.62"/><ellipse class="cls-1" cx="3198.54" cy="19.19" rx="21.94" ry="13.62"/><ellipse class="cls-1" cx="3212.15" cy="38.86" rx="21.94" ry="13.62"/><ellipse class="cls-1" cx="3130.45" cy="32.81" rx="21.94" ry="13.62"/><ellipse class="cls-1" cx="3159.2" cy="49.45" rx="21.94" ry="13.62"/><ellipse class="cls-1" cx="3157.69" cy="22.22" rx="24.96" ry="16.64"/><ellipse class="cls-1" cx="3178.87" cy="35.83" rx="21.94" ry="13.62"/><ellipse class="cls-1" cx="3198.54" cy="19.19" rx="21.94" ry="13.62"/><ellipse class="cls-1" cx="3212.15" cy="38.86" rx="21.94" ry="13.62"/><ellipse class="cls-1" cx="3130.45" cy="32.81" rx="21.94" ry="13.62"/><ellipse class="cls-1" cx="3159.2" cy="49.45" rx="21.94" ry="13.62"/><ellipse class="cls-1" cx="3318.33" cy="82.7" rx="24.96" ry="16.64"/><ellipse class="cls-1" cx="3339.51" cy="96.32" rx="21.94" ry="13.62"/><ellipse class="cls-1" cx="3359.18" cy="79.68" rx="21.94" ry="13.62"/><ellipse class="cls-1" cx="3291.1" cy="93.29" rx="21.94" ry="13.62"/><ellipse class="cls-1" cx="3302.66" cy="150.91" rx="21.94" ry="13.62"/><ellipse class="cls-1" cx="3318.33" cy="82.7" rx="24.96" ry="16.64"/><ellipse class="cls-1" cx="3339.51" cy="96.32" rx="21.94" ry="13.62"/><ellipse class="cls-1" cx="3359.18" cy="79.68" rx="21.94" ry="13.62"/><ellipse class="cls-1" cx="3291.1" cy="93.29" rx="21.94" ry="13.62"/><ellipse class="cls-1" cx="3302.66" cy="150.91" rx="21.94" ry="13.62"/><ellipse class="cls-1" cx="3241.05" cy="164.53" rx="24.96" ry="16.64"/><ellipse class="cls-1" cx="3262.23" cy="178.14" rx="21.94" ry="13.62"/><ellipse class="cls-1" cx="3281.9" cy="161.5" rx="21.94" ry="13.62"/><ellipse class="cls-1" cx="3295.52" cy="181.17" rx="21.94" ry="13.62"/><ellipse class="cls-1" cx="3213.82" cy="175.12" rx="21.94" ry="13.62"/><ellipse class="cls-1" cx="3242.56" cy="191.76" rx="21.94" ry="13.62"/><ellipse class="cls-1" cx="3241.05" cy="164.53" rx="24.96" ry="16.64"/><ellipse class="cls-1" cx="3262.23" cy="178.14" rx="21.94" ry="13.62"/><ellipse class="cls-1" cx="3281.9" cy="161.5" rx="21.94" ry="13.62"/><ellipse class="cls-1" cx="3295.52" cy="181.17" rx="21.94" ry="13.62"/><ellipse class="cls-1" cx="3213.82" cy="175.12" rx="21.94" ry="13.62"/><ellipse class="cls-1" cx="3242.56" cy="191.76" rx="21.94" ry="13.62"/><ellipse class="cls-1" cx="3060.04" cy="286.36" rx="24.96" ry="16.64"/><ellipse class="cls-1" cx="3081.22" cy="299.98" rx="21.94" ry="13.62"/><ellipse class="cls-1" cx="3100.89" cy="283.33" rx="21.94" ry="13.62"/><ellipse class="cls-1" cx="3114.51" cy="303" rx="21.94" ry="13.62"/><ellipse class="cls-1" cx="3032.81" cy="296.95" rx="21.94" ry="13.62"/><ellipse class="cls-1" cx="3061.55" cy="313.59" rx="21.94" ry="13.62"/><ellipse class="cls-1" cx="3060.04" cy="286.36" rx="24.96" ry="16.64"/><ellipse class="cls-1" cx="3081.22" cy="299.98" rx="21.94" ry="13.62"/><ellipse class="cls-1" cx="3100.89" cy="283.33" rx="21.94" ry="13.62"/><ellipse class="cls-1" cx="3114.51" cy="303" rx="21.94" ry="13.62"/><ellipse class="cls-1" cx="3032.81" cy="296.95" rx="21.94" ry="13.62"/><ellipse class="cls-1" cx="3061.55" cy="313.59" rx="21.94" ry="13.62"/><ellipse class="cls-1" cx="3090.3" cy="271.23" rx="24.96" ry="16.64"/><ellipse class="cls-1" cx="3111.48" cy="284.85" rx="21.94" ry="13.62"/><ellipse class="cls-1" cx="3131.15" cy="268.21" rx="21.94" ry="13.62"/><ellipse class="cls-1" cx="3144.77" cy="287.87" rx="21.94" ry="13.62"/><ellipse class="cls-1" cx="3063.07" cy="281.82" rx="21.94" ry="13.62"/><ellipse class="cls-1" cx="3091.81" cy="298.46" rx="21.94" ry="13.62"/><ellipse class="cls-1" cx="3090.3" cy="271.23" rx="24.96" ry="16.64"/><ellipse class="cls-1" cx="3111.48" cy="284.85" rx="21.94" ry="13.62"/><ellipse class="cls-1" cx="3131.15" cy="268.21" rx="21.94" ry="13.62"/><ellipse class="cls-1" cx="3144.77" cy="287.87" rx="21.94" ry="13.62"/><ellipse class="cls-1" cx="3063.07" cy="281.82" rx="21.94" ry="13.62"/><ellipse class="cls-1" cx="3091.81" cy="298.46" rx="21.94" ry="13.62"/><ellipse class="cls-1" cx="731.04" cy="68.92" rx="24.96" ry="16.64"/><ellipse class="cls-1" cx="752.22" cy="82.54" rx="21.94" ry="13.62"/><ellipse class="cls-1" cx="771.89" cy="65.9" rx="21.94" ry="13.62"/><ellipse class="cls-1" cx="785.51" cy="85.57" rx="21.94" ry="13.62"/><ellipse class="cls-1" cx="703.81" cy="79.52" rx="21.94" ry="13.62"/><ellipse class="cls-1" cx="732.55" cy="96.16" rx="21.94" ry="13.62"/><ellipse class="cls-1" cx="731.04" cy="68.92" rx="24.96" ry="16.64"/><ellipse class="cls-1" cx="752.22" cy="82.54" rx="21.94" ry="13.62"/><ellipse class="cls-1" cx="771.89" cy="65.9" rx="21.94" ry="13.62"/><ellipse class="cls-1" cx="785.51" cy="85.57" rx="21.94" ry="13.62"/><ellipse class="cls-1" cx="703.81" cy="79.52" rx="21.94" ry="13.62"/><ellipse class="cls-1" cx="732.55" cy="96.16" rx="21.94" ry="13.62"/><ellipse class="cls-1" cx="668.25" cy="190.61" rx="24.96" ry="16.64"/><ellipse class="cls-1" cx="689.44" cy="204.22" rx="21.94" ry="13.62"/><ellipse class="cls-1" cx="709.1" cy="187.58" rx="21.94" ry="13.62"/><ellipse class="cls-1" cx="722.72" cy="207.25" rx="21.94" ry="13.62"/><ellipse class="cls-1" cx="641.02" cy="201.2" rx="21.94" ry="13.62"/><ellipse class="cls-1" cx="669.77" cy="217.84" rx="21.94" ry="13.62"/><ellipse class="cls-1" cx="668.25" cy="190.61" rx="24.96" ry="16.64"/><ellipse class="cls-1" cx="689.44" cy="204.22" rx="21.94" ry="13.62"/><ellipse class="cls-1" cx="709.1" cy="187.58" rx="21.94" ry="13.62"/><ellipse class="cls-1" cx="722.72" cy="207.25" rx="21.94" ry="13.62"/><ellipse class="cls-1" cx="641.02" cy="201.2" rx="21.94" ry="13.62"/><ellipse class="cls-1" cx="669.77" cy="217.84" rx="21.94" ry="13.62"/><ellipse class="cls-1" cx="698.51" cy="175.48" rx="24.96" ry="16.64"/><ellipse class="cls-1" cx="719.69" cy="189.09" rx="21.94" ry="13.62"/><ellipse class="cls-1" cx="739.36" cy="172.45" rx="21.94" ry="13.62"/><ellipse class="cls-1" cx="752.98" cy="192.12" rx="21.94" ry="13.62"/><ellipse class="cls-1" cx="671.28" cy="186.07" rx="21.94" ry="13.62"/><ellipse class="cls-1" cx="700.03" cy="202.71" rx="21.94" ry="13.62"/><ellipse class="cls-1" cx="698.51" cy="175.48" rx="24.96" ry="16.64"/><ellipse class="cls-1" cx="719.69" cy="189.09" rx="21.94" ry="13.62"/><ellipse class="cls-1" cx="739.36" cy="172.45" rx="21.94" ry="13.62"/><ellipse class="cls-1" cx="752.98" cy="192.12" rx="21.94" ry="13.62"/><ellipse class="cls-1" cx="671.28" cy="186.07" rx="21.94" ry="13.62"/><ellipse class="cls-1" cx="700.03" cy="202.71" rx="21.94" ry="13.62"/><ellipse class="cls-1" cx="186.65" cy="84.05" rx="24.96" ry="16.64"/><ellipse class="cls-1" cx="207.83" cy="97.67" rx="21.94" ry="13.62"/><ellipse class="cls-1" cx="227.5" cy="81.03" rx="21.94" ry="13.62"/><ellipse class="cls-1" cx="241.11" cy="100.7" rx="21.94" ry="13.62"/><ellipse class="cls-1" cx="188.16" cy="111.29" rx="21.94" ry="13.62"/><ellipse class="cls-1" cx="186.65" cy="84.05" rx="24.96" ry="16.64"/><ellipse class="cls-1" cx="207.83" cy="97.67" rx="21.94" ry="13.62"/><ellipse class="cls-1" cx="227.5" cy="81.03" rx="21.94" ry="13.62"/><ellipse class="cls-1" cx="241.11" cy="100.7" rx="21.94" ry="13.62"/><ellipse class="cls-1" cx="188.16" cy="111.29" rx="21.94" ry="13.62"/><ellipse class="cls-1" cx="373.83" cy="133.6" rx="24.96" ry="16.64"/><ellipse class="cls-1" cx="395.01" cy="147.22" rx="21.94" ry="13.62"/><ellipse class="cls-1" cx="414.68" cy="130.58" rx="21.94" ry="13.62"/><ellipse class="cls-1" cx="428.29" cy="150.25" rx="21.94" ry="13.62"/><ellipse class="cls-1" cx="346.59" cy="144.19" rx="21.94" ry="13.62"/><ellipse class="cls-1" cx="375.34" cy="160.84" rx="21.94" ry="13.62"/><ellipse class="cls-1" cx="373.83" cy="133.6" rx="24.96" ry="16.64"/><ellipse class="cls-1" cx="395.01" cy="147.22" rx="21.94" ry="13.62"/><ellipse class="cls-1" cx="414.68" cy="130.58" rx="21.94" ry="13.62"/><ellipse class="cls-1" cx="428.29" cy="150.25" rx="21.94" ry="13.62"/><ellipse class="cls-1" cx="346.59" cy="144.19" rx="21.94" ry="13.62"/><ellipse class="cls-1" cx="375.34" cy="160.84" rx="21.94" ry="13.62"/><ellipse class="cls-1" cx="464.21" cy="24.17" rx="24.96" ry="16.64"/><ellipse class="cls-1" cx="485.39" cy="37.78" rx="21.94" ry="13.62"/><ellipse class="cls-1" cx="436.98" cy="34.76" rx="21.94" ry="13.62"/><ellipse class="cls-1" cx="465.72" cy="51.4" rx="21.94" ry="13.62"/><ellipse class="cls-1" cx="464.21" cy="24.17" rx="24.96" ry="16.64"/><ellipse class="cls-1" cx="485.39" cy="37.78" rx="21.94" ry="13.62"/><ellipse class="cls-1" cx="436.98" cy="34.76" rx="21.94" ry="13.62"/><ellipse class="cls-1" cx="465.72" cy="51.4" rx="21.94" ry="13.62"/><ellipse class="cls-1" cx="530.29" cy="213.65" rx="24.96" ry="16.64"/><ellipse class="cls-1" cx="551.48" cy="227.26" rx="21.94" ry="13.62"/><ellipse class="cls-1" cx="571.14" cy="210.62" rx="21.94" ry="13.62"/><ellipse class="cls-1" cx="584.76" cy="230.29" rx="21.94" ry="13.62"/><ellipse class="cls-1" cx="503.06" cy="224.24" rx="21.94" ry="13.62"/><ellipse class="cls-1" cx="531.81" cy="240.88" rx="21.94" ry="13.62"/><ellipse class="cls-1" cx="530.29" cy="213.65" rx="24.96" ry="16.64"/><ellipse class="cls-1" cx="551.48" cy="227.26" rx="21.94" ry="13.62"/><ellipse class="cls-1" cx="571.14" cy="210.62" rx="21.94" ry="13.62"/><ellipse class="cls-1" cx="584.76" cy="230.29" rx="21.94" ry="13.62"/><ellipse class="cls-1" cx="503.06" cy="224.24" rx="21.94" ry="13.62"/><ellipse class="cls-1" cx="531.81" cy="240.88" rx="21.94" ry="13.62"/><ellipse class="cls-1" cx="63.54" cy="228.62" rx="24.96" ry="16.64"/><ellipse class="cls-1" cx="84.73" cy="242.24" rx="21.94" ry="13.62"/><ellipse class="cls-1" cx="104.39" cy="225.6" rx="21.94" ry="13.62"/><ellipse class="cls-1" cx="118.01" cy="245.27" rx="21.94" ry="13.62"/><ellipse class="cls-1" cx="36.31" cy="239.21" rx="21.94" ry="13.62"/><ellipse class="cls-1" cx="65.06" cy="255.86" rx="21.94" ry="13.62"/><ellipse class="cls-1" cx="63.54" cy="228.62" rx="24.96" ry="16.64"/><ellipse class="cls-1" cx="84.73" cy="242.24" rx="21.94" ry="13.62"/><ellipse class="cls-1" cx="104.39" cy="225.6" rx="21.94" ry="13.62"/><ellipse class="cls-1" cx="118.01" cy="245.27" rx="21.94" ry="13.62"/><ellipse class="cls-1" cx="36.31" cy="239.21" rx="21.94" ry="13.62"/><ellipse class="cls-1" cx="65.06" cy="255.86" rx="21.94" ry="13.62"/><ellipse class="cls-1" cx="93.8" cy="213.49" rx="24.96" ry="16.64"/><ellipse class="cls-1" cx="114.98" cy="227.11" rx="21.94" ry="13.62"/><ellipse class="cls-1" cx="134.65" cy="210.47" rx="21.94" ry="13.62"/><ellipse class="cls-1" cx="148.27" cy="230.14" rx="21.94" ry="13.62"/><ellipse class="cls-1" cx="66.57" cy="224.08" rx="21.94" ry="13.62"/><ellipse class="cls-1" cx="95.32" cy="240.73" rx="21.94" ry="13.62"/><ellipse class="cls-1" cx="93.8" cy="213.49" rx="24.96" ry="16.64"/><ellipse class="cls-1" cx="114.98" cy="227.11" rx="21.94" ry="13.62"/><ellipse class="cls-1" cx="134.65" cy="210.47" rx="21.94" ry="13.62"/><ellipse class="cls-1" cx="148.27" cy="230.14" rx="21.94" ry="13.62"/><ellipse class="cls-1" cx="66.57" cy="224.08" rx="21.94" ry="13.62"/><ellipse class="cls-1" cx="95.32" cy="240.73" rx="21.94" ry="13.62"/><ellipse class="cls-1" cx="49.17" cy="40.85" rx="24.96" ry="16.64"/><ellipse class="cls-1" cx="70.35" cy="54.47" rx="21.94" ry="13.62"/><ellipse class="cls-1" cx="21.94" cy="51.44" rx="21.94" ry="13.62"/><ellipse class="cls-1" cx="50.68" cy="68.08" rx="21.94" ry="13.62"/><ellipse class="cls-1" cx="49.17" cy="40.85" rx="24.96" ry="16.64"/><ellipse class="cls-1" cx="70.35" cy="54.47" rx="21.94" ry="13.62"/><ellipse class="cls-1" cx="21.94" cy="51.44" rx="21.94" ry="13.62"/><ellipse class="cls-1" cx="50.68" cy="68.08" rx="21.94" ry="13.62"/></g></g></svg>