<svg xmlns="http://www.w3.org/2000/svg" viewBox="0 0 768 1366.44"><defs><style>.cls-1{fill:#cef3f1;}.cls-2{fill:#00d5e5;}.cls-3{fill:#2ecc71;}.cls-4{fill:#838383;}.cls-5{fill:#a8a8a8;}.cls-6{fill:#c4c4c4;}.cls-7{fill:#fff;}</style></defs><title>Layer 11</title><g id="Layer_2" data-name="Layer 2"><g id="Layer_11" data-name="Layer 11"><rect class="cls-1" width="768" height="1366.44"/><path class="cls-2" d="M0,1266.44H768v100H0Z"/><path class="cls-3" d="M0,1101.44H768v165H0Z"/><path class="cls-4" d="M0,1075.44H768v26H0Z"/><rect class="cls-5" x="12.86" y="706.44" width="113" height="369"/><rect class="cls-6" x="128.86" y="795.44" width="113" height="280"/><rect class="cls-5" x="243.86" y="636.44" width="113" height="439"/><rect class="cls-6" x="358.86" y="850.44" width="113" height="225"/><rect class="cls-7" x="362.86" y="857.44" width="24" height="31"/><rect class="cls-7" x="390.86" y="857.44" width="21" height="31"/><rect class="cls-7" x="416.86" y="857.44" width="23" height="31"/><rect class="cls-7" x="362.86" y="892.44" width="24" height="31"/><rect class="cls-7" x="390.86" y="892.44" width="21" height="31"/><rect class="cls-7" x="416.86" y="892.44" width="23" height="31"/><rect class="cls-7" x="362.86" y="926.44" width="24" height="31"/><rect class="cls-7" x="390.86" y="926.44" width="21" height="31"/><rect class="cls-7" x="416.86" y="926.44" width="23" height="31"/><rect class="cls-7" x="362.86" y="961.44" width="24" height="31"/><rect class="cls-7" x="390.86" y="961.44" width="21" height="31"/><rect class="cls-7" x="416.86" y="961.44" width="23" height="31"/><rect class="cls-7" x="362.86" y="997.44" width="24" height="31"/><rect class="cls-7" x="362.86" y="1032.44" width="24" height="31"/><rect class="cls-7" x="390.86" y="997.44" width="21" height="31"/><rect class="cls-7" x="390.86" y="1032.44" width="21" height="31"/><rect class="cls-7" x="416.86" y="997.44" width="23" height="31"/><rect class="cls-7" x="443.86" y="857.44" width="24" height="31"/><rect class="cls-7" x="443.86" y="892.44" width="24" height="31"/><rect class="cls-7" x="443.86" y="926.44" width="24" height="31"/><rect class="cls-7" x="443.86" y="961.44" width="24" height="31"/><rect class="cls-7" x="443.86" y="997.44" width="24" height="31"/><rect class="cls-7" x="132.86" y="799.44" width="23" height="31"/><rect class="cls-7" x="160.86" y="799.44" width="21" height="31"/><rect class="cls-7" x="185.86" y="799.44" width="24" height="31"/><rect class="cls-7" x="132.86" y="834.44" width="23" height="31"/><rect class="cls-7" x="160.86" y="834.44" width="21" height="31"/><rect class="cls-7" x="185.86" y="834.44" width="24" height="31"/><rect class="cls-7" x="132.86" y="868.44" width="23" height="31"/><rect class="cls-7" x="160.86" y="868.44" width="21" height="31"/><rect class="cls-7" x="185.86" y="868.44" width="24" height="31"/><rect class="cls-7" x="132.86" y="904.44" width="23" height="31"/><rect class="cls-7" x="160.86" y="904.44" width="21" height="31"/><rect class="cls-7" x="185.86" y="904.44" width="24" height="31"/><rect class="cls-7" x="132.86" y="939.44" width="23" height="31"/><rect class="cls-7" x="160.86" y="939.44" width="21" height="31"/><rect class="cls-7" x="185.86" y="939.44" width="24" height="31"/><rect class="cls-7" x="213.86" y="799.44" width="23" height="31"/><rect class="cls-7" x="213.86" y="834.44" width="23" height="31"/><rect class="cls-7" x="213.86" y="868.44" width="23" height="31"/><rect class="cls-7" x="213.86" y="904.44" width="23" height="31"/><rect class="cls-7" x="213.86" y="939.44" width="23" height="31"/><rect class="cls-7" x="132.86" y="974.44" width="23" height="31"/><rect class="cls-7" x="160.86" y="974.44" width="21" height="31"/><rect class="cls-7" x="185.86" y="974.44" width="24" height="31"/><rect class="cls-7" x="132.86" y="1009.44" width="23" height="30"/><rect class="cls-7" x="160.86" y="1009.44" width="21" height="30"/><rect class="cls-7" x="185.86" y="1009.44" width="24" height="30"/><rect class="cls-7" x="213.86" y="974.44" width="23" height="31"/><rect class="cls-7" x="213.86" y="1009.44" width="23" height="30"/><rect class="cls-7" x="17.86" y="712.44" width="23" height="31"/><rect class="cls-7" x="44.86" y="712.44" width="22" height="31"/><rect class="cls-7" x="70.86" y="712.44" width="23" height="31"/><rect class="cls-7" x="17.86" y="748.44" width="23" height="31"/><rect class="cls-7" x="44.86" y="748.44" width="22" height="31"/><rect class="cls-7" x="70.86" y="748.44" width="23" height="31"/><rect class="cls-7" x="17.86" y="782.44" width="23" height="31"/><rect class="cls-7" x="44.86" y="782.44" width="22" height="31"/><rect class="cls-7" x="70.86" y="782.44" width="23" height="31"/><rect class="cls-7" x="17.86" y="817.44" width="23" height="31"/><rect class="cls-7" x="44.86" y="817.44" width="22" height="31"/><rect class="cls-7" x="70.86" y="817.44" width="23" height="31"/><rect class="cls-7" x="17.86" y="852.44" width="23" height="31"/><rect class="cls-7" x="44.86" y="852.44" width="22" height="31"/><rect class="cls-7" x="70.86" y="852.44" width="23" height="31"/><rect class="cls-7" x="98.86" y="712.44" width="23" height="31"/><rect class="cls-7" x="98.86" y="748.44" width="23" height="31"/><rect class="cls-7" x="98.86" y="782.44" width="23" height="31"/><rect class="cls-7" x="98.86" y="817.44" width="23" height="31"/><rect class="cls-7" x="98.86" y="852.44" width="23" height="31"/><rect class="cls-7" x="17.86" y="888.44" width="23" height="31"/><rect class="cls-7" x="44.86" y="888.44" width="22" height="31"/><rect class="cls-7" x="70.86" y="888.44" width="23" height="31"/><rect class="cls-7" x="17.86" y="923.44" width="23" height="30"/><rect class="cls-7" x="44.86" y="923.44" width="22" height="30"/><rect class="cls-7" x="70.86" y="923.44" width="23" height="30"/><rect class="cls-7" x="98.86" y="888.44" width="23" height="31"/><rect class="cls-7" x="98.86" y="923.44" width="23" height="30"/><rect class="cls-7" x="17.86" y="957.44" width="23" height="31"/><rect class="cls-7" x="44.86" y="957.44" width="22" height="31"/><rect class="cls-7" x="70.86" y="957.44" width="23" height="31"/><rect class="cls-7" x="17.86" y="992.44" width="23" height="31"/><rect class="cls-7" x="44.86" y="992.44" width="22" height="31"/><rect class="cls-7" x="70.86" y="992.44" width="23" height="31"/><rect class="cls-7" x="98.86" y="957.44" width="23" height="31"/><rect class="cls-7" x="98.86" y="992.44" width="23" height="31"/><rect class="cls-7" x="247.86" y="640.44" width="23" height="31"/><rect class="cls-7" x="275.86" y="640.44" width="21" height="31"/><rect class="cls-7" x="300.86" y="640.44" width="24" height="31"/><rect class="cls-7" x="247.86" y="675.44" width="23" height="31"/><rect class="cls-7" x="275.86" y="675.44" width="21" height="31"/><rect class="cls-7" x="300.86" y="675.44" width="24" height="31"/><rect class="cls-7" x="247.86" y="710.44" width="23" height="31"/><rect class="cls-7" x="275.86" y="710.44" width="21" height="31"/><rect class="cls-7" x="300.86" y="710.44" width="24" height="31"/><rect class="cls-7" x="247.86" y="745.44" width="23" height="31"/><rect class="cls-7" x="275.86" y="745.44" width="21" height="31"/><rect class="cls-7" x="300.86" y="745.44" width="24" height="31"/><rect class="cls-7" x="247.86" y="781.44" width="23" height="30"/><rect class="cls-7" x="275.86" y="781.44" width="21" height="30"/><rect class="cls-7" x="300.86" y="781.44" width="24" height="30"/><rect class="cls-7" x="328.86" y="640.44" width="24" height="31"/><rect class="cls-7" x="328.86" y="675.44" width="24" height="31"/><rect class="cls-7" x="328.86" y="710.44" width="24" height="31"/><rect class="cls-7" x="328.86" y="745.44" width="24" height="31"/><rect class="cls-7" x="328.86" y="781.44" width="24" height="30"/><rect class="cls-7" x="247.86" y="815.44" width="23" height="31"/><rect class="cls-7" x="275.86" y="815.44" width="21" height="31"/><rect class="cls-7" x="300.86" y="815.44" width="24" height="31"/><rect class="cls-7" x="247.86" y="850.44" width="23" height="31"/><rect class="cls-7" x="275.86" y="850.44" width="21" height="31"/><rect class="cls-7" x="300.86" y="850.44" width="24" height="31"/><rect class="cls-7" x="328.86" y="815.44" width="24" height="31"/><rect class="cls-7" x="328.86" y="850.44" width="24" height="31"/><rect class="cls-7" x="247.86" y="885.44" width="23" height="31"/><rect class="cls-7" x="275.86" y="885.44" width="21" height="31"/><rect class="cls-7" x="300.86" y="885.44" width="24" height="31"/><rect class="cls-7" x="247.86" y="921.44" width="23" height="31"/><rect class="cls-7" x="275.86" y="921.44" width="21" height="31"/><rect class="cls-7" x="300.86" y="921.44" width="24" height="31"/><rect class="cls-7" x="328.86" y="885.44" width="24" height="31"/><rect class="cls-7" x="328.86" y="921.44" width="24" height="31"/><rect class="cls-7" x="247.86" y="955.44" width="23" height="31"/><rect class="cls-7" x="275.86" y="955.44" width="21" height="31"/><rect class="cls-7" x="300.86" y="955.44" width="24" height="31"/><rect class="cls-7" x="247.86" y="990.44" width="23" height="31"/><rect class="cls-7" x="275.86" y="990.44" width="21" height="31"/><rect class="cls-7" x="300.86" y="990.44" width="24" height="31"/><rect class="cls-7" x="328.86" y="955.44" width="24" height="31"/><rect class="cls-7" x="328.86" y="990.44" width="24" height="31"/><rect class="cls-7" x="328.86" y="1026.44" width="24" height="31"/><rect class="cls-7" x="70.86" y="1028.44" width="23" height="31"/><rect class="cls-7" x="98.86" y="1028.44" width="23" height="31"/><rect class="cls-7" x="258.86" y="1044.44" width="23" height="31"/><rect class="cls-7" x="29.86" y="1044.44" width="20" height="31"/><rect class="cls-7" x="172.86" y="1044.44" width="20" height="31"/><rect class="cls-7" x="433.86" y="1044.44" width="19" height="31"/></g></g></svg>