<svg xmlns="http://www.w3.org/2000/svg" viewBox="0 0 1920 1080"><defs><style>.cls-1{fill:#00a2ae;}.cls-2{fill:#288848;}.cls-3{fill:#838383;}.cls-4{fill:#222;}.cls-5{fill:#a8a8a8;}.cls-6{fill:#c4c4c4;}.cls-7{fill:#fff;}</style></defs><title>Layer 27</title><g id="Layer_2" data-name="Layer 2"><g id="Layer_27" data-name="Layer 27"><path class="cls-1" d="M0,993H1920v87H0Z"/><path class="cls-2" d="M0,849H1920V993H0Z"/><path class="cls-3" d="M0,826H1920v23H0Z"/><path class="cls-1" d="M0,993H1920v87H0Z"/><path class="cls-2" d="M0,849H1920V993H0Z"/><path class="cls-3" d="M0,826H1920v23H0Z"/><path class="cls-1" d="M0,993H1920v87H0Z"/><path class="cls-2" d="M0,849H1920V993H0Z"/><rect class="cls-4" width="1920" height="1080"/><path class="cls-3" d="M0,826H1920v23H0Z"/><path class="cls-1" d="M0,993H1920v87H0Z"/><path class="cls-2" d="M0,849H1920V993H0Z"/><path class="cls-3" d="M0,826H1920v23H0Z"/><rect class="cls-5" x="41.99" y="439" width="113" height="387"/><rect class="cls-6" x="156.99" y="532" width="113" height="294"/><rect class="cls-5" x="271.99" y="365" width="113" height="461"/><rect class="cls-6" x="386.99" y="591" width="114" height="235"/><rect class="cls-7" x="391.99" y="597" width="24" height="32"/><rect class="cls-7" x="419.99" y="597" width="22" height="32"/><rect class="cls-7" x="445.99" y="597" width="23" height="32"/><rect class="cls-7" x="391.99" y="633" width="24" height="33"/><rect class="cls-7" x="419.99" y="633" width="22" height="33"/><rect class="cls-7" x="445.99" y="633" width="23" height="33"/><rect class="cls-7" x="391.99" y="670" width="24" height="32"/><rect class="cls-7" x="419.99" y="670" width="22" height="32"/><rect class="cls-7" x="445.99" y="670" width="23" height="32"/><rect class="cls-7" x="391.99" y="708" width="24" height="32"/><rect class="cls-7" x="419.99" y="708" width="22" height="32"/><rect class="cls-7" x="445.99" y="708" width="23" height="32"/><rect class="cls-7" x="391.99" y="744" width="24" height="33"/><rect class="cls-7" x="391.99" y="781" width="24" height="32"/><rect class="cls-7" x="419.99" y="744" width="22" height="33"/><rect class="cls-7" x="419.99" y="781" width="22" height="32"/><rect class="cls-7" x="445.99" y="744" width="23" height="33"/><rect class="cls-7" x="472.99" y="597" width="24" height="32"/><rect class="cls-7" x="472.99" y="633" width="24" height="33"/><rect class="cls-7" x="472.99" y="670" width="24" height="32"/><rect class="cls-7" x="472.99" y="708" width="24" height="32"/><rect class="cls-7" x="472.99" y="744" width="24" height="33"/><rect class="cls-7" x="161.99" y="536" width="23" height="32"/><rect class="cls-7" x="188.99" y="536" width="22" height="32"/><rect class="cls-7" x="214.99" y="536" width="23" height="32"/><rect class="cls-7" x="161.99" y="573" width="23" height="33"/><rect class="cls-7" x="188.99" y="573" width="22" height="33"/><rect class="cls-7" x="214.99" y="573" width="23" height="33"/><rect class="cls-7" x="161.99" y="610" width="23" height="33"/><rect class="cls-7" x="188.99" y="610" width="22" height="33"/><rect class="cls-7" x="214.99" y="610" width="23" height="33"/><rect class="cls-7" x="161.99" y="647" width="23" height="32"/><rect class="cls-7" x="188.99" y="647" width="22" height="32"/><rect class="cls-7" x="214.99" y="647" width="23" height="32"/><rect class="cls-7" x="161.99" y="683" width="23" height="33"/><rect class="cls-7" x="188.99" y="683" width="22" height="33"/><rect class="cls-7" x="214.99" y="683" width="23" height="33"/><rect class="cls-7" x="241.99" y="536" width="24" height="32"/><rect class="cls-7" x="241.99" y="573" width="24" height="33"/><rect class="cls-7" x="241.99" y="610" width="24" height="33"/><rect class="cls-7" x="241.99" y="647" width="24" height="32"/><rect class="cls-7" x="241.99" y="683" width="24" height="33"/><rect class="cls-7" x="161.99" y="720" width="23" height="32"/><rect class="cls-7" x="188.99" y="720" width="22" height="32"/><rect class="cls-7" x="214.99" y="720" width="23" height="32"/><rect class="cls-7" x="161.99" y="757" width="23" height="33"/><rect class="cls-7" x="188.99" y="757" width="22" height="33"/><rect class="cls-7" x="214.99" y="757" width="23" height="33"/><rect class="cls-7" x="241.99" y="720" width="24" height="32"/><rect class="cls-7" x="241.99" y="757" width="24" height="33"/><rect class="cls-7" x="46.99" y="445" width="23" height="33"/><rect class="cls-7" x="73.99" y="445" width="22" height="33"/><rect class="cls-7" x="99.99" y="445" width="23" height="33"/><rect class="cls-7" x="46.99" y="482" width="23" height="33"/><rect class="cls-7" x="73.99" y="482" width="22" height="33"/><rect class="cls-7" x="99.99" y="482" width="23" height="33"/><rect class="cls-7" x="46.99" y="519" width="23" height="32"/><rect class="cls-7" x="73.99" y="519" width="22" height="32"/><rect class="cls-7" x="99.99" y="519" width="23" height="32"/><rect class="cls-7" x="46.99" y="556" width="23" height="32"/><rect class="cls-7" x="73.99" y="556" width="22" height="32"/><rect class="cls-7" x="99.99" y="556" width="23" height="32"/><rect class="cls-7" x="46.99" y="593" width="23" height="32"/><rect class="cls-7" x="73.99" y="593" width="22" height="32"/><rect class="cls-7" x="99.99" y="593" width="23" height="32"/><rect class="cls-7" x="126.99" y="445" width="24" height="33"/><rect class="cls-7" x="126.99" y="482" width="24" height="33"/><rect class="cls-7" x="126.99" y="519" width="24" height="32"/><rect class="cls-7" x="126.99" y="556" width="24" height="32"/><rect class="cls-7" x="126.99" y="593" width="24" height="32"/><rect class="cls-7" x="46.99" y="629" width="23" height="33"/><rect class="cls-7" x="73.99" y="629" width="22" height="33"/><rect class="cls-7" x="99.99" y="629" width="23" height="33"/><rect class="cls-7" x="46.99" y="666" width="23" height="32"/><rect class="cls-7" x="73.99" y="666" width="22" height="32"/><rect class="cls-7" x="99.99" y="666" width="23" height="32"/><rect class="cls-7" x="126.99" y="629" width="24" height="33"/><rect class="cls-7" x="126.99" y="666" width="24" height="32"/><rect class="cls-7" x="46.99" y="702" width="23" height="33"/><rect class="cls-7" x="73.99" y="702" width="22" height="33"/><rect class="cls-7" x="99.99" y="702" width="23" height="33"/><rect class="cls-7" x="46.99" y="740" width="23" height="31"/><rect class="cls-7" x="73.99" y="740" width="22" height="31"/><rect class="cls-7" x="99.99" y="740" width="23" height="31"/><rect class="cls-7" x="126.99" y="702" width="24" height="33"/><rect class="cls-7" x="126.99" y="740" width="24" height="31"/><rect class="cls-7" x="276.99" y="369" width="23" height="33"/><rect class="cls-7" x="303.99" y="369" width="22" height="33"/><rect class="cls-7" x="329.99" y="369" width="23" height="33"/><rect class="cls-7" x="276.99" y="407" width="23" height="32"/><rect class="cls-7" x="303.99" y="407" width="22" height="32"/><rect class="cls-7" x="329.99" y="407" width="23" height="32"/><rect class="cls-7" x="276.99" y="443" width="23" height="33"/><rect class="cls-7" x="303.99" y="443" width="22" height="33"/><rect class="cls-7" x="329.99" y="443" width="23" height="33"/><rect class="cls-7" x="276.99" y="480" width="23" height="33"/><rect class="cls-7" x="303.99" y="480" width="22" height="33"/><rect class="cls-7" x="329.99" y="480" width="23" height="33"/><rect class="cls-7" x="276.99" y="517" width="23" height="32"/><rect class="cls-7" x="303.99" y="517" width="22" height="32"/><rect class="cls-7" x="329.99" y="517" width="23" height="32"/><rect class="cls-7" x="356.99" y="369" width="24" height="33"/><rect class="cls-7" x="356.99" y="407" width="24" height="32"/><rect class="cls-7" x="356.99" y="443" width="24" height="33"/><rect class="cls-7" x="356.99" y="480" width="24" height="33"/><rect class="cls-7" x="356.99" y="517" width="24" height="32"/><rect class="cls-7" x="276.99" y="553" width="23" height="33"/><rect class="cls-7" x="303.99" y="553" width="22" height="33"/><rect class="cls-7" x="329.99" y="553" width="23" height="33"/><rect class="cls-7" x="276.99" y="591" width="23" height="32"/><rect class="cls-7" x="303.99" y="591" width="22" height="32"/><rect class="cls-7" x="329.99" y="591" width="23" height="32"/><rect class="cls-7" x="356.99" y="553" width="24" height="33"/><rect class="cls-7" x="356.99" y="591" width="24" height="32"/><rect class="cls-7" x="276.99" y="627" width="23" height="33"/><rect class="cls-7" x="303.99" y="627" width="22" height="33"/><rect class="cls-7" x="329.99" y="627" width="23" height="33"/><rect class="cls-7" x="276.99" y="664" width="23" height="32"/><rect class="cls-7" x="303.99" y="664" width="22" height="32"/><rect class="cls-7" x="329.99" y="664" width="23" height="32"/><rect class="cls-7" x="356.99" y="627" width="24" height="33"/><rect class="cls-7" x="356.99" y="664" width="24" height="32"/><rect class="cls-7" x="276.99" y="700" width="23" height="33"/><rect class="cls-7" x="303.99" y="700" width="22" height="33"/><rect class="cls-7" x="329.99" y="700" width="23" height="33"/><rect class="cls-7" x="276.99" y="737" width="23" height="32"/><rect class="cls-7" x="303.99" y="737" width="22" height="32"/><rect class="cls-7" x="329.99" y="737" width="23" height="32"/><rect class="cls-7" x="356.99" y="700" width="24" height="33"/><rect class="cls-7" x="356.99" y="737" width="24" height="32"/><rect class="cls-7" x="356.99" y="775" width="24" height="32"/><rect class="cls-7" x="99.99" y="777" width="23" height="32"/><rect class="cls-7" x="126.99" y="777" width="24" height="32"/><rect class="cls-7" x="286.99" y="794" width="24" height="32"/><rect class="cls-7" x="58.99" y="794" width="19" height="32"/><rect class="cls-7" x="201.99" y="794" width="19" height="32"/><rect class="cls-7" x="462.99" y="794" width="19" height="32"/><rect class="cls-7" x="391.99" y="597" width="24" height="32"/><rect class="cls-7" x="419.99" y="597" width="22" height="32"/><rect class="cls-7" x="445.99" y="597" width="23" height="32"/><rect class="cls-7" x="391.99" y="633" width="24" height="33"/><rect class="cls-7" x="419.99" y="633" width="22" height="33"/><rect class="cls-7" x="445.99" y="633" width="23" height="33"/><rect class="cls-7" x="391.99" y="670" width="24" height="32"/><rect class="cls-7" x="419.99" y="670" width="22" height="32"/><rect class="cls-7" x="445.99" y="670" width="23" height="32"/><rect class="cls-7" x="391.99" y="708" width="24" height="32"/><rect class="cls-7" x="419.99" y="708" width="22" height="32"/><rect class="cls-7" x="445.99" y="708" width="23" height="32"/><rect class="cls-7" x="391.99" y="744" width="24" height="33"/><rect class="cls-7" x="391.99" y="781" width="24" height="32"/><rect class="cls-7" x="419.99" y="744" width="22" height="33"/><rect class="cls-7" x="419.99" y="781" width="22" height="32"/><rect class="cls-7" x="445.99" y="744" width="23" height="33"/><rect class="cls-7" x="472.99" y="597" width="24" height="32"/><rect class="cls-7" x="472.99" y="633" width="24" height="33"/><rect class="cls-7" x="472.99" y="670" width="24" height="32"/><rect class="cls-7" x="472.99" y="708" width="24" height="32"/><rect class="cls-7" x="472.99" y="744" width="24" height="33"/><rect class="cls-7" x="161.99" y="536" width="23" height="32"/><rect class="cls-7" x="188.99" y="536" width="22" height="32"/><rect class="cls-7" x="214.99" y="536" width="23" height="32"/><rect class="cls-7" x="161.99" y="573" width="23" height="33"/><rect class="cls-7" x="188.99" y="573" width="22" height="33"/><rect class="cls-7" x="214.99" y="573" width="23" height="33"/><rect class="cls-7" x="161.99" y="610" width="23" height="33"/><rect class="cls-7" x="188.99" y="610" width="22" height="33"/><rect class="cls-7" x="214.99" y="610" width="23" height="33"/><rect class="cls-7" x="161.99" y="647" width="23" height="32"/><rect class="cls-7" x="188.99" y="647" width="22" height="32"/><rect class="cls-7" x="214.99" y="647" width="23" height="32"/><rect class="cls-7" x="161.99" y="683" width="23" height="33"/><rect class="cls-7" x="188.99" y="683" width="22" height="33"/><rect class="cls-7" x="214.99" y="683" width="23" height="33"/><rect class="cls-7" x="241.99" y="536" width="24" height="32"/><rect class="cls-7" x="241.99" y="573" width="24" height="33"/><rect class="cls-7" x="241.99" y="610" width="24" height="33"/><rect class="cls-7" x="241.99" y="647" width="24" height="32"/><rect class="cls-7" x="241.99" y="683" width="24" height="33"/><rect class="cls-7" x="161.99" y="720" width="23" height="32"/><rect class="cls-7" x="188.99" y="720" width="22" height="32"/><rect class="cls-7" x="214.99" y="720" width="23" height="32"/><rect class="cls-7" x="161.99" y="757" width="23" height="33"/><rect class="cls-7" x="188.99" y="757" width="22" height="33"/><rect class="cls-7" x="214.99" y="757" width="23" height="33"/><rect class="cls-7" x="241.99" y="720" width="24" height="32"/><rect class="cls-7" x="241.99" y="757" width="24" height="33"/><rect class="cls-7" x="46.99" y="445" width="23" height="33"/><rect class="cls-7" x="73.99" y="445" width="22" height="33"/><rect class="cls-7" x="99.99" y="445" width="23" height="33"/><rect class="cls-7" x="46.99" y="482" width="23" height="33"/><rect class="cls-7" x="73.99" y="482" width="22" height="33"/><rect class="cls-7" x="99.99" y="482" width="23" height="33"/><rect class="cls-7" x="46.99" y="519" width="23" height="32"/><rect class="cls-7" x="73.99" y="519" width="22" height="32"/><rect class="cls-7" x="99.99" y="519" width="23" height="32"/><rect class="cls-7" x="46.99" y="556" width="23" height="32"/><rect class="cls-7" x="73.99" y="556" width="22" height="32"/><rect class="cls-7" x="99.99" y="556" width="23" height="32"/><rect class="cls-7" x="46.99" y="593" width="23" height="32"/><rect class="cls-7" x="73.99" y="593" width="22" height="32"/><rect class="cls-7" x="99.99" y="593" width="23" height="32"/><rect class="cls-7" x="126.99" y="445" width="24" height="33"/><rect class="cls-7" x="126.99" y="482" width="24" height="33"/><rect class="cls-7" x="126.99" y="519" width="24" height="32"/><rect class="cls-7" x="126.99" y="556" width="24" height="32"/><rect class="cls-7" x="126.99" y="593" width="24" height="32"/><rect class="cls-7" x="46.99" y="629" width="23" height="33"/><rect class="cls-7" x="73.99" y="629" width="22" height="33"/><rect class="cls-7" x="99.99" y="629" width="23" height="33"/><rect class="cls-7" x="46.99" y="666" width="23" height="32"/><rect class="cls-7" x="73.99" y="666" width="22" height="32"/><rect class="cls-7" x="99.99" y="666" width="23" height="32"/><rect class="cls-7" x="126.99" y="629" width="24" height="33"/><rect class="cls-7" x="126.99" y="666" width="24" height="32"/><rect class="cls-7" x="46.99" y="702" width="23" height="33"/><rect class="cls-7" x="73.99" y="702" width="22" height="33"/><rect class="cls-7" x="99.99" y="702" width="23" height="33"/><rect class="cls-7" x="46.99" y="740" width="23" height="31"/><rect class="cls-7" x="73.99" y="740" width="22" height="31"/><rect class="cls-7" x="99.99" y="740" width="23" height="31"/><rect class="cls-7" x="126.99" y="702" width="24" height="33"/><rect class="cls-7" x="126.99" y="740" width="24" height="31"/><rect class="cls-7" x="276.99" y="369" width="23" height="33"/><rect class="cls-7" x="303.99" y="369" width="22" height="33"/><rect class="cls-7" x="329.99" y="369" width="23" height="33"/><rect class="cls-7" x="276.99" y="407" width="23" height="32"/><rect class="cls-7" x="303.99" y="407" width="22" height="32"/><rect class="cls-7" x="329.99" y="407" width="23" height="32"/><rect class="cls-7" x="276.99" y="443" width="23" height="33"/><rect class="cls-7" x="303.99" y="443" width="22" height="33"/><rect class="cls-7" x="329.99" y="443" width="23" height="33"/><rect class="cls-7" x="276.99" y="480" width="23" height="33"/><rect class="cls-7" x="303.99" y="480" width="22" height="33"/><rect class="cls-7" x="329.99" y="480" width="23" height="33"/><rect class="cls-7" x="276.99" y="517" width="23" height="32"/><rect class="cls-7" x="303.99" y="517" width="22" height="32"/><rect class="cls-7" x="329.99" y="517" width="23" height="32"/><rect class="cls-7" x="356.99" y="369" width="24" height="33"/><rect class="cls-7" x="356.99" y="407" width="24" height="32"/><rect class="cls-7" x="356.99" y="443" width="24" height="33"/><rect class="cls-7" x="356.99" y="480" width="24" height="33"/><rect class="cls-7" x="356.99" y="517" width="24" height="32"/><rect class="cls-7" x="276.99" y="553" width="23" height="33"/><rect class="cls-7" x="303.99" y="553" width="22" height="33"/><rect class="cls-7" x="329.99" y="553" width="23" height="33"/><rect class="cls-7" x="276.99" y="591" width="23" height="32"/><rect class="cls-7" x="303.99" y="591" width="22" height="32"/><rect class="cls-7" x="329.99" y="591" width="23" height="32"/><rect class="cls-7" x="356.99" y="553" width="24" height="33"/><rect class="cls-7" x="356.99" y="591" width="24" height="32"/><rect class="cls-7" x="276.99" y="627" width="23" height="33"/><rect class="cls-7" x="303.99" y="627" width="22" height="33"/><rect class="cls-7" x="329.99" y="627" width="23" height="33"/><rect class="cls-7" x="276.99" y="664" width="23" height="32"/><rect class="cls-7" x="303.99" y="664" width="22" height="32"/><rect class="cls-7" x="329.99" y="664" width="23" height="32"/><rect class="cls-7" x="356.99" y="627" width="24" height="33"/><rect class="cls-7" x="356.99" y="664" width="24" height="32"/><rect class="cls-7" x="276.99" y="700" width="23" height="33"/><rect class="cls-7" x="303.99" y="700" width="22" height="33"/><rect class="cls-7" x="329.99" y="700" width="23" height="33"/><rect class="cls-7" x="276.99" y="737" width="23" height="32"/><rect class="cls-7" x="303.99" y="737" width="22" height="32"/><rect class="cls-7" x="329.99" y="737" width="23" height="32"/><rect class="cls-7" x="356.99" y="700" width="24" height="33"/><rect class="cls-7" x="356.99" y="737" width="24" height="32"/><rect class="cls-7" x="356.99" y="775" width="24" height="32"/><rect class="cls-7" x="99.99" y="777" width="23" height="32"/><rect class="cls-7" x="126.99" y="777" width="24" height="32"/><rect class="cls-7" x="286.99" y="794" width="24" height="32"/><rect class="cls-7" x="58.99" y="794" width="19" height="32"/><rect class="cls-7" x="201.99" y="794" width="19" height="32"/><rect class="cls-7" x="462.99" y="794" width="19" height="32"/><rect class="cls-5" x="41.99" y="439" width="113" height="387"/><rect class="cls-6" x="156.99" y="532" width="113" height="294"/><rect class="cls-5" x="271.99" y="365" width="113" height="461"/><rect class="cls-6" x="386.99" y="591" width="114" height="235"/><rect class="cls-7" x="391.99" y="597" width="24" height="32"/><rect class="cls-7" x="419.99" y="597" width="22" height="32"/><rect class="cls-7" x="445.99" y="597" width="23" height="32"/><rect class="cls-7" x="391.99" y="633" width="24" height="33"/><rect class="cls-7" x="419.99" y="633" width="22" height="33"/><rect class="cls-7" x="445.99" y="633" width="23" height="33"/><rect class="cls-7" x="391.99" y="670" width="24" height="32"/><rect class="cls-7" x="419.99" y="670" width="22" height="32"/><rect class="cls-7" x="445.99" y="670" width="23" height="32"/><rect class="cls-7" x="391.99" y="708" width="24" height="32"/><rect class="cls-7" x="419.99" y="708" width="22" height="32"/><rect class="cls-7" x="445.99" y="708" width="23" height="32"/><rect class="cls-7" x="391.99" y="744" width="24" height="33"/><rect class="cls-7" x="391.99" y="781" width="24" height="32"/><rect class="cls-7" x="419.99" y="744" width="22" height="33"/><rect class="cls-7" x="419.99" y="781" width="22" height="32"/><rect class="cls-7" x="445.99" y="744" width="23" height="33"/><rect class="cls-7" x="472.99" y="597" width="24" height="32"/><rect class="cls-7" x="472.99" y="633" width="24" height="33"/><rect class="cls-7" x="472.99" y="670" width="24" height="32"/><rect class="cls-7" x="472.99" y="708" width="24" height="32"/><rect class="cls-7" x="472.99" y="744" width="24" height="33"/><rect class="cls-7" x="161.99" y="536" width="23" height="32"/><rect class="cls-7" x="188.99" y="536" width="22" height="32"/><rect class="cls-7" x="214.99" y="536" width="23" height="32"/><rect class="cls-7" x="161.99" y="573" width="23" height="33"/><rect class="cls-7" x="188.99" y="573" width="22" height="33"/><rect class="cls-7" x="214.99" y="573" width="23" height="33"/><rect class="cls-7" x="161.99" y="610" width="23" height="33"/><rect class="cls-7" x="188.99" y="610" width="22" height="33"/><rect class="cls-7" x="214.99" y="610" width="23" height="33"/><rect class="cls-7" x="161.99" y="647" width="23" height="32"/><rect class="cls-7" x="188.99" y="647" width="22" height="32"/><rect class="cls-7" x="214.99" y="647" width="23" height="32"/><rect class="cls-7" x="161.99" y="683" width="23" height="33"/><rect class="cls-7" x="188.99" y="683" width="22" height="33"/><rect class="cls-7" x="214.99" y="683" width="23" height="33"/><rect class="cls-7" x="241.99" y="536" width="24" height="32"/><rect class="cls-7" x="241.99" y="573" width="24" height="33"/><rect class="cls-7" x="241.99" y="610" width="24" height="33"/><rect class="cls-7" x="241.99" y="647" width="24" height="32"/><rect class="cls-7" x="241.99" y="683" width="24" height="33"/><rect class="cls-7" x="161.99" y="720" width="23" height="32"/><rect class="cls-7" x="188.99" y="720" width="22" height="32"/><rect class="cls-7" x="214.99" y="720" width="23" height="32"/><rect class="cls-7" x="161.99" y="757" width="23" height="33"/><rect class="cls-7" x="188.99" y="757" width="22" height="33"/><rect class="cls-7" x="214.99" y="757" width="23" height="33"/><rect class="cls-7" x="241.99" y="720" width="24" height="32"/><rect class="cls-7" x="241.99" y="757" width="24" height="33"/><rect class="cls-7" x="46.99" y="445" width="23" height="33"/><rect class="cls-7" x="73.99" y="445" width="22" height="33"/><rect class="cls-7" x="99.99" y="445" width="23" height="33"/><rect class="cls-7" x="46.99" y="482" width="23" height="33"/><rect class="cls-7" x="73.99" y="482" width="22" height="33"/><rect class="cls-7" x="99.99" y="482" width="23" height="33"/><rect class="cls-7" x="46.99" y="519" width="23" height="32"/><rect class="cls-7" x="73.99" y="519" width="22" height="32"/><rect class="cls-7" x="99.99" y="519" width="23" height="32"/><rect class="cls-7" x="46.99" y="556" width="23" height="32"/><rect class="cls-7" x="73.99" y="556" width="22" height="32"/><rect class="cls-7" x="99.99" y="556" width="23" height="32"/><rect class="cls-7" x="46.99" y="593" width="23" height="32"/><rect class="cls-7" x="73.99" y="593" width="22" height="32"/><rect class="cls-7" x="99.99" y="593" width="23" height="32"/><rect class="cls-7" x="126.99" y="445" width="24" height="33"/><rect class="cls-7" x="126.99" y="482" width="24" height="33"/><rect class="cls-7" x="126.99" y="519" width="24" height="32"/><rect class="cls-7" x="126.99" y="556" width="24" height="32"/><rect class="cls-7" x="126.99" y="593" width="24" height="32"/><rect class="cls-7" x="46.99" y="629" width="23" height="33"/><rect class="cls-7" x="73.99" y="629" width="22" height="33"/><rect class="cls-7" x="99.99" y="629" width="23" height="33"/><rect class="cls-7" x="46.99" y="666" width="23" height="32"/><rect class="cls-7" x="73.99" y="666" width="22" height="32"/><rect class="cls-7" x="99.99" y="666" width="23" height="32"/><rect class="cls-7" x="126.99" y="629" width="24" height="33"/><rect class="cls-7" x="126.99" y="666" width="24" height="32"/><rect class="cls-7" x="46.99" y="702" width="23" height="33"/><rect class="cls-7" x="73.99" y="702" width="22" height="33"/><rect class="cls-7" x="99.99" y="702" width="23" height="33"/><rect class="cls-7" x="46.99" y="740" width="23" height="31"/><rect class="cls-7" x="73.99" y="740" width="22" height="31"/><rect class="cls-7" x="99.99" y="740" width="23" height="31"/><rect class="cls-7" x="126.99" y="702" width="24" height="33"/><rect class="cls-7" x="126.99" y="740" width="24" height="31"/><rect class="cls-7" x="276.99" y="369" width="23" height="33"/><rect class="cls-7" x="303.99" y="369" width="22" height="33"/><rect class="cls-7" x="329.99" y="369" width="23" height="33"/><rect class="cls-7" x="276.99" y="407" width="23" height="32"/><rect class="cls-7" x="303.99" y="407" width="22" height="32"/><rect class="cls-7" x="329.99" y="407" width="23" height="32"/><rect class="cls-7" x="276.99" y="443" width="23" height="33"/><rect class="cls-7" x="303.99" y="443" width="22" height="33"/><rect class="cls-7" x="329.99" y="443" width="23" height="33"/><rect class="cls-7" x="276.99" y="480" width="23" height="33"/><rect class="cls-7" x="303.99" y="480" width="22" height="33"/><rect class="cls-7" x="329.99" y="480" width="23" height="33"/><rect class="cls-7" x="276.99" y="517" width="23" height="32"/><rect class="cls-7" x="303.99" y="517" width="22" height="32"/><rect class="cls-7" x="329.99" y="517" width="23" height="32"/><rect class="cls-7" x="356.99" y="369" width="24" height="33"/><rect class="cls-7" x="356.99" y="407" width="24" height="32"/><rect class="cls-7" x="356.99" y="443" width="24" height="33"/><rect class="cls-7" x="356.99" y="480" width="24" height="33"/><rect class="cls-7" x="356.99" y="517" width="24" height="32"/><rect class="cls-7" x="276.99" y="553" width="23" height="33"/><rect class="cls-7" x="303.99" y="553" width="22" height="33"/><rect class="cls-7" x="329.99" y="553" width="23" height="33"/><rect class="cls-7" x="276.99" y="591" width="23" height="32"/><rect class="cls-7" x="303.99" y="591" width="22" height="32"/><rect class="cls-7" x="329.99" y="591" width="23" height="32"/><rect class="cls-7" x="356.99" y="553" width="24" height="33"/><rect class="cls-7" x="356.99" y="591" width="24" height="32"/><rect class="cls-7" x="276.99" y="627" width="23" height="33"/><rect class="cls-7" x="303.99" y="627" width="22" height="33"/><rect class="cls-7" x="329.99" y="627" width="23" height="33"/><rect class="cls-7" x="276.99" y="664" width="23" height="32"/><rect class="cls-7" x="303.99" y="664" width="22" height="32"/><rect class="cls-7" x="329.99" y="664" width="23" height="32"/><rect class="cls-7" x="356.99" y="627" width="24" height="33"/><rect class="cls-7" x="356.99" y="664" width="24" height="32"/><rect class="cls-7" x="276.99" y="700" width="23" height="33"/><rect class="cls-7" x="303.99" y="700" width="22" height="33"/><rect class="cls-7" x="329.99" y="700" width="23" height="33"/><rect class="cls-7" x="276.99" y="737" width="23" height="32"/><rect class="cls-7" x="303.99" y="737" width="22" height="32"/><rect class="cls-7" x="329.99" y="737" width="23" height="32"/><rect class="cls-7" x="356.99" y="700" width="24" height="33"/><rect class="cls-7" x="356.99" y="737" width="24" height="32"/><rect class="cls-7" x="356.99" y="775" width="24" height="32"/><rect class="cls-7" x="99.99" y="777" width="23" height="32"/><rect class="cls-7" x="126.99" y="777" width="24" height="32"/><rect class="cls-7" x="286.99" y="794" width="24" height="32"/><rect class="cls-7" x="58.99" y="794" width="19" height="32"/><rect class="cls-7" x="201.99" y="794" width="19" height="32"/><rect class="cls-7" x="462.99" y="794" width="19" height="32"/><rect class="cls-7" x="391.99" y="597" width="24" height="32"/><rect class="cls-7" x="419.99" y="597" width="22" height="32"/><rect class="cls-7" x="445.99" y="597" width="23" height="32"/><rect class="cls-7" x="391.99" y="633" width="24" height="33"/><rect class="cls-7" x="419.99" y="633" width="22" height="33"/><rect class="cls-7" x="445.99" y="633" width="23" height="33"/><rect class="cls-7" x="391.99" y="670" width="24" height="32"/><rect class="cls-7" x="419.99" y="670" width="22" height="32"/><rect class="cls-7" x="445.99" y="670" width="23" height="32"/><rect class="cls-7" x="391.99" y="708" width="24" height="32"/><rect class="cls-7" x="419.99" y="708" width="22" height="32"/><rect class="cls-7" x="445.99" y="708" width="23" height="32"/><rect class="cls-7" x="391.99" y="744" width="24" height="33"/><rect class="cls-7" x="391.99" y="781" width="24" height="32"/><rect class="cls-7" x="419.99" y="744" width="22" height="33"/><rect class="cls-7" x="419.99" y="781" width="22" height="32"/><rect class="cls-7" x="445.99" y="744" width="23" height="33"/><rect class="cls-7" x="472.99" y="597" width="24" height="32"/><rect class="cls-7" x="472.99" y="633" width="24" height="33"/><rect class="cls-7" x="472.99" y="670" width="24" height="32"/><rect class="cls-7" x="472.99" y="708" width="24" height="32"/><rect class="cls-7" x="472.99" y="744" width="24" height="33"/><rect class="cls-7" x="161.99" y="536" width="23" height="32"/><rect class="cls-7" x="188.99" y="536" width="22" height="32"/><rect class="cls-7" x="214.99" y="536" width="23" height="32"/><rect class="cls-7" x="161.99" y="573" width="23" height="33"/><rect class="cls-7" x="188.99" y="573" width="22" height="33"/><rect class="cls-7" x="214.99" y="573" width="23" height="33"/><rect class="cls-7" x="161.99" y="610" width="23" height="33"/><rect class="cls-7" x="188.99" y="610" width="22" height="33"/><rect class="cls-7" x="214.99" y="610" width="23" height="33"/><rect class="cls-7" x="161.99" y="647" width="23" height="32"/><rect class="cls-7" x="188.99" y="647" width="22" height="32"/><rect class="cls-7" x="214.99" y="647" width="23" height="32"/><rect class="cls-7" x="161.99" y="683" width="23" height="33"/><rect class="cls-7" x="188.99" y="683" width="22" height="33"/><rect class="cls-7" x="214.99" y="683" width="23" height="33"/><rect class="cls-7" x="241.99" y="536" width="24" height="32"/><rect class="cls-7" x="241.99" y="573" width="24" height="33"/><rect class="cls-7" x="241.99" y="610" width="24" height="33"/><rect class="cls-7" x="241.99" y="647" width="24" height="32"/><rect class="cls-7" x="241.99" y="683" width="24" height="33"/><rect class="cls-7" x="161.99" y="720" width="23" height="32"/><rect class="cls-7" x="188.99" y="720" width="22" height="32"/><rect class="cls-7" x="214.99" y="720" width="23" height="32"/><rect class="cls-7" x="161.99" y="757" width="23" height="33"/><rect class="cls-7" x="188.99" y="757" width="22" height="33"/><rect class="cls-7" x="214.99" y="757" width="23" height="33"/><rect class="cls-7" x="241.99" y="720" width="24" height="32"/><rect class="cls-7" x="241.99" y="757" width="24" height="33"/><rect class="cls-7" x="46.99" y="445" width="23" height="33"/><rect class="cls-7" x="73.99" y="445" width="22" height="33"/><rect class="cls-7" x="99.99" y="445" width="23" height="33"/><rect class="cls-7" x="46.99" y="482" width="23" height="33"/><rect class="cls-7" x="73.99" y="482" width="22" height="33"/><rect class="cls-7" x="99.99" y="482" width="23" height="33"/><rect class="cls-7" x="46.99" y="519" width="23" height="32"/><rect class="cls-7" x="73.99" y="519" width="22" height="32"/><rect class="cls-7" x="99.99" y="519" width="23" height="32"/><rect class="cls-7" x="46.99" y="556" width="23" height="32"/><rect class="cls-7" x="73.99" y="556" width="22" height="32"/><rect class="cls-7" x="99.99" y="556" width="23" height="32"/><rect class="cls-7" x="46.99" y="593" width="23" height="32"/><rect class="cls-7" x="73.99" y="593" width="22" height="32"/><rect class="cls-7" x="99.99" y="593" width="23" height="32"/><rect class="cls-7" x="126.99" y="445" width="24" height="33"/><rect class="cls-7" x="126.99" y="482" width="24" height="33"/><rect class="cls-7" x="126.99" y="519" width="24" height="32"/><rect class="cls-7" x="126.99" y="556" width="24" height="32"/><rect class="cls-7" x="126.99" y="593" width="24" height="32"/><rect class="cls-7" x="46.99" y="629" width="23" height="33"/><rect class="cls-7" x="73.99" y="629" width="22" height="33"/><rect class="cls-7" x="99.99" y="629" width="23" height="33"/><rect class="cls-7" x="46.99" y="666" width="23" height="32"/><rect class="cls-7" x="73.99" y="666" width="22" height="32"/><rect class="cls-7" x="99.99" y="666" width="23" height="32"/><rect class="cls-7" x="126.99" y="629" width="24" height="33"/><rect class="cls-7" x="126.99" y="666" width="24" height="32"/><rect class="cls-7" x="46.99" y="702" width="23" height="33"/><rect class="cls-7" x="73.99" y="702" width="22" height="33"/><rect class="cls-7" x="99.99" y="702" width="23" height="33"/><rect class="cls-7" x="46.99" y="740" width="23" height="31"/><rect class="cls-7" x="73.99" y="740" width="22" height="31"/><rect class="cls-7" x="99.99" y="740" width="23" height="31"/><rect class="cls-7" x="126.99" y="702" width="24" height="33"/><rect class="cls-7" x="126.99" y="740" width="24" height="31"/><rect class="cls-7" x="276.99" y="369" width="23" height="33"/><rect class="cls-7" x="303.99" y="369" width="22" height="33"/><rect class="cls-7" x="329.99" y="369" width="23" height="33"/><rect class="cls-7" x="276.99" y="407" width="23" height="32"/><rect class="cls-7" x="303.99" y="407" width="22" height="32"/><rect class="cls-7" x="329.99" y="407" width="23" height="32"/><rect class="cls-7" x="276.99" y="443" width="23" height="33"/><rect class="cls-7" x="303.99" y="443" width="22" height="33"/><rect class="cls-7" x="329.99" y="443" width="23" height="33"/><rect class="cls-7" x="276.99" y="480" width="23" height="33"/><rect class="cls-7" x="303.99" y="480" width="22" height="33"/><rect class="cls-7" x="329.99" y="480" width="23" height="33"/><rect class="cls-7" x="276.99" y="517" width="23" height="32"/><rect class="cls-7" x="303.99" y="517" width="22" height="32"/><rect class="cls-7" x="329.99" y="517" width="23" height="32"/><rect class="cls-7" x="356.99" y="369" width="24" height="33"/><rect class="cls-7" x="356.99" y="407" width="24" height="32"/><rect class="cls-7" x="356.99" y="443" width="24" height="33"/><rect class="cls-7" x="356.99" y="480" width="24" height="33"/><rect class="cls-7" x="356.99" y="517" width="24" height="32"/><rect class="cls-7" x="276.99" y="553" width="23" height="33"/><rect class="cls-7" x="303.99" y="553" width="22" height="33"/><rect class="cls-7" x="329.99" y="553" width="23" height="33"/><rect class="cls-7" x="276.99" y="591" width="23" height="32"/><rect class="cls-7" x="303.99" y="591" width="22" height="32"/><rect class="cls-7" x="329.99" y="591" width="23" height="32"/><rect class="cls-7" x="356.99" y="553" width="24" height="33"/><rect class="cls-7" x="356.99" y="591" width="24" height="32"/><rect class="cls-7" x="276.99" y="627" width="23" height="33"/><rect class="cls-7" x="303.99" y="627" width="22" height="33"/><rect class="cls-7" x="329.99" y="627" width="23" height="33"/><rect class="cls-7" x="276.99" y="664" width="23" height="32"/><rect class="cls-7" x="303.99" y="664" width="22" height="32"/><rect class="cls-7" x="329.99" y="664" width="23" height="32"/><rect class="cls-7" x="356.99" y="627" width="24" height="33"/><rect class="cls-7" x="356.99" y="664" width="24" height="32"/><rect class="cls-7" x="276.99" y="700" width="23" height="33"/><rect class="cls-7" x="303.99" y="700" width="22" height="33"/><rect class="cls-7" x="329.99" y="700" width="23" height="33"/><rect class="cls-7" x="276.99" y="737" width="23" height="32"/><rect class="cls-7" x="303.99" y="737" width="22" height="32"/><rect class="cls-7" x="329.99" y="737" width="23" height="32"/><rect class="cls-7" x="356.99" y="700" width="24" height="33"/><rect class="cls-7" x="356.99" y="737" width="24" height="32"/><rect class="cls-7" x="356.99" y="775" width="24" height="32"/><rect class="cls-7" x="99.99" y="777" width="23" height="32"/><rect class="cls-7" x="126.99" y="777" width="24" height="32"/><rect class="cls-7" x="286.99" y="794" width="24" height="32"/><rect class="cls-7" x="58.99" y="794" width="19" height="32"/><rect class="cls-7" x="201.99" y="794" width="19" height="32"/><rect class="cls-7" x="462.99" y="794" width="19" height="32"/></g></g></svg>