<svg xmlns="http://www.w3.org/2000/svg" viewBox="0 0 360 640"><defs><style>.cls-1{fill:#00a2ae;}.cls-2{fill:#222;}.cls-3{fill:#288848;}.cls-4{fill:#838383;}.cls-5{fill:#a8a8a8;}.cls-6{fill:#c4c4c4;}.cls-7{fill:#fff;}</style></defs><title>Layer 6</title><g id="Layer_2" data-name="Layer 2"><g id="Layer_6" data-name="Layer 6"><path class="cls-1" d="M0,591.56H360v48H0Z"/><rect class="cls-2" width="360" height="640"/><path class="cls-3" d="M0,511.56H360v80H0Z"/><path class="cls-4" d="M0,498.56H360v13H0Z"/><path class="cls-1" d="M0,591.56H360v48H0Z"/><path class="cls-3" d="M0,511.56H360v80H0Z"/><path class="cls-4" d="M0,498.56H360v13H0Z"/><rect class="cls-5" x="6.23" y="319.56" width="53" height="179"/><rect class="cls-6" x="60.23" y="362.56" width="53" height="136"/><rect class="cls-5" x="114.23" y="285.56" width="53" height="213"/><rect class="cls-6" x="168.23" y="389.56" width="53" height="109"/><rect class="cls-7" x="170.23" y="392.56" width="11" height="15"/><rect class="cls-7" x="183.23" y="392.56" width="10" height="15"/><rect class="cls-7" x="195.23" y="392.56" width="11" height="15"/><rect class="cls-7" x="170.23" y="409.56" width="11" height="15"/><rect class="cls-7" x="183.23" y="409.56" width="10" height="15"/><rect class="cls-7" x="195.23" y="409.56" width="11" height="15"/><rect class="cls-7" x="170.23" y="426.56" width="11" height="15"/><rect class="cls-7" x="183.23" y="426.56" width="10" height="15"/><rect class="cls-7" x="195.23" y="426.56" width="11" height="15"/><rect class="cls-7" x="170.23" y="443.56" width="11" height="15"/><rect class="cls-7" x="183.23" y="443.56" width="10" height="15"/><rect class="cls-7" x="195.23" y="443.56" width="11" height="15"/><rect class="cls-7" x="170.23" y="460.56" width="11" height="15"/><rect class="cls-7" x="170.23" y="477.56" width="11" height="15"/><rect class="cls-7" x="183.23" y="460.56" width="10" height="15"/><rect class="cls-7" x="183.23" y="477.56" width="10" height="15"/><rect class="cls-7" x="195.23" y="460.56" width="11" height="15"/><rect class="cls-7" x="208.23" y="392.56" width="11" height="15"/><rect class="cls-7" x="208.23" y="409.56" width="11" height="15"/><rect class="cls-7" x="208.23" y="426.56" width="11" height="15"/><rect class="cls-7" x="208.23" y="443.56" width="11" height="15"/><rect class="cls-7" x="208.23" y="460.56" width="11" height="15"/><rect class="cls-7" x="62.23" y="364.56" width="11" height="15"/><rect class="cls-7" x="75.23" y="364.56" width="10" height="15"/><rect class="cls-7" x="87.23" y="364.56" width="11" height="15"/><rect class="cls-7" x="62.23" y="381.56" width="11" height="15"/><rect class="cls-7" x="75.23" y="381.56" width="10" height="15"/><rect class="cls-7" x="87.23" y="381.56" width="11" height="15"/><rect class="cls-7" x="62.23" y="398.56" width="11" height="15"/><rect class="cls-7" x="75.23" y="398.56" width="10" height="15"/><rect class="cls-7" x="87.23" y="398.56" width="11" height="15"/><rect class="cls-7" x="62.23" y="415.56" width="11" height="15"/><rect class="cls-7" x="75.23" y="415.56" width="10" height="15"/><rect class="cls-7" x="87.23" y="415.56" width="11" height="15"/><rect class="cls-7" x="62.23" y="432.56" width="11" height="15"/><rect class="cls-7" x="75.23" y="432.56" width="10" height="15"/><rect class="cls-7" x="87.23" y="432.56" width="11" height="15"/><rect class="cls-7" x="100.23" y="364.56" width="11" height="15"/><rect class="cls-7" x="100.23" y="381.56" width="11" height="15"/><rect class="cls-7" x="100.23" y="398.56" width="11" height="15"/><rect class="cls-7" x="100.23" y="415.56" width="11" height="15"/><rect class="cls-7" x="100.23" y="432.56" width="11" height="15"/><rect class="cls-7" x="62.23" y="449.56" width="11" height="15"/><rect class="cls-7" x="75.23" y="449.56" width="10" height="15"/><rect class="cls-7" x="87.23" y="449.56" width="11" height="15"/><rect class="cls-7" x="62.23" y="466.56" width="11" height="15"/><rect class="cls-7" x="75.23" y="466.56" width="10" height="15"/><rect class="cls-7" x="87.23" y="466.56" width="11" height="15"/><rect class="cls-7" x="100.23" y="449.56" width="11" height="15"/><rect class="cls-7" x="100.23" y="466.56" width="11" height="15"/><rect class="cls-7" x="8.23" y="322.56" width="11" height="15"/><rect class="cls-7" x="21.23" y="322.56" width="10" height="15"/><rect class="cls-7" x="33.23" y="322.56" width="11" height="15"/><rect class="cls-7" x="8.23" y="339.56" width="11" height="15"/><rect class="cls-7" x="21.23" y="339.56" width="10" height="15"/><rect class="cls-7" x="33.23" y="339.56" width="11" height="15"/><rect class="cls-7" x="8.23" y="356.56" width="11" height="15"/><rect class="cls-7" x="21.23" y="356.56" width="10" height="15"/><rect class="cls-7" x="33.23" y="356.56" width="11" height="15"/><rect class="cls-7" x="8.23" y="373.56" width="11" height="15"/><rect class="cls-7" x="21.23" y="373.56" width="10" height="15"/><rect class="cls-7" x="33.23" y="373.56" width="11" height="15"/><rect class="cls-7" x="8.23" y="390.56" width="11" height="15"/><rect class="cls-7" x="21.23" y="390.56" width="10" height="15"/><rect class="cls-7" x="33.23" y="390.56" width="11" height="15"/><rect class="cls-7" x="46.23" y="322.56" width="11" height="15"/><rect class="cls-7" x="46.23" y="339.56" width="11" height="15"/><rect class="cls-7" x="46.23" y="356.56" width="11" height="15"/><rect class="cls-7" x="46.23" y="373.56" width="11" height="15"/><rect class="cls-7" x="46.23" y="390.56" width="11" height="15"/><rect class="cls-7" x="8.23" y="407.56" width="11" height="15"/><rect class="cls-7" x="21.23" y="407.56" width="10" height="15"/><rect class="cls-7" x="33.23" y="407.56" width="11" height="15"/><rect class="cls-7" x="8.23" y="424.56" width="11" height="15"/><rect class="cls-7" x="21.23" y="424.56" width="10" height="15"/><rect class="cls-7" x="33.23" y="424.56" width="11" height="15"/><rect class="cls-7" x="46.23" y="407.56" width="11" height="15"/><rect class="cls-7" x="46.23" y="424.56" width="11" height="15"/><rect class="cls-7" x="8.23" y="441.56" width="11" height="15"/><rect class="cls-7" x="21.23" y="441.56" width="10" height="15"/><rect class="cls-7" x="33.23" y="441.56" width="11" height="15"/><rect class="cls-7" x="8.23" y="458.56" width="11" height="15"/><rect class="cls-7" x="21.23" y="458.56" width="10" height="15"/><rect class="cls-7" x="33.23" y="458.56" width="11" height="15"/><rect class="cls-7" x="46.23" y="441.56" width="11" height="15"/><rect class="cls-7" x="46.23" y="458.56" width="11" height="15"/><rect class="cls-7" x="116.23" y="287.56" width="11" height="15"/><rect class="cls-7" x="129.23" y="287.56" width="10" height="15"/><rect class="cls-7" x="141.23" y="287.56" width="11" height="15"/><rect class="cls-7" x="116.23" y="304.56" width="11" height="15"/><rect class="cls-7" x="129.23" y="304.56" width="10" height="15"/><rect class="cls-7" x="141.23" y="304.56" width="11" height="15"/><rect class="cls-7" x="116.23" y="321.56" width="11" height="15"/><rect class="cls-7" x="129.23" y="321.56" width="10" height="15"/><rect class="cls-7" x="141.23" y="321.56" width="11" height="15"/><rect class="cls-7" x="116.23" y="338.56" width="11" height="15"/><rect class="cls-7" x="129.23" y="338.56" width="10" height="15"/><rect class="cls-7" x="141.23" y="338.56" width="11" height="15"/><rect class="cls-7" x="116.23" y="355.56" width="11" height="15"/><rect class="cls-7" x="129.23" y="355.56" width="10" height="15"/><rect class="cls-7" x="141.23" y="355.56" width="11" height="15"/><rect class="cls-7" x="154.23" y="287.56" width="11" height="15"/><rect class="cls-7" x="154.23" y="304.56" width="11" height="15"/><rect class="cls-7" x="154.23" y="321.56" width="11" height="15"/><rect class="cls-7" x="154.23" y="338.56" width="11" height="15"/><rect class="cls-7" x="154.23" y="355.56" width="11" height="15"/><rect class="cls-7" x="116.23" y="372.56" width="11" height="15"/><rect class="cls-7" x="129.23" y="372.56" width="10" height="15"/><rect class="cls-7" x="141.23" y="372.56" width="11" height="15"/><rect class="cls-7" x="116.23" y="389.56" width="11" height="15"/><rect class="cls-7" x="129.23" y="389.56" width="10" height="15"/><rect class="cls-7" x="141.23" y="389.56" width="11" height="15"/><rect class="cls-7" x="154.23" y="372.56" width="11" height="15"/><rect class="cls-7" x="154.23" y="389.56" width="11" height="15"/><rect class="cls-7" x="116.23" y="406.56" width="11" height="15"/><rect class="cls-7" x="129.23" y="406.56" width="10" height="15"/><rect class="cls-7" x="141.23" y="406.56" width="11" height="15"/><rect class="cls-7" x="116.23" y="423.56" width="11" height="15"/><rect class="cls-7" x="129.23" y="423.56" width="10" height="15"/><rect class="cls-7" x="141.23" y="423.56" width="11" height="15"/><rect class="cls-7" x="154.23" y="406.56" width="11" height="15"/><rect class="cls-7" x="154.23" y="423.56" width="11" height="15"/><rect class="cls-7" x="116.23" y="440.56" width="11" height="15"/><rect class="cls-7" x="129.23" y="440.56" width="10" height="15"/><rect class="cls-7" x="141.23" y="440.56" width="11" height="15"/><rect class="cls-7" x="116.23" y="457.56" width="11" height="15"/><rect class="cls-7" x="129.23" y="457.56" width="10" height="15"/><rect class="cls-7" x="141.23" y="457.56" width="11" height="15"/><rect class="cls-7" x="154.23" y="440.56" width="11" height="15"/><rect class="cls-7" x="154.23" y="457.56" width="11" height="15"/><rect class="cls-7" x="154.23" y="474.56" width="11" height="15"/><rect class="cls-7" x="33.23" y="475.56" width="11" height="15"/><rect class="cls-7" x="46.23" y="475.56" width="11" height="15"/><rect class="cls-7" x="121.23" y="483.56" width="11" height="15"/><rect class="cls-7" x="14.23" y="483.56" width="9" height="15"/><rect class="cls-7" x="81.23" y="483.56" width="9" height="15"/><rect class="cls-7" x="203.23" y="483.56" width="9" height="15"/><rect class="cls-7" x="170.23" y="392.56" width="11" height="15"/><rect class="cls-7" x="183.23" y="392.56" width="10" height="15"/><rect class="cls-7" x="195.23" y="392.56" width="11" height="15"/><rect class="cls-7" x="170.23" y="409.56" width="11" height="15"/><rect class="cls-7" x="183.23" y="409.56" width="10" height="15"/><rect class="cls-7" x="195.23" y="409.56" width="11" height="15"/><rect class="cls-7" x="170.23" y="426.56" width="11" height="15"/><rect class="cls-7" x="183.23" y="426.56" width="10" height="15"/><rect class="cls-7" x="195.23" y="426.56" width="11" height="15"/><rect class="cls-7" x="170.23" y="443.56" width="11" height="15"/><rect class="cls-7" x="183.23" y="443.56" width="10" height="15"/><rect class="cls-7" x="195.23" y="443.56" width="11" height="15"/><rect class="cls-7" x="170.23" y="460.56" width="11" height="15"/><rect class="cls-7" x="170.23" y="477.56" width="11" height="15"/><rect class="cls-7" x="183.23" y="460.56" width="10" height="15"/><rect class="cls-7" x="183.23" y="477.56" width="10" height="15"/><rect class="cls-7" x="195.23" y="460.56" width="11" height="15"/><rect class="cls-7" x="208.23" y="392.56" width="11" height="15"/><rect class="cls-7" x="208.23" y="409.56" width="11" height="15"/><rect class="cls-7" x="208.23" y="426.56" width="11" height="15"/><rect class="cls-7" x="208.23" y="443.56" width="11" height="15"/><rect class="cls-7" x="208.23" y="460.56" width="11" height="15"/><rect class="cls-7" x="62.23" y="364.56" width="11" height="15"/><rect class="cls-7" x="75.23" y="364.56" width="10" height="15"/><rect class="cls-7" x="87.23" y="364.56" width="11" height="15"/><rect class="cls-7" x="62.23" y="381.56" width="11" height="15"/><rect class="cls-7" x="75.23" y="381.56" width="10" height="15"/><rect class="cls-7" x="87.23" y="381.56" width="11" height="15"/><rect class="cls-7" x="62.23" y="398.56" width="11" height="15"/><rect class="cls-7" x="75.23" y="398.56" width="10" height="15"/><rect class="cls-7" x="87.23" y="398.56" width="11" height="15"/><rect class="cls-7" x="62.23" y="415.56" width="11" height="15"/><rect class="cls-7" x="75.23" y="415.56" width="10" height="15"/><rect class="cls-7" x="87.23" y="415.56" width="11" height="15"/><rect class="cls-7" x="62.23" y="432.56" width="11" height="15"/><rect class="cls-7" x="75.23" y="432.56" width="10" height="15"/><rect class="cls-7" x="87.23" y="432.56" width="11" height="15"/><rect class="cls-7" x="100.23" y="364.56" width="11" height="15"/><rect class="cls-7" x="100.23" y="381.56" width="11" height="15"/><rect class="cls-7" x="100.23" y="398.56" width="11" height="15"/><rect class="cls-7" x="100.23" y="415.56" width="11" height="15"/><rect class="cls-7" x="100.23" y="432.56" width="11" height="15"/><rect class="cls-7" x="62.23" y="449.56" width="11" height="15"/><rect class="cls-7" x="75.23" y="449.56" width="10" height="15"/><rect class="cls-7" x="87.23" y="449.56" width="11" height="15"/><rect class="cls-7" x="62.23" y="466.56" width="11" height="15"/><rect class="cls-7" x="75.23" y="466.56" width="10" height="15"/><rect class="cls-7" x="87.23" y="466.56" width="11" height="15"/><rect class="cls-7" x="100.23" y="449.56" width="11" height="15"/><rect class="cls-7" x="100.23" y="466.56" width="11" height="15"/><rect class="cls-7" x="8.23" y="322.56" width="11" height="15"/><rect class="cls-7" x="21.23" y="322.56" width="10" height="15"/><rect class="cls-7" x="33.23" y="322.56" width="11" height="15"/><rect class="cls-7" x="8.23" y="339.56" width="11" height="15"/><rect class="cls-7" x="21.23" y="339.56" width="10" height="15"/><rect class="cls-7" x="33.23" y="339.56" width="11" height="15"/><rect class="cls-7" x="8.23" y="356.56" width="11" height="15"/><rect class="cls-7" x="21.23" y="356.56" width="10" height="15"/><rect class="cls-7" x="33.23" y="356.56" width="11" height="15"/><rect class="cls-7" x="8.23" y="373.56" width="11" height="15"/><rect class="cls-7" x="21.23" y="373.56" width="10" height="15"/><rect class="cls-7" x="33.23" y="373.56" width="11" height="15"/><rect class="cls-7" x="8.23" y="390.56" width="11" height="15"/><rect class="cls-7" x="21.23" y="390.56" width="10" height="15"/><rect class="cls-7" x="33.23" y="390.56" width="11" height="15"/><rect class="cls-7" x="46.23" y="322.56" width="11" height="15"/><rect class="cls-7" x="46.23" y="339.56" width="11" height="15"/><rect class="cls-7" x="46.23" y="356.56" width="11" height="15"/><rect class="cls-7" x="46.23" y="373.56" width="11" height="15"/><rect class="cls-7" x="46.23" y="390.56" width="11" height="15"/><rect class="cls-7" x="8.23" y="407.56" width="11" height="15"/><rect class="cls-7" x="21.23" y="407.56" width="10" height="15"/><rect class="cls-7" x="33.23" y="407.56" width="11" height="15"/><rect class="cls-7" x="8.23" y="424.56" width="11" height="15"/><rect class="cls-7" x="21.23" y="424.56" width="10" height="15"/><rect class="cls-7" x="33.23" y="424.56" width="11" height="15"/><rect class="cls-7" x="46.23" y="407.56" width="11" height="15"/><rect class="cls-7" x="46.23" y="424.56" width="11" height="15"/><rect class="cls-7" x="8.23" y="441.56" width="11" height="15"/><rect class="cls-7" x="21.23" y="441.56" width="10" height="15"/><rect class="cls-7" x="33.23" y="441.56" width="11" height="15"/><rect class="cls-7" x="8.23" y="458.56" width="11" height="15"/><rect class="cls-7" x="21.23" y="458.56" width="10" height="15"/><rect class="cls-7" x="33.23" y="458.56" width="11" height="15"/><rect class="cls-7" x="46.23" y="441.56" width="11" height="15"/><rect class="cls-7" x="46.23" y="458.56" width="11" height="15"/><rect class="cls-7" x="116.23" y="287.56" width="11" height="15"/><rect class="cls-7" x="129.23" y="287.56" width="10" height="15"/><rect class="cls-7" x="141.23" y="287.56" width="11" height="15"/><rect class="cls-7" x="116.23" y="304.56" width="11" height="15"/><rect class="cls-7" x="129.23" y="304.56" width="10" height="15"/><rect class="cls-7" x="141.23" y="304.56" width="11" height="15"/><rect class="cls-7" x="116.23" y="321.56" width="11" height="15"/><rect class="cls-7" x="129.23" y="321.56" width="10" height="15"/><rect class="cls-7" x="141.23" y="321.56" width="11" height="15"/><rect class="cls-7" x="116.23" y="338.56" width="11" height="15"/><rect class="cls-7" x="129.23" y="338.56" width="10" height="15"/><rect class="cls-7" x="141.23" y="338.56" width="11" height="15"/><rect class="cls-7" x="116.23" y="355.56" width="11" height="15"/><rect class="cls-7" x="129.23" y="355.56" width="10" height="15"/><rect class="cls-7" x="141.23" y="355.56" width="11" height="15"/><rect class="cls-7" x="154.23" y="287.56" width="11" height="15"/><rect class="cls-7" x="154.23" y="304.56" width="11" height="15"/><rect class="cls-7" x="154.23" y="321.56" width="11" height="15"/><rect class="cls-7" x="154.23" y="338.56" width="11" height="15"/><rect class="cls-7" x="154.23" y="355.56" width="11" height="15"/><rect class="cls-7" x="116.23" y="372.56" width="11" height="15"/><rect class="cls-7" x="129.23" y="372.56" width="10" height="15"/><rect class="cls-7" x="141.23" y="372.56" width="11" height="15"/><rect class="cls-7" x="116.23" y="389.56" width="11" height="15"/><rect class="cls-7" x="129.23" y="389.56" width="10" height="15"/><rect class="cls-7" x="141.23" y="389.56" width="11" height="15"/><rect class="cls-7" x="154.23" y="372.56" width="11" height="15"/><rect class="cls-7" x="154.23" y="389.56" width="11" height="15"/><rect class="cls-7" x="116.23" y="406.56" width="11" height="15"/><rect class="cls-7" x="129.23" y="406.56" width="10" height="15"/><rect class="cls-7" x="141.23" y="406.56" width="11" height="15"/><rect class="cls-7" x="116.23" y="423.56" width="11" height="15"/><rect class="cls-7" x="129.23" y="423.56" width="10" height="15"/><rect class="cls-7" x="141.23" y="423.56" width="11" height="15"/><rect class="cls-7" x="154.23" y="406.56" width="11" height="15"/><rect class="cls-7" x="154.23" y="423.56" width="11" height="15"/><rect class="cls-7" x="116.23" y="440.56" width="11" height="15"/><rect class="cls-7" x="129.23" y="440.56" width="10" height="15"/><rect class="cls-7" x="141.23" y="440.56" width="11" height="15"/><rect class="cls-7" x="116.23" y="457.56" width="11" height="15"/><rect class="cls-7" x="129.23" y="457.56" width="10" height="15"/><rect class="cls-7" x="141.23" y="457.56" width="11" height="15"/><rect class="cls-7" x="154.23" y="440.56" width="11" height="15"/><rect class="cls-7" x="154.23" y="457.56" width="11" height="15"/><rect class="cls-7" x="154.23" y="474.56" width="11" height="15"/><rect class="cls-7" x="33.23" y="475.56" width="11" height="15"/><rect class="cls-7" x="46.23" y="475.56" width="11" height="15"/><rect class="cls-7" x="121.23" y="483.56" width="11" height="15"/><rect class="cls-7" x="14.23" y="483.56" width="9" height="15"/><rect class="cls-7" x="81.23" y="483.56" width="9" height="15"/><rect class="cls-7" x="203.23" y="483.56" width="9" height="15"/></g></g></svg>