<svg xmlns="http://www.w3.org/2000/svg" viewBox="0 0 1923.51 1080"><defs><style>.cls-1{fill:#cef3f1;}.cls-2{fill:#00d5e5;}.cls-3{fill:#2ecc71;}.cls-4{fill:#838383;}.cls-5{fill:#a8a8a8;}.cls-6{fill:#c4c4c4;}.cls-7{fill:#fff;}</style></defs><title>Layer 22</title><g id="Layer_2" data-name="Layer 2"><g id="Layer_22" data-name="Layer 22"><rect class="cls-1" width="1923.51" height="1080"/><path class="cls-2" d="M0,997H1920v83H0Z"/><path class="cls-3" d="M0,852H1920V997H0Z"/><path class="cls-4" d="M0,826H1920v26H0Z"/><rect class="cls-5" x="51.92" y="456.06" width="113" height="369"/><rect class="cls-6" x="167.92" y="545.06" width="113" height="280"/><rect class="cls-5" x="282.92" y="386.06" width="113" height="439"/><rect class="cls-6" x="397.92" y="600.06" width="113" height="225"/><rect class="cls-7" x="401.92" y="607.06" width="24" height="31"/><rect class="cls-7" x="429.92" y="607.06" width="21" height="31"/><rect class="cls-7" x="455.92" y="607.06" width="23" height="31"/><rect class="cls-7" x="401.92" y="642.06" width="24" height="31"/><rect class="cls-7" x="429.92" y="642.06" width="21" height="31"/><rect class="cls-7" x="455.92" y="642.06" width="23" height="31"/><rect class="cls-7" x="401.92" y="676.06" width="24" height="31"/><rect class="cls-7" x="429.92" y="676.06" width="21" height="31"/><rect class="cls-7" x="455.92" y="676.06" width="23" height="31"/><rect class="cls-7" x="401.92" y="711.06" width="24" height="31"/><rect class="cls-7" x="429.92" y="711.06" width="21" height="31"/><rect class="cls-7" x="455.92" y="711.06" width="23" height="31"/><rect class="cls-7" x="401.92" y="747.06" width="24" height="31"/><rect class="cls-7" x="401.92" y="782.06" width="24" height="31"/><rect class="cls-7" x="429.92" y="747.06" width="21" height="31"/><rect class="cls-7" x="429.92" y="782.06" width="21" height="31"/><rect class="cls-7" x="455.92" y="747.06" width="23" height="31"/><rect class="cls-7" x="482.92" y="607.06" width="24" height="31"/><rect class="cls-7" x="482.92" y="642.06" width="24" height="31"/><rect class="cls-7" x="482.92" y="676.06" width="24" height="31"/><rect class="cls-7" x="482.92" y="711.06" width="24" height="31"/><rect class="cls-7" x="482.92" y="747.06" width="24" height="31"/><rect class="cls-7" x="171.92" y="549.06" width="23" height="31"/><rect class="cls-7" x="199.92" y="549.06" width="21" height="31"/><rect class="cls-7" x="224.92" y="549.06" width="24" height="31"/><rect class="cls-7" x="171.92" y="584.06" width="23" height="31"/><rect class="cls-7" x="199.92" y="584.06" width="21" height="31"/><rect class="cls-7" x="224.92" y="584.06" width="24" height="31"/><rect class="cls-7" x="171.92" y="618.06" width="23" height="31"/><rect class="cls-7" x="199.92" y="618.06" width="21" height="31"/><rect class="cls-7" x="224.92" y="618.06" width="24" height="31"/><rect class="cls-7" x="171.92" y="654.06" width="23" height="31"/><rect class="cls-7" x="199.92" y="654.06" width="21" height="31"/><rect class="cls-7" x="224.92" y="654.06" width="24" height="31"/><rect class="cls-7" x="171.92" y="689.06" width="23" height="31"/><rect class="cls-7" x="199.92" y="689.06" width="21" height="31"/><rect class="cls-7" x="224.92" y="689.06" width="24" height="31"/><rect class="cls-7" x="252.92" y="549.06" width="23" height="31"/><rect class="cls-7" x="252.92" y="584.06" width="23" height="31"/><rect class="cls-7" x="252.92" y="618.06" width="23" height="31"/><rect class="cls-7" x="252.92" y="654.06" width="23" height="31"/><rect class="cls-7" x="252.92" y="689.06" width="23" height="31"/><rect class="cls-7" x="171.92" y="724.06" width="23" height="31"/><rect class="cls-7" x="199.92" y="724.06" width="21" height="31"/><rect class="cls-7" x="224.92" y="724.06" width="24" height="31"/><rect class="cls-7" x="171.92" y="759.06" width="23" height="30"/><rect class="cls-7" x="199.92" y="759.06" width="21" height="30"/><rect class="cls-7" x="224.92" y="759.06" width="24" height="30"/><rect class="cls-7" x="252.92" y="724.06" width="23" height="31"/><rect class="cls-7" x="252.92" y="759.06" width="23" height="30"/><rect class="cls-7" x="56.92" y="463.06" width="23" height="31"/><rect class="cls-7" x="83.92" y="463.06" width="22" height="31"/><rect class="cls-7" x="109.92" y="462.06" width="23" height="31"/><rect class="cls-7" x="56.92" y="499.06" width="23" height="31"/><rect class="cls-7" x="83.92" y="499.06" width="22" height="31"/><rect class="cls-7" x="109.92" y="498.06" width="23" height="31"/><rect class="cls-7" x="56.92" y="533.06" width="23" height="31"/><rect class="cls-7" x="83.92" y="533.06" width="22" height="31"/><rect class="cls-7" x="109.92" y="532.06" width="23" height="31"/><rect class="cls-7" x="56.92" y="568.06" width="23" height="31"/><rect class="cls-7" x="83.92" y="568.06" width="22" height="31"/><rect class="cls-7" x="109.92" y="567.06" width="23" height="31"/><rect class="cls-7" x="56.92" y="603.06" width="23" height="31"/><rect class="cls-7" x="83.92" y="603.06" width="22" height="31"/><rect class="cls-7" x="109.92" y="602.06" width="23" height="31"/><rect class="cls-7" x="137.92" y="462.06" width="23" height="31"/><rect class="cls-7" x="137.92" y="498.06" width="23" height="31"/><rect class="cls-7" x="137.92" y="532.06" width="23" height="31"/><rect class="cls-7" x="137.92" y="567.06" width="23" height="31"/><rect class="cls-7" x="137.92" y="602.06" width="23" height="31"/><rect class="cls-7" x="56.92" y="639.06" width="23" height="31"/><rect class="cls-7" x="83.92" y="639.06" width="22" height="31"/><rect class="cls-7" x="109.92" y="638.06" width="23" height="31"/><rect class="cls-7" x="56.92" y="674.06" width="23" height="30"/><rect class="cls-7" x="83.92" y="674.06" width="22" height="30"/><rect class="cls-7" x="109.92" y="673.06" width="23" height="30"/><rect class="cls-7" x="137.92" y="638.06" width="23" height="31"/><rect class="cls-7" x="137.92" y="673.06" width="23" height="30"/><rect class="cls-7" x="56.92" y="708.06" width="23" height="31"/><rect class="cls-7" x="83.92" y="708.06" width="22" height="31"/><rect class="cls-7" x="109.92" y="707.06" width="23" height="31"/><rect class="cls-7" x="56.92" y="743.06" width="23" height="31"/><rect class="cls-7" x="83.92" y="743.06" width="22" height="31"/><rect class="cls-7" x="109.92" y="742.06" width="23" height="31"/><rect class="cls-7" x="137.92" y="707.06" width="23" height="31"/><rect class="cls-7" x="137.92" y="742.06" width="23" height="31"/><rect class="cls-7" x="286.92" y="391.06" width="23" height="31"/><rect class="cls-7" x="314.92" y="391.06" width="21" height="31"/><rect class="cls-7" x="339.92" y="391.06" width="24" height="31"/><rect class="cls-7" x="286.92" y="425.06" width="23" height="31"/><rect class="cls-7" x="314.92" y="425.06" width="21" height="31"/><rect class="cls-7" x="339.92" y="425.06" width="24" height="31"/><rect class="cls-7" x="286.92" y="460.06" width="23" height="31"/><rect class="cls-7" x="314.92" y="460.06" width="21" height="31"/><rect class="cls-7" x="339.92" y="460.06" width="24" height="31"/><rect class="cls-7" x="286.92" y="495.06" width="23" height="31"/><rect class="cls-7" x="314.92" y="495.06" width="21" height="31"/><rect class="cls-7" x="339.92" y="495.06" width="24" height="31"/><rect class="cls-7" x="286.92" y="531.06" width="23" height="30"/><rect class="cls-7" x="314.92" y="531.06" width="21" height="30"/><rect class="cls-7" x="339.92" y="531.06" width="24" height="30"/><rect class="cls-7" x="367.92" y="391.06" width="24" height="31"/><rect class="cls-7" x="367.92" y="425.06" width="24" height="31"/><rect class="cls-7" x="367.92" y="460.06" width="24" height="31"/><rect class="cls-7" x="367.92" y="495.06" width="24" height="31"/><rect class="cls-7" x="367.92" y="531.06" width="24" height="30"/><rect class="cls-7" x="286.92" y="565.06" width="23" height="31"/><rect class="cls-7" x="314.92" y="565.06" width="21" height="31"/><rect class="cls-7" x="339.92" y="565.06" width="24" height="31"/><rect class="cls-7" x="286.92" y="600.06" width="23" height="31"/><rect class="cls-7" x="314.92" y="600.06" width="21" height="31"/><rect class="cls-7" x="339.92" y="600.06" width="24" height="31"/><rect class="cls-7" x="367.92" y="565.06" width="24" height="31"/><rect class="cls-7" x="367.92" y="600.06" width="24" height="31"/><rect class="cls-7" x="286.92" y="635.06" width="23" height="31"/><rect class="cls-7" x="314.92" y="635.06" width="21" height="31"/><rect class="cls-7" x="339.92" y="635.06" width="24" height="31"/><rect class="cls-7" x="286.92" y="671.06" width="23" height="31"/><rect class="cls-7" x="314.92" y="671.06" width="21" height="31"/><rect class="cls-7" x="339.92" y="671.06" width="24" height="31"/><rect class="cls-7" x="367.92" y="635.06" width="24" height="31"/><rect class="cls-7" x="367.92" y="671.06" width="24" height="31"/><rect class="cls-7" x="286.92" y="705.06" width="23" height="31"/><rect class="cls-7" x="314.92" y="705.06" width="21" height="31"/><rect class="cls-7" x="339.92" y="705.06" width="24" height="31"/><rect class="cls-7" x="286.92" y="740.06" width="23" height="31"/><rect class="cls-7" x="314.92" y="740.06" width="21" height="31"/><rect class="cls-7" x="339.92" y="740.06" width="24" height="31"/><rect class="cls-7" x="367.92" y="705.06" width="24" height="31"/><rect class="cls-7" x="367.92" y="740.06" width="24" height="31"/><rect class="cls-7" x="367.92" y="776.06" width="24" height="31"/><rect class="cls-7" x="109.92" y="778.06" width="23" height="31"/><rect class="cls-7" x="137.92" y="778.06" width="23" height="31"/><rect class="cls-7" x="297.92" y="794.06" width="23" height="31"/><rect class="cls-7" x="68.92" y="795.06" width="20" height="31"/><rect class="cls-7" x="211.92" y="794.06" width="20" height="31"/><rect class="cls-7" x="472.92" y="794.06" width="19" height="31"/></g></g></svg>