<svg xmlns="http://www.w3.org/2000/svg" viewBox="0 0 381.64 640"><defs><style>.cls-1{fill:#cef3f1;}.cls-2{fill:#00d5e5;}.cls-3{fill:#2ecc71;}.cls-4{fill:#838383;}.cls-5{fill:#a8a8a8;}.cls-6{fill:#fff;}.cls-7{fill:#c4c4c4;}.cls-8{fill:none;}</style></defs><title>Layer 1 (2)</title><g id="Layer_2" data-name="Layer 2"><g id="Layer_1-2" data-name="Layer 1"><rect class="cls-1" x="21.64" width="360" height="640"/><path class="cls-2" d="M21.64,592h360v48h-360Z"/><path class="cls-3" d="M21.64,512h360v80h-360Z"/><path class="cls-4" d="M21.64,499h360v13h-360Z"/><rect class="cls-5" x="135.5" y="285.56" width="53" height="213"/><rect class="cls-6" x="137.5" y="287.56" width="11" height="15"/><rect class="cls-6" x="150.5" y="287.56" width="10" height="15"/><rect class="cls-6" x="162.5" y="287.56" width="11" height="15"/><rect class="cls-6" x="137.5" y="304.56" width="11" height="15"/><rect class="cls-6" x="150.5" y="304.56" width="10" height="15"/><rect class="cls-6" x="162.5" y="304.56" width="11" height="15"/><rect class="cls-6" x="137.5" y="321.56" width="11" height="15"/><rect class="cls-6" x="150.5" y="321.56" width="10" height="15"/><rect class="cls-6" x="162.5" y="321.56" width="11" height="15"/><rect class="cls-6" x="137.5" y="338.56" width="11" height="15"/><rect class="cls-6" x="150.5" y="338.56" width="10" height="15"/><rect class="cls-6" x="162.5" y="338.56" width="11" height="15"/><rect class="cls-6" x="137.5" y="355.56" width="11" height="15"/><rect class="cls-6" x="150.5" y="355.56" width="10" height="15"/><rect class="cls-6" x="162.5" y="355.56" width="11" height="15"/><rect class="cls-6" x="175.5" y="287.56" width="11" height="15"/><rect class="cls-6" x="175.5" y="304.56" width="11" height="15"/><rect class="cls-6" x="175.5" y="321.56" width="11" height="15"/><rect class="cls-6" x="175.5" y="338.56" width="11" height="15"/><rect class="cls-6" x="175.5" y="355.56" width="11" height="15"/><rect class="cls-6" x="137.5" y="372.56" width="11" height="15"/><rect class="cls-6" x="150.5" y="372.56" width="10" height="15"/><rect class="cls-6" x="162.5" y="372.56" width="11" height="15"/><rect class="cls-6" x="137.5" y="389.56" width="11" height="15"/><rect class="cls-6" x="150.5" y="389.56" width="10" height="15"/><rect class="cls-6" x="162.5" y="389.56" width="11" height="15"/><rect class="cls-6" x="175.5" y="372.56" width="11" height="15"/><rect class="cls-6" x="175.5" y="389.56" width="11" height="15"/><rect class="cls-6" x="137.5" y="406.56" width="11" height="15"/><rect class="cls-6" x="150.5" y="406.56" width="10" height="15"/><rect class="cls-6" x="162.5" y="406.56" width="11" height="15"/><rect class="cls-6" x="137.5" y="423.56" width="11" height="15"/><rect class="cls-6" x="150.5" y="423.56" width="10" height="15"/><rect class="cls-6" x="162.5" y="423.56" width="11" height="15"/><rect class="cls-6" x="175.5" y="406.56" width="11" height="15"/><rect class="cls-6" x="175.5" y="423.56" width="11" height="15"/><rect class="cls-6" x="137.5" y="440.56" width="11" height="15"/><rect class="cls-6" x="150.5" y="440.56" width="10" height="15"/><rect class="cls-6" x="162.5" y="440.56" width="11" height="15"/><rect class="cls-6" x="137.5" y="457.56" width="11" height="15"/><rect class="cls-6" x="150.5" y="457.56" width="10" height="15"/><rect class="cls-6" x="162.5" y="457.56" width="11" height="15"/><rect class="cls-6" x="175.5" y="440.56" width="11" height="15"/><rect class="cls-6" x="175.5" y="457.56" width="11" height="15"/><rect class="cls-6" x="175.5" y="474.56" width="11" height="15"/><rect class="cls-6" x="142.5" y="483.56" width="11" height="15"/><rect class="cls-5" x="27.5" y="319.56" width="53" height="179"/><rect class="cls-6" x="29.5" y="322.56" width="11" height="15"/><rect class="cls-6" x="42.5" y="322.56" width="10" height="15"/><rect class="cls-6" x="54.5" y="322.56" width="11" height="15"/><rect class="cls-6" x="29.5" y="339.56" width="11" height="15"/><rect class="cls-6" x="42.5" y="339.56" width="10" height="15"/><rect class="cls-6" x="54.5" y="339.56" width="11" height="15"/><rect class="cls-6" x="29.5" y="356.56" width="11" height="15"/><rect class="cls-6" x="42.5" y="356.56" width="10" height="15"/><rect class="cls-6" x="54.5" y="356.56" width="11" height="15"/><rect class="cls-6" x="29.5" y="373.56" width="11" height="15"/><rect class="cls-6" x="42.5" y="373.56" width="10" height="15"/><rect class="cls-6" x="54.5" y="373.56" width="11" height="15"/><rect class="cls-6" x="29.5" y="390.56" width="11" height="15"/><rect class="cls-6" x="42.5" y="390.56" width="10" height="15"/><rect class="cls-6" x="54.5" y="390.56" width="11" height="15"/><rect class="cls-6" x="67.5" y="322.56" width="11" height="15"/><rect class="cls-6" x="67.5" y="339.56" width="11" height="15"/><rect class="cls-6" x="67.5" y="356.56" width="11" height="15"/><rect class="cls-6" x="67.5" y="373.56" width="11" height="15"/><rect class="cls-6" x="67.5" y="390.56" width="11" height="15"/><rect class="cls-6" x="29.5" y="407.56" width="11" height="15"/><rect class="cls-6" x="42.5" y="407.56" width="10" height="15"/><rect class="cls-6" x="54.5" y="407.56" width="11" height="15"/><rect class="cls-6" x="29.5" y="424.56" width="11" height="15"/><rect class="cls-6" x="42.5" y="424.56" width="10" height="15"/><rect class="cls-6" x="54.5" y="424.56" width="11" height="15"/><rect class="cls-6" x="67.5" y="407.56" width="11" height="15"/><rect class="cls-6" x="67.5" y="424.56" width="11" height="15"/><rect class="cls-6" x="29.5" y="441.56" width="11" height="15"/><rect class="cls-6" x="42.5" y="441.56" width="10" height="15"/><rect class="cls-6" x="54.5" y="441.56" width="11" height="15"/><rect class="cls-6" x="29.5" y="458.56" width="11" height="15"/><rect class="cls-6" x="42.5" y="458.56" width="10" height="15"/><rect class="cls-6" x="54.5" y="458.56" width="11" height="15"/><rect class="cls-6" x="67.5" y="441.56" width="11" height="15"/><rect class="cls-6" x="67.5" y="458.56" width="11" height="15"/><rect class="cls-6" x="54.5" y="475.56" width="11" height="15"/><rect class="cls-6" x="67.5" y="475.56" width="11" height="15"/><rect class="cls-6" x="35.5" y="483.56" width="9" height="15"/><rect class="cls-7" x="81.5" y="362.56" width="53" height="136"/><rect class="cls-6" x="83.5" y="364.56" width="11" height="15"/><rect class="cls-6" x="96.5" y="364.56" width="10" height="15"/><rect class="cls-6" x="108.5" y="364.56" width="11" height="15"/><rect class="cls-6" x="83.5" y="381.56" width="11" height="15"/><rect class="cls-6" x="96.5" y="381.56" width="10" height="15"/><rect class="cls-6" x="108.5" y="381.56" width="11" height="15"/><rect class="cls-6" x="83.5" y="398.56" width="11" height="15"/><rect class="cls-6" x="96.5" y="398.56" width="10" height="15"/><rect class="cls-6" x="108.5" y="398.56" width="11" height="15"/><rect class="cls-6" x="83.5" y="415.56" width="11" height="15"/><rect class="cls-6" x="96.5" y="415.56" width="10" height="15"/><rect class="cls-6" x="108.5" y="415.56" width="11" height="15"/><rect class="cls-6" x="83.5" y="432.56" width="11" height="15"/><rect class="cls-6" x="96.5" y="432.56" width="10" height="15"/><rect class="cls-6" x="108.5" y="432.56" width="11" height="15"/><rect class="cls-6" x="121.5" y="364.56" width="11" height="15"/><rect class="cls-6" x="121.5" y="381.56" width="11" height="15"/><rect class="cls-6" x="121.5" y="398.56" width="11" height="15"/><rect class="cls-6" x="121.5" y="415.56" width="11" height="15"/><rect class="cls-6" x="121.5" y="432.56" width="11" height="15"/><rect class="cls-6" x="83.5" y="449.56" width="11" height="15"/><rect class="cls-6" x="96.5" y="449.56" width="10" height="15"/><rect class="cls-6" x="108.5" y="449.56" width="11" height="15"/><rect class="cls-6" x="83.5" y="466.56" width="11" height="15"/><rect class="cls-6" x="96.5" y="466.56" width="10" height="15"/><rect class="cls-6" x="108.5" y="466.56" width="11" height="15"/><rect class="cls-6" x="121.5" y="449.56" width="11" height="15"/><rect class="cls-6" x="121.5" y="466.56" width="11" height="15"/><rect class="cls-6" x="102.5" y="483.56" width="9" height="15"/><rect class="cls-7" x="189.5" y="389.56" width="53" height="109"/><rect class="cls-6" x="191.5" y="392.56" width="11" height="15"/><rect class="cls-6" x="204.5" y="392.56" width="10" height="15"/><rect class="cls-6" x="216.5" y="392.56" width="11" height="15"/><rect class="cls-6" x="191.5" y="409.56" width="11" height="15"/><rect class="cls-6" x="204.5" y="409.56" width="10" height="15"/><rect class="cls-6" x="216.5" y="409.56" width="11" height="15"/><rect class="cls-6" x="191.5" y="426.56" width="11" height="15"/><rect class="cls-6" x="204.5" y="426.56" width="10" height="15"/><rect class="cls-6" x="216.5" y="426.56" width="11" height="15"/><rect class="cls-6" x="191.5" y="443.56" width="11" height="15"/><rect class="cls-6" x="204.5" y="443.56" width="10" height="15"/><rect class="cls-6" x="216.5" y="443.56" width="11" height="15"/><rect class="cls-6" x="191.5" y="460.56" width="11" height="15"/><rect class="cls-6" x="191.5" y="477.56" width="11" height="15"/><rect class="cls-6" x="204.5" y="460.56" width="10" height="15"/><rect class="cls-6" x="204.5" y="477.56" width="10" height="15"/><rect class="cls-6" x="216.5" y="460.56" width="11" height="15"/><rect class="cls-6" x="229.5" y="392.56" width="11" height="15"/><rect class="cls-6" x="229.5" y="409.56" width="11" height="15"/><rect class="cls-6" x="229.5" y="426.56" width="11" height="15"/><rect class="cls-6" x="229.5" y="443.56" width="11" height="15"/><rect class="cls-6" x="229.5" y="460.56" width="11" height="15"/><rect class="cls-6" x="224.5" y="483.56" width="9" height="15"/><rect class="cls-8" y="271.06" width="162" height="81"/></g></g></svg>