<svg xmlns="http://www.w3.org/2000/svg" viewBox="0 0 1874.07 549.62"><defs><style>.cls-1{fill:#fff;}.cls-2{fill:#00e0ff;}</style></defs><title>Layer 30</title><g id="Layer_2" data-name="Layer 2"><g id="Layer_30" data-name="Layer 30"><path class="cls-1" d="M668.4,7l1.91,5.18h6.18l-5,3.21,1.91,5.18-5-3.21-5,3.21,1.9-5.18-5-3.21h6.17Z"/><path class="cls-1" d="M668.4,7l1.91,5.18h6.18l-5,3.21,1.91,5.18-5-3.21-5,3.21,1.9-5.18-5-3.21h6.17Z"/><path class="cls-1" d="M668.4,7l1.91,5.18h6.18l-5,3.21,1.91,5.18-5-3.21-5,3.21,1.9-5.18-5-3.21h6.17Z"/><path class="cls-1" d="M865.4,19l1.91,5.18h6.18l-5,3.21,1.91,5.18-5-3.21-5,3.21,1.9-5.18-5-3.21h6.17Z"/><path class="cls-1" d="M523.4,14l1.69,5.18h5.45l-4.41,3.21,1.68,5.18-4.41-3.21L519,27.57l1.69-5.18-4.41-3.21h5.45Z"/><path class="cls-1" d="M668.4,7l1.91,5.18h6.18l-5,3.21,1.91,5.18-5-3.21-5,3.21,1.9-5.18-5-3.21h6.17Z"/><path class="cls-1" d="M773.4,64l1.69,4.84h5.45l-4.41,3,1.68,4.83-4.41-3-4.41,3,1.69-4.83-4.41-3h5.45Z"/><path class="cls-1" d="M1384.4,37l1.91,5.18h6.18l-5,3.21,1.91,5.18-5-3.21-5,3.21,1.9-5.18-5-3.21h6.17Z"/><path class="cls-1" d="M1525.4,43l1.68,4.84h5.45l-4.41,3,1.69,4.83-4.41-3-4.41,3,1.69-4.83-4.41-3h5.45Z"/><path class="cls-1" d="M1384.4,37l1.91,5.18h6.18l-5,3.21,1.91,5.18-5-3.21-5,3.21,1.9-5.18-5-3.21h6.17Z"/><path class="cls-1" d="M1525.4,43l1.68,4.84h5.45l-4.41,3,1.69,4.83-4.41-3-4.41,3,1.69-4.83-4.41-3h5.45Z"/><path class="cls-2" d="M1498.4,115l1.68,5.18h5.45l-4.41,3.21,1.69,5.18-4.41-3.21-4.41,3.21,1.69-5.18-4.41-3.21h5.45Z"/><path class="cls-2" d="M499.4,126l1.69,5.18h5.45l-4.41,3.2,1.68,5.19-4.41-3.2-4.41,3.2,1.69-5.19-4.41-3.2h5.45Z"/><path class="cls-1" d="M1384.4,37l1.91,5.18h6.18l-5,3.21,1.91,5.18-5-3.21-5,3.21,1.9-5.18-5-3.21h6.17Z"/><path class="cls-1" d="M1239.4,44l1.69,5.18h5.45l-4.41,3.21,1.68,5.18-4.41-3.21L1235,57.57l1.69-5.18-4.41-3.21h5.45Z"/><path class="cls-1" d="M1384.4,37l1.91,5.18h6.18l-5,3.21,1.91,5.18-5-3.21-5,3.21,1.9-5.18-5-3.21h6.17Z"/><path class="cls-1" d="M1486.4,4l1.68,4.84h5.45l-4.41,3,1.69,4.83-4.41-3-4.41,3,1.69-4.83-4.41-3h5.45Z"/><path class="cls-1" d="M922.4,164l1.69,5.18h5.45l-4.41,3.2,1.68,5.19-4.41-3.2-4.41,3.2,1.69-5.19-4.41-3.2h5.45Z"/><path class="cls-1" d="M981.4,205l1.91,5.18h6.18l-5,3.2,1.91,5.19-5-3.2-5,3.2,1.9-5.19-5-3.2h6.17Z"/><path class="cls-1" d="M1122.4,211l1.69,4.84h5.45l-4.41,3,1.68,4.83-4.41-3-4.41,3,1.69-4.83-4.41-3h5.45Z"/><path class="cls-1" d="M1215.4,172l1.91,5.18h6.18l-5,3.2,1.91,5.19-5-3.2-5,3.2,1.9-5.19-5-3.2h6.17Z"/><path class="cls-1" d="M981.4,205l1.91,5.18h6.18l-5,3.2,1.91,5.19-5-3.2-5,3.2,1.9-5.19-5-3.2h6.17Z"/><path class="cls-1" d="M1122.4,211l1.69,4.84h5.45l-4.41,3,1.68,4.83-4.41-3-4.41,3,1.69-4.83-4.41-3h5.45Z"/><path class="cls-1" d="M1215.4,172l1.91,5.18h6.18l-5,3.2,1.91,5.19-5-3.2-5,3.2,1.9-5.19-5-3.2h6.17Z"/><path class="cls-1" d="M914.4,92l1.69,5.18h5.45l-4.41,3.21,1.68,5.18-4.41-3.21L910,105.57l1.69-5.18-4.41-3.21h5.45Z"/><path class="cls-1" d="M981.4,205l1.91,5.18h6.18l-5,3.2,1.91,5.19-5-3.2-5,3.2,1.9-5.19-5-3.2h6.17Z"/><path class="cls-1" d="M1122.4,211l1.69,4.84h5.45l-4.41,3,1.68,4.83-4.41-3-4.41,3,1.69-4.83-4.41-3h5.45Z"/><path class="cls-1" d="M1215.4,172l1.91,5.18h6.18l-5,3.2,1.91,5.19-5-3.2-5,3.2,1.9-5.19-5-3.2h6.17Z"/><path class="cls-1" d="M836.4,212l1.69,5.18h5.45l-4.41,3.2,1.68,5.19-4.41-3.2-4.41,3.2,1.69-5.19-4.41-3.2h5.45Z"/><path class="cls-1" d="M981.4,205l1.91,5.18h6.18l-5,3.2,1.91,5.19-5-3.2-5,3.2,1.9-5.19-5-3.2h6.17Z"/><path class="cls-1" d="M1083.4,172l1.69,4.84h5.45l-4.41,3,1.68,4.83-4.41-3-4.41,3,1.69-4.83-4.41-3h5.45Z"/><path class="cls-1" d="M1138.4,107l1.91,5.18h6.18l-5,3.21,1.91,5.18-5-3.21-5,3.21,1.9-5.18-5-3.21h6.17Z"/><path class="cls-1" d="M922.4,164l1.69,5.18h5.45l-4.41,3.2,1.68,5.19-4.41-3.2-4.41,3.2,1.69-5.19-4.41-3.2h5.45Z"/><path class="cls-1" d="M981.4,205l1.91,5.18h6.18l-5,3.2,1.91,5.19-5-3.2-5,3.2,1.9-5.19-5-3.2h6.17Z"/><path class="cls-1" d="M1122.4,211l1.69,4.84h5.45l-4.41,3,1.68,4.83-4.41-3-4.41,3,1.69-4.83-4.41-3h5.45Z"/><path class="cls-1" d="M1215.4,172l1.91,5.18h6.18l-5,3.2,1.91,5.19-5-3.2-5,3.2,1.9-5.19-5-3.2h6.17Z"/><path class="cls-1" d="M981.4,205l1.91,5.18h6.18l-5,3.2,1.91,5.19-5-3.2-5,3.2,1.9-5.19-5-3.2h6.17Z"/><path class="cls-1" d="M1122.4,211l1.69,4.84h5.45l-4.41,3,1.68,4.83-4.41-3-4.41,3,1.69-4.83-4.41-3h5.45Z"/><path class="cls-1" d="M1215.4,172l1.91,5.18h6.18l-5,3.2,1.91,5.19-5-3.2-5,3.2,1.9-5.19-5-3.2h6.17Z"/><path class="cls-1" d="M914.4,92l1.69,5.18h5.45l-4.41,3.21,1.68,5.18-4.41-3.21L910,105.57l1.69-5.18-4.41-3.21h5.45Z"/><path class="cls-1" d="M981.4,205l1.91,5.18h6.18l-5,3.2,1.91,5.19-5-3.2-5,3.2,1.9-5.19-5-3.2h6.17Z"/><path class="cls-1" d="M1122.4,211l1.69,4.84h5.45l-4.41,3,1.68,4.83-4.41-3-4.41,3,1.69-4.83-4.41-3h5.45Z"/><path class="cls-1" d="M1215.4,172l1.91,5.18h6.18l-5,3.2,1.91,5.19-5-3.2-5,3.2,1.9-5.19-5-3.2h6.17Z"/><path class="cls-1" d="M836.4,212l1.69,5.18h5.45l-4.41,3.2,1.68,5.19-4.41-3.2-4.41,3.2,1.69-5.19-4.41-3.2h5.45Z"/><path class="cls-1" d="M981.4,205l1.91,5.18h6.18l-5,3.2,1.91,5.19-5-3.2-5,3.2,1.9-5.19-5-3.2h6.17Z"/><path class="cls-1" d="M449.4,39l1.91,5.18h6.18l-5,3.21,1.91,5.18-5-3.21-5,3.21,1.9-5.18-5-3.21h6.17Z"/><path class="cls-1" d="M449.4,39l1.91,5.18h6.18l-5,3.21,1.91,5.18-5-3.21-5,3.21,1.9-5.18-5-3.21h6.17Z"/><path class="cls-1" d="M449.4,39l1.91,5.18h6.18l-5,3.21,1.91,5.18-5-3.21-5,3.21,1.9-5.18-5-3.21h6.17Z"/><path class="cls-1" d="M449.4,39l1.91,5.18h6.18l-5,3.21,1.91,5.18-5-3.21-5,3.21,1.9-5.18-5-3.21h6.17Z"/><path class="cls-1" d="M449.4,39l1.91,5.18h6.18l-5,3.21,1.91,5.18-5-3.21-5,3.21,1.9-5.18-5-3.21h6.17Z"/><path class="cls-1" d="M449.4,39l1.91,5.18h6.18l-5,3.21,1.91,5.18-5-3.21-5,3.21,1.9-5.18-5-3.21h6.17Z"/><path class="cls-1" d="M449.4,39l1.91,5.18h6.18l-5,3.21,1.91,5.18-5-3.21-5,3.21,1.9-5.18-5-3.21h6.17Z"/><path class="cls-1" d="M449.4,39l1.91,5.18h6.18l-5,3.21,1.91,5.18-5-3.21-5,3.21,1.9-5.18-5-3.21h6.17Z"/><path class="cls-1" d="M1083.4,172l1.69,4.84h5.45l-4.41,3,1.68,4.83-4.41-3-4.41,3,1.69-4.83-4.41-3h5.45Z"/><path class="cls-1" d="M1138.4,107l1.91,5.18h6.18l-5,3.21,1.91,5.18-5-3.21-5,3.21,1.9-5.18-5-3.21h6.17Z"/><path class="cls-1" d="M458.4,252l1.91,5.18h6.18l-5,3.21,1.91,5.18-5-3.21-5,3.21,1.9-5.18-5-3.21h6.17Z"/><path class="cls-1" d="M599.4,258l1.69,4.84h5.45l-4.41,3,1.68,4.83-4.41-3-4.41,3,1.69-4.83-4.41-3h5.45Z"/><path class="cls-1" d="M692.4,219l1.91,5.18h6.18l-5,3.2,1.91,5.19-5-3.2-5,3.2,1.9-5.19-5-3.2h6.17Z"/><path class="cls-1" d="M458.4,252l1.91,5.18h6.18l-5,3.21,1.91,5.18-5-3.21-5,3.21,1.9-5.18-5-3.21h6.17Z"/><path class="cls-1" d="M599.4,258l1.69,4.84h5.45l-4.41,3,1.68,4.83-4.41-3-4.41,3,1.69-4.83-4.41-3h5.45Z"/><path class="cls-1" d="M692.4,219l1.91,5.18h6.18l-5,3.2,1.91,5.19-5-3.2-5,3.2,1.9-5.19-5-3.2h6.17Z"/><path class="cls-1" d="M458.4,252l1.91,5.18h6.18l-5,3.21,1.91,5.18-5-3.21-5,3.21,1.9-5.18-5-3.21h6.17Z"/><path class="cls-1" d="M599.4,258l1.69,4.84h5.45l-4.41,3,1.68,4.83-4.41-3-4.41,3,1.69-4.83-4.41-3h5.45Z"/><path class="cls-1" d="M692.4,219l1.91,5.18h6.18l-5,3.2,1.91,5.19-5-3.2-5,3.2,1.9-5.19-5-3.2h6.17Z"/><path class="cls-1" d="M458.4,252l1.91,5.18h6.18l-5,3.21,1.91,5.18-5-3.21-5,3.21,1.9-5.18-5-3.21h6.17Z"/><path class="cls-1" d="M560.4,219l1.69,4.84h5.45l-4.41,3,1.68,4.83-4.41-3-4.41,3,1.69-4.83-4.41-3h5.45Z"/><path class="cls-1" d="M615.4,154l1.91,5.18h6.18l-5,3.2,1.91,5.19-5-3.2-5,3.2,1.9-5.19-5-3.2h6.17Z"/><path class="cls-1" d="M458.4,252l1.91,5.18h6.18l-5,3.21,1.91,5.18-5-3.21-5,3.21,1.9-5.18-5-3.21h6.17Z"/><path class="cls-1" d="M599.4,258l1.69,4.84h5.45l-4.41,3,1.68,4.83-4.41-3-4.41,3,1.69-4.83-4.41-3h5.45Z"/><path class="cls-1" d="M692.4,219l1.91,5.18h6.18l-5,3.2,1.91,5.19-5-3.2-5,3.2,1.9-5.19-5-3.2h6.17Z"/><path class="cls-1" d="M458.4,252l1.91,5.18h6.18l-5,3.21,1.91,5.18-5-3.21-5,3.21,1.9-5.18-5-3.21h6.17Z"/><path class="cls-1" d="M599.4,258l1.69,4.84h5.45l-4.41,3,1.68,4.83-4.41-3-4.41,3,1.69-4.83-4.41-3h5.45Z"/><path class="cls-1" d="M692.4,219l1.91,5.18h6.18l-5,3.2,1.91,5.19-5-3.2-5,3.2,1.9-5.19-5-3.2h6.17Z"/><path class="cls-1" d="M458.4,252l1.91,5.18h6.18l-5,3.21,1.91,5.18-5-3.21-5,3.21,1.9-5.18-5-3.21h6.17Z"/><path class="cls-1" d="M599.4,258l1.69,4.84h5.45l-4.41,3,1.68,4.83-4.41-3-4.41,3,1.69-4.83-4.41-3h5.45Z"/><path class="cls-1" d="M692.4,219l1.91,5.18h6.18l-5,3.2,1.91,5.19-5-3.2-5,3.2,1.9-5.19-5-3.2h6.17Z"/><path class="cls-1" d="M458.4,252l1.91,5.18h6.18l-5,3.21,1.91,5.18-5-3.21-5,3.21,1.9-5.18-5-3.21h6.17Z"/><path class="cls-1" d="M560.4,219l1.69,4.84h5.45l-4.41,3,1.68,4.83-4.41-3-4.41,3,1.69-4.83-4.41-3h5.45Z"/><path class="cls-1" d="M615.4,154l1.91,5.18h6.18l-5,3.2,1.91,5.19-5-3.2-5,3.2,1.9-5.19-5-3.2h6.17Z"/><path class="cls-1" d="M1290.4,244l1.91,5.18h6.18l-5,3.2,1.91,5.19-5-3.2-5,3.2,1.9-5.19-5-3.2h6.17Z"/><path class="cls-1" d="M1431.4,250l1.69,4.84h5.45l-4.41,3,1.68,4.83-4.41-3-4.41,3,1.69-4.83-4.41-3h5.45Z"/><path class="cls-1" d="M1524.4,211l1.91,5.18h6.17l-5,3.2,1.91,5.19-5-3.2-5,3.2,1.91-5.19-5-3.2h6.17Z"/><path class="cls-1" d="M1290.4,244l1.91,5.18h6.18l-5,3.2,1.91,5.19-5-3.2-5,3.2,1.9-5.19-5-3.2h6.17Z"/><path class="cls-1" d="M1431.4,250l1.69,4.84h5.45l-4.41,3,1.68,4.83-4.41-3-4.41,3,1.69-4.83-4.41-3h5.45Z"/><path class="cls-1" d="M1524.4,211l1.91,5.18h6.17l-5,3.2,1.91,5.19-5-3.2-5,3.2,1.91-5.19-5-3.2h6.17Z"/><path class="cls-1" d="M1290.4,244l1.91,5.18h6.18l-5,3.2,1.91,5.19-5-3.2-5,3.2,1.9-5.19-5-3.2h6.17Z"/><path class="cls-1" d="M1431.4,250l1.69,4.84h5.45l-4.41,3,1.68,4.83-4.41-3-4.41,3,1.69-4.83-4.41-3h5.45Z"/><path class="cls-1" d="M1524.4,211l1.91,5.18h6.17l-5,3.2,1.91,5.19-5-3.2-5,3.2,1.91-5.19-5-3.2h6.17Z"/><path class="cls-1" d="M1290.4,244l1.91,5.18h6.18l-5,3.2,1.91,5.19-5-3.2-5,3.2,1.9-5.19-5-3.2h6.17Z"/><path class="cls-1" d="M1392.4,211l1.69,4.84h5.45l-4.41,3,1.68,4.83-4.41-3-4.41,3,1.69-4.83-4.41-3h5.45Z"/><path class="cls-1" d="M1447.4,146l1.91,5.18h6.17l-5,3.2,1.91,5.19-5-3.2-5,3.2,1.91-5.19-5-3.2h6.17Z"/><path class="cls-1" d="M1290.4,244l1.91,5.18h6.18l-5,3.2,1.91,5.19-5-3.2-5,3.2,1.9-5.19-5-3.2h6.17Z"/><path class="cls-1" d="M1431.4,250l1.69,4.84h5.45l-4.41,3,1.68,4.83-4.41-3-4.41,3,1.69-4.83-4.41-3h5.45Z"/><path class="cls-1" d="M1524.4,211l1.91,5.18h6.17l-5,3.2,1.91,5.19-5-3.2-5,3.2,1.91-5.19-5-3.2h6.17Z"/><path class="cls-1" d="M1290.4,244l1.91,5.18h6.18l-5,3.2,1.91,5.19-5-3.2-5,3.2,1.9-5.19-5-3.2h6.17Z"/><path class="cls-1" d="M1431.4,250l1.69,4.84h5.45l-4.41,3,1.68,4.83-4.41-3-4.41,3,1.69-4.83-4.41-3h5.45Z"/><path class="cls-1" d="M1524.4,211l1.91,5.18h6.17l-5,3.2,1.91,5.19-5-3.2-5,3.2,1.91-5.19-5-3.2h6.17Z"/><path class="cls-1" d="M1290.4,244l1.91,5.18h6.18l-5,3.2,1.91,5.19-5-3.2-5,3.2,1.9-5.19-5-3.2h6.17Z"/><path class="cls-1" d="M1431.4,250l1.69,4.84h5.45l-4.41,3,1.68,4.83-4.41-3-4.41,3,1.69-4.83-4.41-3h5.45Z"/><path class="cls-1" d="M1524.4,211l1.91,5.18h6.17l-5,3.2,1.91,5.19-5-3.2-5,3.2,1.91-5.19-5-3.2h6.17Z"/><path class="cls-1" d="M1290.4,244l1.91,5.18h6.18l-5,3.2,1.91,5.19-5-3.2-5,3.2,1.9-5.19-5-3.2h6.17Z"/><path class="cls-1" d="M1392.4,211l1.69,4.84h5.45l-4.41,3,1.68,4.83-4.41-3-4.41,3,1.69-4.83-4.41-3h5.45Z"/><path class="cls-1" d="M1447.4,146l1.91,5.18h6.17l-5,3.2,1.91,5.19-5-3.2-5,3.2,1.91-5.19-5-3.2h6.17Z"/><path class="cls-1" d="M1206.4,0l1.91,5.18h6.18l-5,3.21,1.91,5.18-5-3.21-5,3.21,1.9-5.18-5-3.21h6.17Z"/><path class="cls-1" d="M1067.4,29l1.69,4.84h5.45l-4.41,3,1.68,4.83-4.41-3-4.41,3,1.69-4.83-4.41-3h5.45Z"/><path class="cls-1" d="M815.77,286l1.91,5.18h6.17l-5,3.21,1.91,5.18-5-3.2-5,3.2,1.91-5.18-5-3.21h6.17Z"/><path class="cls-1" d="M815.77,286l1.91,5.18h6.17l-5,3.21,1.91,5.18-5-3.2-5,3.2,1.91-5.18-5-3.21h6.17Z"/><path class="cls-1" d="M815.77,286l1.91,5.18h6.17l-5,3.21,1.91,5.18-5-3.2-5,3.2,1.91-5.18-5-3.21h6.17Z"/><path class="cls-1" d="M1012.77,298l1.91,5.18h6.17l-5,3.21,1.91,5.18-5-3.2-5,3.2,1.91-5.18-5-3.21h6.17Z"/><path class="cls-1" d="M670.77,293l1.68,5.18h5.45l-4.41,3.21,1.69,5.18-4.41-3.2-4.41,3.2,1.68-5.18-4.4-3.21h5.45Z"/><path class="cls-1" d="M815.77,286l1.91,5.18h6.17l-5,3.21,1.91,5.18-5-3.2-5,3.2,1.91-5.18-5-3.21h6.17Z"/><path class="cls-1" d="M920.77,343l1.68,4.84h5.45l-4.41,3,1.69,4.84-4.41-3-4.41,3,1.68-4.84-4.4-3h5.45Z"/><path class="cls-1" d="M1531.77,316l1.91,5.18h6.17l-5,3.21,1.91,5.18-5-3.2-5,3.2,1.91-5.18-5-3.21h6.17Z"/><path class="cls-1" d="M1672.77,322l1.68,4.84h5.45l-4.41,3,1.69,4.84-4.41-3-4.41,3,1.69-4.84-4.41-3h5.45Z"/><path class="cls-1" d="M1531.77,316l1.91,5.18h6.17l-5,3.21,1.91,5.18-5-3.2-5,3.2,1.91-5.18-5-3.21h6.17Z"/><path class="cls-1" d="M1672.77,322l1.68,4.84h5.45l-4.41,3,1.69,4.84-4.41-3-4.41,3,1.69-4.84-4.41-3h5.45Z"/><path class="cls-2" d="M1645.77,394l1.68,5.18h5.45l-4.41,3.21,1.69,5.18-4.41-3.2-4.41,3.2,1.69-5.18-4.41-3.21h5.45Z"/><path class="cls-2" d="M646.77,405l1.68,5.18h5.45l-4.41,3.21,1.69,5.18-4.41-3.2-4.41,3.2,1.68-5.18-4.4-3.21h5.45Z"/><path class="cls-1" d="M1531.77,316l1.91,5.18h6.17l-5,3.21,1.91,5.18-5-3.2-5,3.2,1.91-5.18-5-3.21h6.17Z"/><path class="cls-1" d="M1386.77,323l1.68,5.18h5.45l-4.41,3.21,1.69,5.18-4.41-3.2-4.41,3.2,1.68-5.18-4.4-3.21h5.45Z"/><path class="cls-1" d="M1531.77,316l1.91,5.18h6.17l-5,3.21,1.91,5.18-5-3.2-5,3.2,1.91-5.18-5-3.21h6.17Z"/><path class="cls-1" d="M1633.77,283l1.68,4.84h5.45l-4.41,3,1.69,4.84-4.41-3-4.41,3,1.69-4.84-4.41-3h5.45Z"/><path class="cls-1" d="M1069.77,443l1.68,5.18h5.45l-4.41,3.21,1.69,5.18-4.41-3.2-4.41,3.2,1.68-5.18-4.4-3.21h5.45Z"/><path class="cls-1" d="M1128.77,484l1.91,5.18h6.17l-5,3.21,1.91,5.18-5-3.2-5,3.2,1.91-5.18-5-3.21h6.17Z"/><path class="cls-1" d="M1269.77,490l1.68,4.84h5.45l-4.41,3,1.69,4.84-4.41-3-4.41,3,1.68-4.84-4.4-3h5.45Z"/><path class="cls-1" d="M1362.77,451l1.91,5.18h6.17l-5,3.21,1.91,5.18-5-3.2-5,3.2,1.91-5.18-5-3.21h6.17Z"/><path class="cls-1" d="M1128.77,484l1.91,5.18h6.17l-5,3.21,1.91,5.18-5-3.2-5,3.2,1.91-5.18-5-3.21h6.17Z"/><path class="cls-1" d="M1269.77,490l1.68,4.84h5.45l-4.41,3,1.69,4.84-4.41-3-4.41,3,1.68-4.84-4.4-3h5.45Z"/><path class="cls-1" d="M1362.77,451l1.91,5.18h6.17l-5,3.21,1.91,5.18-5-3.2-5,3.2,1.91-5.18-5-3.21h6.17Z"/><path class="cls-1" d="M1061.77,371l1.68,5.18h5.45l-4.41,3.21,1.69,5.18-4.41-3.2-4.41,3.2,1.68-5.18-4.4-3.21h5.45Z"/><path class="cls-1" d="M1128.77,484l1.91,5.18h6.17l-5,3.21,1.91,5.18-5-3.2-5,3.2,1.91-5.18-5-3.21h6.17Z"/><path class="cls-1" d="M1269.77,490l1.68,4.84h5.45l-4.41,3,1.69,4.84-4.41-3-4.41,3,1.68-4.84-4.4-3h5.45Z"/><path class="cls-1" d="M1362.77,451l1.91,5.18h6.17l-5,3.21,1.91,5.18-5-3.2-5,3.2,1.91-5.18-5-3.21h6.17Z"/><path class="cls-1" d="M983.77,491l1.68,5.18h5.45l-4.41,3.21,1.69,5.18-4.41-3.2-4.41,3.2,1.68-5.18-4.4-3.21h5.45Z"/><path class="cls-1" d="M1128.77,484l1.91,5.18h6.17l-5,3.21,1.91,5.18-5-3.2-5,3.2,1.91-5.18-5-3.21h6.17Z"/><path class="cls-1" d="M1230.77,451l1.68,4.84h5.45l-4.41,3,1.69,4.84-4.41-3-4.41,3,1.68-4.84-4.4-3h5.45Z"/><path class="cls-1" d="M1285.77,386l1.91,5.18h6.17l-5,3.21,1.91,5.18-5-3.2-5,3.2,1.91-5.18-5-3.21h6.17Z"/><path class="cls-1" d="M1069.77,443l1.68,5.18h5.45l-4.41,3.21,1.69,5.18-4.41-3.2-4.41,3.2,1.68-5.18-4.4-3.21h5.45Z"/><path class="cls-1" d="M1128.77,484l1.91,5.18h6.17l-5,3.21,1.91,5.18-5-3.2-5,3.2,1.91-5.18-5-3.21h6.17Z"/><path class="cls-1" d="M1269.77,490l1.68,4.84h5.45l-4.41,3,1.69,4.84-4.41-3-4.41,3,1.68-4.84-4.4-3h5.45Z"/><path class="cls-1" d="M1362.77,451l1.91,5.18h6.17l-5,3.21,1.91,5.18-5-3.2-5,3.2,1.91-5.18-5-3.21h6.17Z"/><path class="cls-1" d="M1128.77,484l1.91,5.18h6.17l-5,3.21,1.91,5.18-5-3.2-5,3.2,1.91-5.18-5-3.21h6.17Z"/><path class="cls-1" d="M1269.77,490l1.68,4.84h5.45l-4.41,3,1.69,4.84-4.41-3-4.41,3,1.68-4.84-4.4-3h5.45Z"/><path class="cls-1" d="M1362.77,451l1.91,5.18h6.17l-5,3.21,1.91,5.18-5-3.2-5,3.2,1.91-5.18-5-3.21h6.17Z"/><path class="cls-1" d="M1061.77,371l1.68,5.18h5.45l-4.41,3.21,1.69,5.18-4.41-3.2-4.41,3.2,1.68-5.18-4.4-3.21h5.45Z"/><path class="cls-1" d="M1128.77,484l1.91,5.18h6.17l-5,3.21,1.91,5.18-5-3.2-5,3.2,1.91-5.18-5-3.21h6.17Z"/><path class="cls-1" d="M1269.77,490l1.68,4.84h5.45l-4.41,3,1.69,4.84-4.41-3-4.41,3,1.68-4.84-4.4-3h5.45Z"/><path class="cls-1" d="M1362.77,451l1.91,5.18h6.17l-5,3.21,1.91,5.18-5-3.2-5,3.2,1.91-5.18-5-3.21h6.17Z"/><path class="cls-1" d="M983.77,491l1.68,5.18h5.45l-4.41,3.21,1.69,5.18-4.41-3.2-4.41,3.2,1.68-5.18-4.4-3.21h5.45Z"/><path class="cls-1" d="M1128.77,484l1.91,5.18h6.17l-5,3.21,1.91,5.18-5-3.2-5,3.2,1.91-5.18-5-3.21h6.17Z"/><path class="cls-1" d="M596.77,318l1.91,5.18h6.17l-5,3.21,1.91,5.18-5-3.2-5,3.2,1.91-5.18-5-3.21h6.17Z"/><path class="cls-1" d="M596.77,318l1.91,5.18h6.17l-5,3.21,1.91,5.18-5-3.2-5,3.2,1.91-5.18-5-3.21h6.17Z"/><path class="cls-1" d="M596.77,318l1.91,5.18h6.17l-5,3.21,1.91,5.18-5-3.2-5,3.2,1.91-5.18-5-3.21h6.17Z"/><path class="cls-1" d="M596.77,318l1.91,5.18h6.17l-5,3.21,1.91,5.18-5-3.2-5,3.2,1.91-5.18-5-3.21h6.17Z"/><path class="cls-1" d="M596.77,318l1.91,5.18h6.17l-5,3.21,1.91,5.18-5-3.2-5,3.2,1.91-5.18-5-3.21h6.17Z"/><path class="cls-1" d="M596.77,318l1.91,5.18h6.17l-5,3.21,1.91,5.18-5-3.2-5,3.2,1.91-5.18-5-3.21h6.17Z"/><path class="cls-1" d="M596.77,318l1.91,5.18h6.17l-5,3.21,1.91,5.18-5-3.2-5,3.2,1.91-5.18-5-3.21h6.17Z"/><path class="cls-1" d="M596.77,318l1.91,5.18h6.17l-5,3.21,1.91,5.18-5-3.2-5,3.2,1.91-5.18-5-3.21h6.17Z"/><path class="cls-1" d="M1230.77,451l1.68,4.84h5.45l-4.41,3,1.69,4.84-4.41-3-4.41,3,1.68-4.84-4.4-3h5.45Z"/><path class="cls-1" d="M1285.77,386l1.91,5.18h6.17l-5,3.21,1.91,5.18-5-3.2-5,3.2,1.91-5.18-5-3.21h6.17Z"/><path class="cls-1" d="M605.77,531l1.91,5.18h6.17l-5,3.21,1.91,5.18-5-3.2-5,3.2,1.91-5.18-5-3.21h6.17Z"/><path class="cls-1" d="M746.77,537l1.68,4.84h5.45l-4.41,3,1.69,4.84-4.41-3-4.41,3,1.68-4.84-4.4-3h5.45Z"/><path class="cls-1" d="M839.77,498l1.91,5.18h6.17l-5,3.21,1.91,5.18-5-3.2-5,3.2,1.91-5.18-5-3.21h6.17Z"/><path class="cls-1" d="M605.77,531l1.91,5.18h6.17l-5,3.21,1.91,5.18-5-3.2-5,3.2,1.91-5.18-5-3.21h6.17Z"/><path class="cls-1" d="M746.77,537l1.68,4.84h5.45l-4.41,3,1.69,4.84-4.41-3-4.41,3,1.68-4.84-4.4-3h5.45Z"/><path class="cls-1" d="M839.77,498l1.91,5.18h6.17l-5,3.21,1.91,5.18-5-3.2-5,3.2,1.91-5.18-5-3.21h6.17Z"/><path class="cls-1" d="M605.77,531l1.91,5.18h6.17l-5,3.21,1.91,5.18-5-3.2-5,3.2,1.91-5.18-5-3.21h6.17Z"/><path class="cls-1" d="M746.77,537l1.68,4.84h5.45l-4.41,3,1.69,4.84-4.41-3-4.41,3,1.68-4.84-4.4-3h5.45Z"/><path class="cls-1" d="M839.77,498l1.91,5.18h6.17l-5,3.21,1.91,5.18-5-3.2-5,3.2,1.91-5.18-5-3.21h6.17Z"/><path class="cls-1" d="M605.77,531l1.91,5.18h6.17l-5,3.21,1.91,5.18-5-3.2-5,3.2,1.91-5.18-5-3.21h6.17Z"/><path class="cls-1" d="M707.77,498l1.68,4.84h5.45l-4.41,3,1.69,4.84-4.41-3-4.41,3,1.68-4.84-4.4-3h5.45Z"/><path class="cls-1" d="M762.77,433l1.91,5.18h6.17l-5,3.21,1.91,5.18-5-3.2-5,3.2,1.91-5.18-5-3.21h6.17Z"/><path class="cls-1" d="M605.77,531l1.91,5.18h6.17l-5,3.21,1.91,5.18-5-3.2-5,3.2,1.91-5.18-5-3.21h6.17Z"/><path class="cls-1" d="M746.77,537l1.68,4.84h5.45l-4.41,3,1.69,4.84-4.41-3-4.41,3,1.68-4.84-4.4-3h5.45Z"/><path class="cls-1" d="M839.77,498l1.91,5.18h6.17l-5,3.21,1.91,5.18-5-3.2-5,3.2,1.91-5.18-5-3.21h6.17Z"/><path class="cls-1" d="M605.77,531l1.91,5.18h6.17l-5,3.21,1.91,5.18-5-3.2-5,3.2,1.91-5.18-5-3.21h6.17Z"/><path class="cls-1" d="M746.77,537l1.68,4.84h5.45l-4.41,3,1.69,4.84-4.41-3-4.41,3,1.68-4.84-4.4-3h5.45Z"/><path class="cls-1" d="M839.77,498l1.91,5.18h6.17l-5,3.21,1.91,5.18-5-3.2-5,3.2,1.91-5.18-5-3.21h6.17Z"/><path class="cls-1" d="M605.77,531l1.91,5.18h6.17l-5,3.21,1.91,5.18-5-3.2-5,3.2,1.91-5.18-5-3.21h6.17Z"/><path class="cls-1" d="M746.77,537l1.68,4.84h5.45l-4.41,3,1.69,4.84-4.41-3-4.41,3,1.68-4.84-4.4-3h5.45Z"/><path class="cls-1" d="M839.77,498l1.91,5.18h6.17l-5,3.21,1.91,5.18-5-3.2-5,3.2,1.91-5.18-5-3.21h6.17Z"/><path class="cls-1" d="M605.77,531l1.91,5.18h6.17l-5,3.21,1.91,5.18-5-3.2-5,3.2,1.91-5.18-5-3.21h6.17Z"/><path class="cls-1" d="M707.77,498l1.68,4.84h5.45l-4.41,3,1.69,4.84-4.41-3-4.41,3,1.68-4.84-4.4-3h5.45Z"/><path class="cls-1" d="M762.77,433l1.91,5.18h6.17l-5,3.21,1.91,5.18-5-3.2-5,3.2,1.91-5.18-5-3.21h6.17Z"/><path class="cls-1" d="M1437.77,523l1.91,5.18h6.17l-5,3.21,1.91,5.18-5-3.2-5,3.2,1.91-5.18-5-3.21h6.17Z"/><path class="cls-1" d="M1578.77,529l1.68,4.84h5.45l-4.41,3,1.69,4.84-4.41-3-4.41,3,1.68-4.84-4.4-3h5.45Z"/><path class="cls-1" d="M1671.77,490l1.91,5.18h6.17l-5,3.21,1.91,5.18-5-3.2-5,3.2,1.91-5.18-5-3.21h6.17Z"/><path class="cls-1" d="M1437.77,523l1.91,5.18h6.17l-5,3.21,1.91,5.18-5-3.2-5,3.2,1.91-5.18-5-3.21h6.17Z"/><path class="cls-1" d="M1578.77,529l1.68,4.84h5.45l-4.41,3,1.69,4.84-4.41-3-4.41,3,1.68-4.84-4.4-3h5.45Z"/><path class="cls-1" d="M1671.77,490l1.91,5.18h6.17l-5,3.21,1.91,5.18-5-3.2-5,3.2,1.91-5.18-5-3.21h6.17Z"/><path class="cls-1" d="M1437.77,523l1.91,5.18h6.17l-5,3.21,1.91,5.18-5-3.2-5,3.2,1.91-5.18-5-3.21h6.17Z"/><path class="cls-1" d="M1578.77,529l1.68,4.84h5.45l-4.41,3,1.69,4.84-4.41-3-4.41,3,1.68-4.84-4.4-3h5.45Z"/><path class="cls-1" d="M1671.77,490l1.91,5.18h6.17l-5,3.21,1.91,5.18-5-3.2-5,3.2,1.91-5.18-5-3.21h6.17Z"/><path class="cls-1" d="M1437.77,523l1.91,5.18h6.17l-5,3.21,1.91,5.18-5-3.2-5,3.2,1.91-5.18-5-3.21h6.17Z"/><path class="cls-1" d="M1539.77,490l1.68,4.84h5.45l-4.41,3,1.69,4.84-4.41-3-4.41,3,1.68-4.84-4.4-3h5.45Z"/><path class="cls-1" d="M1594.77,425l1.91,5.18h6.17l-5,3.21,1.91,5.18-5-3.2-5,3.2,1.91-5.18-5-3.21h6.17Z"/><path class="cls-1" d="M1437.77,523l1.91,5.18h6.17l-5,3.21,1.91,5.18-5-3.2-5,3.2,1.91-5.18-5-3.21h6.17Z"/><path class="cls-1" d="M1578.77,529l1.68,4.84h5.45l-4.41,3,1.69,4.84-4.41-3-4.41,3,1.68-4.84-4.4-3h5.45Z"/><path class="cls-1" d="M1671.77,490l1.91,5.18h6.17l-5,3.21,1.91,5.18-5-3.2-5,3.2,1.91-5.18-5-3.21h6.17Z"/><path class="cls-1" d="M1437.77,523l1.91,5.18h6.17l-5,3.21,1.91,5.18-5-3.2-5,3.2,1.91-5.18-5-3.21h6.17Z"/><path class="cls-1" d="M1578.77,529l1.68,4.84h5.45l-4.41,3,1.69,4.84-4.41-3-4.41,3,1.68-4.84-4.4-3h5.45Z"/><path class="cls-1" d="M1671.77,490l1.91,5.18h6.17l-5,3.21,1.91,5.18-5-3.2-5,3.2,1.91-5.18-5-3.21h6.17Z"/><path class="cls-1" d="M1437.77,523l1.91,5.18h6.17l-5,3.21,1.91,5.18-5-3.2-5,3.2,1.91-5.18-5-3.21h6.17Z"/><path class="cls-1" d="M1578.77,529l1.68,4.84h5.45l-4.41,3,1.69,4.84-4.41-3-4.41,3,1.68-4.84-4.4-3h5.45Z"/><path class="cls-1" d="M1671.77,490l1.91,5.18h6.17l-5,3.21,1.91,5.18-5-3.2-5,3.2,1.91-5.18-5-3.21h6.17Z"/><path class="cls-1" d="M1437.77,523l1.91,5.18h6.17l-5,3.21,1.91,5.18-5-3.2-5,3.2,1.91-5.18-5-3.21h6.17Z"/><path class="cls-1" d="M1539.77,490l1.68,4.84h5.45l-4.41,3,1.69,4.84-4.41-3-4.41,3,1.68-4.84-4.4-3h5.45Z"/><path class="cls-1" d="M1594.77,425l1.91,5.18h6.17l-5,3.21,1.91,5.18-5-3.2-5,3.2,1.91-5.18-5-3.21h6.17Z"/><path class="cls-1" d="M1353.77,279l1.91,5.18h6.17l-5,3.21,1.91,5.18-5-3.2-5,3.2,1.91-5.18-5-3.21h6.17Z"/><path class="cls-1" d="M1214.77,308l1.68,4.84h5.45l-4.41,3,1.69,4.84-4.41-3-4.41,3,1.68-4.84-4.4-3h5.45Z"/><path class="cls-1" d="M10.72,39.76,12.4,44.6h5.45l-4.41,3,1.69,4.83-4.41-3-4.41,3L8,47.59l-4.41-3H9Z"/><path class="cls-1" d="M10.72,39.76,12.4,44.6h5.45l-4.41,3,1.69,4.83-4.41-3-4.41,3L8,47.59l-4.41-3H9Z"/><path class="cls-1" d="M10.72,39.76,12.4,44.6h5.45l-4.41,3,1.69,4.83-4.41-3-4.41,3L8,47.59l-4.41-3H9Z"/><path class="cls-1" d="M10.72,39.76,12.4,44.6h5.45l-4.41,3,1.69,4.83-4.41-3-4.41,3L8,47.59l-4.41-3H9Z"/><path class="cls-1" d="M10.72,39.76,12.4,44.6h5.45l-4.41,3,1.69,4.83-4.41-3-4.41,3L8,47.59l-4.41-3H9Z"/><path class="cls-1" d="M10.72,39.76,12.4,44.6h5.45l-4.41,3,1.69,4.83-4.41-3-4.41,3L8,47.59l-4.41-3H9Z"/><path class="cls-1" d="M227.08,67.71,229,72.9h6.18l-5,3.2,1.91,5.18-5-3.2-5,3.2L224,76.1l-5-3.2h6.18Z"/><path class="cls-1" d="M227.08,67.71,229,72.9h6.18l-5,3.2,1.91,5.18-5-3.2-5,3.2L224,76.1l-5-3.2h6.18Z"/><path class="cls-1" d="M227.08,67.71,229,72.9h6.18l-5,3.2,1.91,5.18-5-3.2-5,3.2L224,76.1l-5-3.2h6.18Z"/><path class="cls-1" d="M82.08,74.71l1.69,5.19h5.45l-4.41,3.2,1.68,5.18-4.41-3.2-4.4,3.2,1.68-5.18L75,79.9H80.4Z"/><path class="cls-1" d="M227.08,67.71,229,72.9h6.18l-5,3.2,1.91,5.18-5-3.2-5,3.2L224,76.1l-5-3.2h6.18Z"/><path class="cls-1" d="M332.08,124.71l1.69,4.84h5.45l-4.41,3,1.68,4.84-4.41-3-4.4,3,1.68-4.84-4.41-3h5.45Z"/><path class="cls-2" d="M58.08,186.71l1.69,5.18h5.45l-4.41,3.21,1.68,5.18-4.41-3.2-4.4,3.2,1.68-5.18L51,191.89H56.4Z"/><path class="cls-1" d="M8.08,99.71,10,104.9h6.18l-5,3.2,1.91,5.18-5-3.2-5,3.2L5,108.1l-5-3.2H6.18Z"/><path class="cls-1" d="M8.08,99.71,10,104.9h6.18l-5,3.2,1.91,5.18-5-3.2-5,3.2L5,108.1l-5-3.2H6.18Z"/><path class="cls-1" d="M8.08,99.71,10,104.9h6.18l-5,3.2,1.91,5.18-5-3.2-5,3.2L5,108.1l-5-3.2H6.18Z"/><path class="cls-1" d="M8.08,99.71,10,104.9h6.18l-5,3.2,1.91,5.18-5-3.2-5,3.2L5,108.1l-5-3.2H6.18Z"/><path class="cls-1" d="M8.08,99.71,10,104.9h6.18l-5,3.2,1.91,5.18-5-3.2-5,3.2L5,108.1l-5-3.2H6.18Z"/><path class="cls-1" d="M8.08,99.71,10,104.9h6.18l-5,3.2,1.91,5.18-5-3.2-5,3.2L5,108.1l-5-3.2H6.18Z"/><path class="cls-1" d="M8.08,99.71,10,104.9h6.18l-5,3.2,1.91,5.18-5-3.2-5,3.2L5,108.1l-5-3.2H6.18Z"/><path class="cls-1" d="M8.08,99.71,10,104.9h6.18l-5,3.2,1.91,5.18-5-3.2-5,3.2L5,108.1l-5-3.2H6.18Z"/><path class="cls-1" d="M17.08,312.71,19,317.89h6.18l-5,3.21,1.91,5.18-5-3.2-5,3.2L14,321.1l-5-3.21h6.18Z"/><path class="cls-1" d="M158.08,318.71l1.69,4.84h5.45l-4.41,3,1.68,4.84-4.41-3-4.4,3,1.68-4.84-4.41-3h5.45Z"/><path class="cls-1" d="M251.08,279.71l1.91,5.18h6.18l-5,3.21,1.91,5.18-5-3.2-5,3.2L248,288.1l-5-3.21h6.18Z"/><path class="cls-1" d="M17.08,312.71,19,317.89h6.18l-5,3.21,1.91,5.18-5-3.2-5,3.2L14,321.1l-5-3.21h6.18Z"/><path class="cls-1" d="M158.08,318.71l1.69,4.84h5.45l-4.41,3,1.68,4.84-4.41-3-4.4,3,1.68-4.84-4.41-3h5.45Z"/><path class="cls-1" d="M251.08,279.71l1.91,5.18h6.18l-5,3.21,1.91,5.18-5-3.2-5,3.2L248,288.1l-5-3.21h6.18Z"/><path class="cls-1" d="M17.08,312.71,19,317.89h6.18l-5,3.21,1.91,5.18-5-3.2-5,3.2L14,321.1l-5-3.21h6.18Z"/><path class="cls-1" d="M158.08,318.71l1.69,4.84h5.45l-4.41,3,1.68,4.84-4.41-3-4.4,3,1.68-4.84-4.41-3h5.45Z"/><path class="cls-1" d="M251.08,279.71l1.91,5.18h6.18l-5,3.21,1.91,5.18-5-3.2-5,3.2L248,288.1l-5-3.21h6.18Z"/><path class="cls-1" d="M17.08,312.71,19,317.89h6.18l-5,3.21,1.91,5.18-5-3.2-5,3.2L14,321.1l-5-3.21h6.18Z"/><path class="cls-1" d="M119.08,279.71l1.69,4.84h5.45l-4.41,3,1.68,4.84-4.41-3-4.4,3,1.68-4.84-4.41-3h5.45Z"/><path class="cls-1" d="M174.08,214.71l1.91,5.18h6.18l-5,3.21,1.91,5.18-5-3.2-5,3.2L171,223.1l-5-3.21h6.18Z"/><path class="cls-1" d="M17.08,312.71,19,317.89h6.18l-5,3.21,1.91,5.18-5-3.2-5,3.2L14,321.1l-5-3.21h6.18Z"/><path class="cls-1" d="M158.08,318.71l1.69,4.84h5.45l-4.41,3,1.68,4.84-4.41-3-4.4,3,1.68-4.84-4.41-3h5.45Z"/><path class="cls-1" d="M251.08,279.71l1.91,5.18h6.18l-5,3.21,1.91,5.18-5-3.2-5,3.2L248,288.1l-5-3.21h6.18Z"/><path class="cls-1" d="M17.08,312.71,19,317.89h6.18l-5,3.21,1.91,5.18-5-3.2-5,3.2L14,321.1l-5-3.21h6.18Z"/><path class="cls-1" d="M158.08,318.71l1.69,4.84h5.45l-4.41,3,1.68,4.84-4.41-3-4.4,3,1.68-4.84-4.41-3h5.45Z"/><path class="cls-1" d="M251.08,279.71l1.91,5.18h6.18l-5,3.21,1.91,5.18-5-3.2-5,3.2L248,288.1l-5-3.21h6.18Z"/><path class="cls-1" d="M17.08,312.71,19,317.89h6.18l-5,3.21,1.91,5.18-5-3.2-5,3.2L14,321.1l-5-3.21h6.18Z"/><path class="cls-1" d="M158.08,318.71l1.69,4.84h5.45l-4.41,3,1.68,4.84-4.41-3-4.4,3,1.68-4.84-4.41-3h5.45Z"/><path class="cls-1" d="M251.08,279.71l1.91,5.18h6.18l-5,3.21,1.91,5.18-5-3.2-5,3.2L248,288.1l-5-3.21h6.18Z"/><path class="cls-1" d="M17.08,312.71,19,317.89h6.18l-5,3.21,1.91,5.18-5-3.2-5,3.2L14,321.1l-5-3.21h6.18Z"/><path class="cls-1" d="M119.08,279.71l1.69,4.84h5.45l-4.41,3,1.68,4.84-4.41-3-4.4,3,1.68-4.84-4.41-3h5.45Z"/><path class="cls-1" d="M174.08,214.71l1.91,5.18h6.18l-5,3.21,1.91,5.18-5-3.2-5,3.2L171,223.1l-5-3.21h6.18Z"/><path class="cls-1" d="M1765.62,238.9l1.68,4.84h5.45l-4.41,3,1.68,4.84-4.4-3-4.41,3,1.68-4.84-4.41-3h5.45Z"/><path class="cls-1" d="M1858.62,199.9l1.91,5.18h6.17l-5,3.21,1.91,5.18-5-3.2-5,3.2,1.91-5.18-5-3.21h6.17Z"/><path class="cls-1" d="M1765.62,238.9l1.68,4.84h5.45l-4.41,3,1.68,4.84-4.4-3-4.41,3,1.68-4.84-4.41-3h5.45Z"/><path class="cls-1" d="M1858.62,199.9l1.91,5.18h6.17l-5,3.21,1.91,5.18-5-3.2-5,3.2,1.91-5.18-5-3.21h6.17Z"/><path class="cls-1" d="M1765.62,238.9l1.68,4.84h5.45l-4.41,3,1.68,4.84-4.4-3-4.41,3,1.68-4.84-4.41-3h5.45Z"/><path class="cls-1" d="M1858.62,199.9l1.91,5.18h6.17l-5,3.21,1.91,5.18-5-3.2-5,3.2,1.91-5.18-5-3.21h6.17Z"/><path class="cls-1" d="M1726.62,199.9l1.68,4.84h5.45l-4.41,3,1.68,4.84-4.4-3-4.41,3,1.68-4.84-4.41-3h5.45Z"/><path class="cls-1" d="M1765.62,238.9l1.68,4.84h5.45l-4.41,3,1.68,4.84-4.4-3-4.41,3,1.68-4.84-4.41-3h5.45Z"/><path class="cls-1" d="M1858.62,199.9l1.91,5.18h6.17l-5,3.21,1.91,5.18-5-3.2-5,3.2,1.91-5.18-5-3.21h6.17Z"/><path class="cls-1" d="M1765.62,238.9l1.68,4.84h5.45l-4.41,3,1.68,4.84-4.4-3-4.41,3,1.68-4.84-4.41-3h5.45Z"/><path class="cls-1" d="M1858.62,199.9l1.91,5.18h6.17l-5,3.21,1.91,5.18-5-3.2-5,3.2,1.91-5.18-5-3.21h6.17Z"/><path class="cls-1" d="M1765.62,238.9l1.68,4.84h5.45l-4.41,3,1.68,4.84-4.4-3-4.41,3,1.68-4.84-4.41-3h5.45Z"/><path class="cls-1" d="M1858.62,199.9l1.91,5.18h6.17l-5,3.21,1.91,5.18-5-3.2-5,3.2,1.91-5.18-5-3.21h6.17Z"/><path class="cls-1" d="M1726.62,199.9l1.68,4.84h5.45l-4.41,3,1.68,4.84-4.4-3-4.41,3,1.68-4.84-4.41-3h5.45Z"/><path class="cls-1" d="M1866,304.86l1.91,5.18h6.18l-5,3.2,1.91,5.18-5-3.2-5,3.2,1.91-5.18-5-3.2h6.18Z"/><path class="cls-1" d="M1866,304.86l1.91,5.18h6.18l-5,3.2,1.91,5.18-5-3.2-5,3.2,1.91-5.18-5-3.2h6.18Z"/><path class="cls-1" d="M1866,304.86l1.91,5.18h6.18l-5,3.2,1.91,5.18-5-3.2-5,3.2,1.91-5.18-5-3.2h6.18Z"/><path class="cls-1" d="M1721,311.86l1.69,5.18h5.45l-4.41,3.2,1.68,5.18-4.41-3.2-4.4,3.2,1.68-5.18-4.41-3.2h5.45Z"/><path class="cls-1" d="M1866,304.86l1.91,5.18h6.18l-5,3.2,1.91,5.18-5-3.2-5,3.2,1.91-5.18-5-3.2h6.18Z"/><path class="cls-1" d="M1688,267.86l1.91,5.18h6.18l-5,3.2,1.91,5.18-5-3.2-5,3.2,1.91-5.18-5-3.2h6.18Z"/><path class="cls-1" d="M475.83,459.26l1.68,4.84H483l-4.41,3,1.69,4.83-4.41-3-4.41,3,1.68-4.83-4.41-3h5.45Z"/><path class="cls-1" d="M568.83,420.26l1.91,5.18h6.17l-5,3.2,1.9,5.19-5-3.21-5,3.21,1.91-5.19-5-3.2h6.18Z"/><path class="cls-1" d="M475.83,459.26l1.68,4.84H483l-4.41,3,1.69,4.83-4.41-3-4.41,3,1.68-4.83-4.41-3h5.45Z"/><path class="cls-1" d="M568.83,420.26l1.91,5.18h6.17l-5,3.2,1.9,5.19-5-3.21-5,3.21,1.91-5.19-5-3.2h6.18Z"/><path class="cls-1" d="M475.83,459.26l1.68,4.84H483l-4.41,3,1.69,4.83-4.41-3-4.41,3,1.68-4.83-4.41-3h5.45Z"/><path class="cls-1" d="M568.83,420.26l1.91,5.18h6.17l-5,3.2,1.9,5.19-5-3.21-5,3.21,1.91-5.19-5-3.2h6.18Z"/><path class="cls-1" d="M436.83,420.26l1.68,4.84H444l-4.41,3,1.69,4.83-4.41-3-4.41,3,1.68-4.83-4.41-3h5.45Z"/><path class="cls-1" d="M491.83,355.26l1.91,5.18h6.17l-5,3.2,1.9,5.19-5-3.21-5,3.21,1.91-5.19-5-3.2h6.18Z"/><path class="cls-1" d="M475.83,459.26l1.68,4.84H483l-4.41,3,1.69,4.83-4.41-3-4.41,3,1.68-4.83-4.41-3h5.45Z"/><path class="cls-1" d="M568.83,420.26l1.91,5.18h6.17l-5,3.2,1.9,5.19-5-3.21-5,3.21,1.91-5.19-5-3.2h6.18Z"/><path class="cls-1" d="M475.83,459.26l1.68,4.84H483l-4.41,3,1.69,4.83-4.41-3-4.41,3,1.68-4.83-4.41-3h5.45Z"/><path class="cls-1" d="M568.83,420.26l1.91,5.18h6.17l-5,3.2,1.9,5.19-5-3.21-5,3.21,1.91-5.19-5-3.2h6.18Z"/><path class="cls-1" d="M475.83,459.26l1.68,4.84H483l-4.41,3,1.69,4.83-4.41-3-4.41,3,1.68-4.83-4.41-3h5.45Z"/><path class="cls-1" d="M568.83,420.26l1.91,5.18h6.17l-5,3.2,1.9,5.19-5-3.21-5,3.21,1.91-5.19-5-3.2h6.18Z"/><path class="cls-1" d="M436.83,420.26l1.68,4.84H444l-4.41,3,1.69,4.83-4.41-3-4.41,3,1.68-4.83-4.41-3h5.45Z"/><path class="cls-1" d="M491.83,355.26l1.91,5.18h6.17l-5,3.2,1.9,5.19-5-3.21-5,3.21,1.91-5.19-5-3.2h6.18Z"/></g></g></svg>