<svg xmlns="http://www.w3.org/2000/svg" viewBox="0 0 336.8 267.33"><defs><style>.cls-1{fill:#fff;}.cls-2{fill:none;}.cls-3{fill:#00e0ff;}</style></defs><title>Layer 8</title><g id="Layer_2" data-name="Layer 2"><g id="Layer_8" data-name="Layer 8"><path class="cls-1" d="M86.5,29l.79,2.42h2.54l-2.06,1.49.79,2.42L86.5,33.84l-2.06,1.49.79-2.42-2.06-1.49h2.54Z"/><path class="cls-1" d="M172.5,90l.79,2.42h2.54l-2.06,1.49.79,2.42-2.06-1.49-2.06,1.49.79-2.42-2.06-1.49h2.54Z"/><path class="cls-1" d="M194.5,21l.79,2.42h2.54l-2.06,1.49.79,2.42-2.06-1.49-2.06,1.49.79-2.42-2.06-1.49h2.54Z"/><path class="cls-1" d="M187.5,70l.79,2.42h2.54l-2.06,1.49.79,2.42-2.06-1.49-2.06,1.49.79-2.42-2.06-1.49h2.54Z"/><path class="cls-1" d="M131.5,93l.79,2.42h2.54l-2.06,1.49.79,2.42-2.06-1.49-2.06,1.49.79-2.42-2.06-1.49h2.54Z"/><path class="cls-1" d="M282,183l.9,2.42h2.9l-2.35,1.49.9,2.42L282,187.84l-2.35,1.49.9-2.42-2.35-1.49h2.9Z"/><path class="cls-1" d="M311,146l.9,2.42h2.9l-2.35,1.49.9,2.42L311,150.84l-2.35,1.49.9-2.42-2.35-1.49h2.9Z"/><path class="cls-1" d="M220,51l.9,2.42h2.9l-2.35,1.49.9,2.42L220,55.84l-2.35,1.49.9-2.42-2.35-1.49h2.9Z"/><path class="cls-1" d="M260,111l.9,2.42h2.9l-2.35,1.49.9,2.42L260,115.84l-2.35,1.49.9-2.42-2.35-1.49h2.9Z"/><path class="cls-1" d="M333,97l.9,2.42h2.9l-2.35,1.49.9,2.42L333,101.84l-2.35,1.49.9-2.42-2.35-1.49h2.9Z"/><path class="cls-1" d="M52,142l.9,2.42h2.9l-2.35,1.49.9,2.42L52,146.84l-2.35,1.49.9-2.42-2.35-1.49h2.9Z"/><path class="cls-1" d="M15,135l.9,2.42h2.9l-2.35,1.49.9,2.42L15,139.84l-2.35,1.49.9-2.42-2.35-1.49h2.9Z"/><path class="cls-1" d="M151,39l.9,2.42h2.9l-2.35,1.49.9,2.42L151,43.84l-2.35,1.49.9-2.42-2.35-1.49h2.9Z"/><path class="cls-1" d="M118,66l.9,2.42h2.9l-2.35,1.49.9,2.42L118,70.84l-2.35,1.49.9-2.42-2.35-1.49h2.9Z"/><path class="cls-1" d="M38,70l.9,2.42h2.9l-2.35,1.49.9,2.42L38,74.84l-2.35,1.49.9-2.42L34.2,72.42h2.9Z"/><path class="cls-1" d="M162.5,6l.79,2.42h2.54l-2.06,1.49.79,2.42-2.06-1.49-2.06,1.49.79-2.42-2.06-1.49h2.54Z"/><path class="cls-1" d="M256.8,66l.9,2.42h2.91l-2.35,1.49.89,2.42-2.35-1.49-2.35,1.49.9-2.42L253,68.42h2.91Z"/><path class="cls-1" d="M290,104l.9,2.42h2.9l-2.35,1.49.9,2.42L290,108.84l-2.35,1.49.9-2.42-2.35-1.49h2.9Z"/><path class="cls-1" d="M217,184l.9,2.42h2.9l-2.35,1.49.9,2.42L217,188.84l-2.35,1.49.9-2.42-2.35-1.49h2.9Z"/><path class="cls-1" d="M311,261l.9,2.42h2.9l-2.35,1.49.9,2.42L311,265.84l-2.35,1.49.9-2.42-2.35-1.49h2.9Z"/><path class="cls-1" d="M268,224l.9,2.42h2.9l-2.35,1.49.9,2.42L268,228.84l-2.35,1.49.9-2.42-2.35-1.49h2.9Z"/><path class="cls-1" d="M208,235l.9,2.42h2.9l-2.35,1.49.9,2.42L208,239.84l-2.35,1.49.9-2.42-2.35-1.49h2.9Z"/><path class="cls-1" d="M224,24l.9,2.42h2.9l-2.35,1.49.9,2.42L224,28.84l-2.35,1.49.9-2.42-2.35-1.49h2.9Z"/><path class="cls-1" d="M250,9l.9,2.42h2.9l-2.35,1.49.9,2.42L250,13.84l-2.35,1.49.9-2.42-2.35-1.49h2.9Z"/><path class="cls-1" d="M27,104l.9,2.42h2.9l-2.35,1.49.9,2.42L27,108.84l-2.35,1.49.9-2.42-2.35-1.49h2.9Z"/><path class="cls-1" d="M140,187l.9,2.42h2.9l-2.35,1.49.9,2.42L140,191.84l-2.35,1.49.9-2.42-2.35-1.49h2.9Z"/><path class="cls-1" d="M33,206l.9,2.42h2.9l-2.35,1.49.9,2.42L33,210.84l-2.35,1.49.9-2.42-2.35-1.49h2.9Z"/><path class="cls-1" d="M101.5,232l.79,2.42h2.54l-2.06,1.49.79,2.42-2.06-1.49-2.06,1.49.79-2.42-2.06-1.49h2.54Z"/><path class="cls-1" d="M91,187l.9,2.42h2.9l-2.35,1.49.9,2.42L91,191.84l-2.35,1.49.9-2.42-2.35-1.49h2.9Z"/><path class="cls-1" d="M8,168l.9,2.42h2.9l-2.35,1.49.9,2.42L8,172.84l-2.35,1.49.9-2.42L4.2,170.42H7.1Z"/><path class="cls-1" d="M82,83l.9,2.42h2.9l-2.35,1.49.9,2.42L82,87.84l-2.35,1.49.9-2.42L78.2,85.42h2.9Z"/><path class="cls-1" d="M19,53l.9,2.42h2.9l-2.35,1.49.9,2.42L19,57.84l-2.35,1.49.9-2.42L15.2,55.42h2.9Z"/><rect class="cls-2" width="137" height="17"/><path class="cls-1" d="M86.5,29l.79,2.42h2.54l-2.06,1.49.79,2.42L86.5,33.84l-2.06,1.49.79-2.42-2.06-1.49h2.54Z"/><path class="cls-1" d="M172.5,90l.79,2.42h2.54l-2.06,1.49.79,2.42-2.06-1.49-2.06,1.49.79-2.42-2.06-1.49h2.54Z"/><path class="cls-1" d="M194.5,21l.79,2.42h2.54l-2.06,1.49.79,2.42-2.06-1.49-2.06,1.49.79-2.42-2.06-1.49h2.54Z"/><path class="cls-1" d="M187.5,70l.79,2.42h2.54l-2.06,1.49.79,2.42-2.06-1.49-2.06,1.49.79-2.42-2.06-1.49h2.54Z"/><path class="cls-1" d="M131.5,93l.79,2.42h2.54l-2.06,1.49.79,2.42-2.06-1.49-2.06,1.49.79-2.42-2.06-1.49h2.54Z"/><path class="cls-1" d="M282,183l.9,2.42h2.9l-2.35,1.49.9,2.42L282,187.84l-2.35,1.49.9-2.42-2.35-1.49h2.9Z"/><path class="cls-1" d="M311,146l.9,2.42h2.9l-2.35,1.49.9,2.42L311,150.84l-2.35,1.49.9-2.42-2.35-1.49h2.9Z"/><path class="cls-1" d="M220,51l.9,2.42h2.9l-2.35,1.49.9,2.42L220,55.84l-2.35,1.49.9-2.42-2.35-1.49h2.9Z"/><path class="cls-1" d="M260,111l.9,2.42h2.9l-2.35,1.49.9,2.42L260,115.84l-2.35,1.49.9-2.42-2.35-1.49h2.9Z"/><path class="cls-1" d="M333,97l.9,2.42h2.9l-2.35,1.49.9,2.42L333,101.84l-2.35,1.49.9-2.42-2.35-1.49h2.9Z"/><path class="cls-1" d="M52,142l.9,2.42h2.9l-2.35,1.49.9,2.42L52,146.84l-2.35,1.49.9-2.42-2.35-1.49h2.9Z"/><path class="cls-1" d="M15,135l.9,2.42h2.9l-2.35,1.49.9,2.42L15,139.84l-2.35,1.49.9-2.42-2.35-1.49h2.9Z"/><path class="cls-1" d="M151,39l.9,2.42h2.9l-2.35,1.49.9,2.42L151,43.84l-2.35,1.49.9-2.42-2.35-1.49h2.9Z"/><path class="cls-1" d="M118,66l.9,2.42h2.9l-2.35,1.49.9,2.42L118,70.84l-2.35,1.49.9-2.42-2.35-1.49h2.9Z"/><path class="cls-1" d="M38,70l.9,2.42h2.9l-2.35,1.49.9,2.42L38,74.84l-2.35,1.49.9-2.42L34.2,72.42h2.9Z"/><path class="cls-1" d="M162.5,6l.79,2.42h2.54l-2.06,1.49.79,2.42-2.06-1.49-2.06,1.49.79-2.42-2.06-1.49h2.54Z"/><path class="cls-1" d="M256.8,66l.9,2.42h2.91l-2.35,1.49.89,2.42-2.35-1.49-2.35,1.49.9-2.42L253,68.42h2.91Z"/><path class="cls-1" d="M290,104l.9,2.42h2.9l-2.35,1.49.9,2.42L290,108.84l-2.35,1.49.9-2.42-2.35-1.49h2.9Z"/><path class="cls-1" d="M217,184l.9,2.42h2.9l-2.35,1.49.9,2.42L217,188.84l-2.35,1.49.9-2.42-2.35-1.49h2.9Z"/><path class="cls-1" d="M311,261l.9,2.42h2.9l-2.35,1.49.9,2.42L311,265.84l-2.35,1.49.9-2.42-2.35-1.49h2.9Z"/><path class="cls-1" d="M268,224l.9,2.42h2.9l-2.35,1.49.9,2.42L268,228.84l-2.35,1.49.9-2.42-2.35-1.49h2.9Z"/><path class="cls-1" d="M208,235l.9,2.42h2.9l-2.35,1.49.9,2.42L208,239.84l-2.35,1.49.9-2.42-2.35-1.49h2.9Z"/><path class="cls-1" d="M224,24l.9,2.42h2.9l-2.35,1.49.9,2.42L224,28.84l-2.35,1.49.9-2.42-2.35-1.49h2.9Z"/><path class="cls-1" d="M250,9l.9,2.42h2.9l-2.35,1.49.9,2.42L250,13.84l-2.35,1.49.9-2.42-2.35-1.49h2.9Z"/><path class="cls-1" d="M27,104l.9,2.42h2.9l-2.35,1.49.9,2.42L27,108.84l-2.35,1.49.9-2.42-2.35-1.49h2.9Z"/><path class="cls-1" d="M140,187l.9,2.42h2.9l-2.35,1.49.9,2.42L140,191.84l-2.35,1.49.9-2.42-2.35-1.49h2.9Z"/><path class="cls-1" d="M33,206l.9,2.42h2.9l-2.35,1.49.9,2.42L33,210.84l-2.35,1.49.9-2.42-2.35-1.49h2.9Z"/><path class="cls-1" d="M101.5,232l.79,2.42h2.54l-2.06,1.49.79,2.42-2.06-1.49-2.06,1.49.79-2.42-2.06-1.49h2.54Z"/><path class="cls-1" d="M91,187l.9,2.42h2.9l-2.35,1.49.9,2.42L91,191.84l-2.35,1.49.9-2.42-2.35-1.49h2.9Z"/><path class="cls-3" d="M221,101l.9,2.42h2.9l-2.35,1.49.9,2.42L221,105.84l-2.35,1.49.9-2.42-2.35-1.49h2.9Z"/><path class="cls-3" d="M123,35l.9,2.42h2.9l-2.35,1.49.9,2.42L123,39.84l-2.35,1.49.9-2.42-2.35-1.49h2.9Z"/><path class="cls-3" d="M319,190l.9,2.42h2.9l-2.35,1.49.9,2.42L319,194.84l-2.35,1.49.9-2.42-2.35-1.49h2.9Z"/><path class="cls-3" d="M152,232l.9,2.42h2.9l-2.35,1.49.9,2.42L152,236.84l-2.35,1.49.9-2.42-2.35-1.49h2.9Z"/><path class="cls-3" d="M173,51l.9,2.42h2.9l-2.35,1.49.9,2.42L173,55.84l-2.35,1.49.9-2.42-2.35-1.49h2.9Z"/><path class="cls-3" d="M173,51l.9,2.42h2.9l-2.35,1.49.9,2.42L173,55.84l-2.35,1.49.9-2.42-2.35-1.49h2.9Z"/><path class="cls-3" d="M18.8,86l.9,2.42h2.91l-2.35,1.49.9,2.42L18.8,90.84l-2.35,1.49.9-2.42L15,88.42h2.91Z"/><path class="cls-3" d="M18.8,86l.9,2.42h2.91l-2.35,1.49.9,2.42L18.8,90.84l-2.35,1.49.9-2.42L15,88.42h2.91Z"/><path class="cls-1" d="M8,168l.9,2.42h2.9l-2.35,1.49.9,2.42L8,172.84l-2.35,1.49.9-2.42L4.2,170.42H7.1Z"/><path class="cls-1" d="M82,83l.9,2.42h2.9l-2.35,1.49.9,2.42L82,87.84l-2.35,1.49.9-2.42L78.2,85.42h2.9Z"/><path class="cls-1" d="M19,53l.9,2.42h2.9l-2.35,1.49.9,2.42L19,57.84l-2.35,1.49.9-2.42L15.2,55.42h2.9Z"/></g></g></svg>