<svg xmlns="http://www.w3.org/2000/svg" viewBox="0 0 951.5 228.31"><defs><style>.cls-1{fill:#fff;}</style></defs><title>Layer 4</title><g id="Layer_2" data-name="Layer 2"><g id="Layer_4" data-name="Layer 4"><ellipse class="cls-1" cx="324" cy="30" rx="16.5" ry="11"/><ellipse class="cls-1" cx="338" cy="39" rx="14.5" ry="9"/><ellipse class="cls-1" cx="351" cy="28" rx="14.5" ry="9"/><ellipse class="cls-1" cx="360" cy="41" rx="14.5" ry="9"/><ellipse class="cls-1" cx="306" cy="37" rx="14.5" ry="9"/><ellipse class="cls-1" cx="325" cy="48" rx="14.5" ry="9"/><ellipse class="cls-1" cx="324" cy="30" rx="16.5" ry="11"/><ellipse class="cls-1" cx="338" cy="39" rx="14.5" ry="9"/><ellipse class="cls-1" cx="351" cy="28" rx="14.5" ry="9"/><ellipse class="cls-1" cx="360" cy="41" rx="14.5" ry="9"/><ellipse class="cls-1" cx="306" cy="37" rx="14.5" ry="9"/><ellipse class="cls-1" cx="325" cy="48" rx="14.5" ry="9"/><ellipse class="cls-1" cx="324" cy="137.56" rx="16.5" ry="11"/><ellipse class="cls-1" cx="338" cy="146.56" rx="14.5" ry="9"/><ellipse class="cls-1" cx="351" cy="135.56" rx="14.5" ry="9"/><ellipse class="cls-1" cx="360" cy="148.56" rx="14.5" ry="9"/><ellipse class="cls-1" cx="306" cy="144.56" rx="14.5" ry="9"/><ellipse class="cls-1" cx="325" cy="155.56" rx="14.5" ry="9"/><ellipse class="cls-1" cx="324" cy="137.56" rx="16.5" ry="11"/><ellipse class="cls-1" cx="338" cy="146.56" rx="14.5" ry="9"/><ellipse class="cls-1" cx="351" cy="135.56" rx="14.5" ry="9"/><ellipse class="cls-1" cx="360" cy="148.56" rx="14.5" ry="9"/><ellipse class="cls-1" cx="306" cy="144.56" rx="14.5" ry="9"/><ellipse class="cls-1" cx="325" cy="155.56" rx="14.5" ry="9"/><ellipse class="cls-1" cx="465.96" cy="11" rx="16.5" ry="11"/><ellipse class="cls-1" cx="479.96" cy="20" rx="14.5" ry="9"/><ellipse class="cls-1" cx="492.96" cy="9" rx="14.5" ry="9"/><ellipse class="cls-1" cx="501.96" cy="22" rx="14.5" ry="9"/><ellipse class="cls-1" cx="447.96" cy="18" rx="14.5" ry="9"/><ellipse class="cls-1" cx="466.96" cy="29" rx="14.5" ry="9"/><ellipse class="cls-1" cx="465.96" cy="11" rx="16.5" ry="11"/><ellipse class="cls-1" cx="479.96" cy="20" rx="14.5" ry="9"/><ellipse class="cls-1" cx="492.96" cy="9" rx="14.5" ry="9"/><ellipse class="cls-1" cx="501.96" cy="22" rx="14.5" ry="9"/><ellipse class="cls-1" cx="447.96" cy="18" rx="14.5" ry="9"/><ellipse class="cls-1" cx="466.96" cy="29" rx="14.5" ry="9"/><ellipse class="cls-1" cx="574.44" cy="171.43" rx="16.5" ry="11"/><ellipse class="cls-1" cx="588.44" cy="180.43" rx="14.5" ry="9"/><ellipse class="cls-1" cx="601.44" cy="169.43" rx="14.5" ry="9"/><ellipse class="cls-1" cx="610.44" cy="182.43" rx="14.5" ry="9"/><ellipse class="cls-1" cx="556.44" cy="178.43" rx="14.5" ry="9"/><ellipse class="cls-1" cx="575.44" cy="189.43" rx="14.5" ry="9"/><ellipse class="cls-1" cx="574.44" cy="171.43" rx="16.5" ry="11"/><ellipse class="cls-1" cx="588.44" cy="180.43" rx="14.5" ry="9"/><ellipse class="cls-1" cx="601.44" cy="169.43" rx="14.5" ry="9"/><ellipse class="cls-1" cx="610.44" cy="182.43" rx="14.5" ry="9"/><ellipse class="cls-1" cx="556.44" cy="178.43" rx="14.5" ry="9"/><ellipse class="cls-1" cx="575.44" cy="189.43" rx="14.5" ry="9"/><ellipse class="cls-1" cx="447.72" cy="170.31" rx="16.5" ry="11"/><ellipse class="cls-1" cx="461.72" cy="179.31" rx="14.5" ry="9"/><ellipse class="cls-1" cx="474.72" cy="168.31" rx="14.5" ry="9"/><ellipse class="cls-1" cx="483.72" cy="181.31" rx="14.5" ry="9"/><ellipse class="cls-1" cx="429.72" cy="177.31" rx="14.5" ry="9"/><ellipse class="cls-1" cx="448.72" cy="188.31" rx="14.5" ry="9"/><ellipse class="cls-1" cx="447.72" cy="170.31" rx="16.5" ry="11"/><ellipse class="cls-1" cx="461.72" cy="179.31" rx="14.5" ry="9"/><ellipse class="cls-1" cx="474.72" cy="168.31" rx="14.5" ry="9"/><ellipse class="cls-1" cx="483.72" cy="181.31" rx="14.5" ry="9"/><ellipse class="cls-1" cx="429.72" cy="177.31" rx="14.5" ry="9"/><ellipse class="cls-1" cx="448.72" cy="188.31" rx="14.5" ry="9"/><ellipse class="cls-1" cx="209" cy="133.62" rx="16.5" ry="11"/><ellipse class="cls-1" cx="223" cy="142.62" rx="14.5" ry="9"/><ellipse class="cls-1" cx="236" cy="131.62" rx="14.5" ry="9"/><ellipse class="cls-1" cx="245" cy="144.62" rx="14.5" ry="9"/><ellipse class="cls-1" cx="191" cy="140.62" rx="14.5" ry="9"/><ellipse class="cls-1" cx="210" cy="151.62" rx="14.5" ry="9"/><ellipse class="cls-1" cx="209" cy="133.62" rx="16.5" ry="11"/><ellipse class="cls-1" cx="223" cy="142.62" rx="14.5" ry="9"/><ellipse class="cls-1" cx="236" cy="131.62" rx="14.5" ry="9"/><ellipse class="cls-1" cx="245" cy="144.62" rx="14.5" ry="9"/><ellipse class="cls-1" cx="191" cy="140.62" rx="14.5" ry="9"/><ellipse class="cls-1" cx="210" cy="151.62" rx="14.5" ry="9"/><ellipse class="cls-1" cx="118.5" cy="33" rx="16.5" ry="11"/><ellipse class="cls-1" cx="132.5" cy="42" rx="14.5" ry="9"/><ellipse class="cls-1" cx="145.5" cy="31" rx="14.5" ry="9"/><ellipse class="cls-1" cx="154.5" cy="44" rx="14.5" ry="9"/><ellipse class="cls-1" cx="100.5" cy="40" rx="14.5" ry="9"/><ellipse class="cls-1" cx="119.5" cy="51" rx="14.5" ry="9"/><ellipse class="cls-1" cx="118.5" cy="33" rx="16.5" ry="11"/><ellipse class="cls-1" cx="132.5" cy="42" rx="14.5" ry="9"/><ellipse class="cls-1" cx="145.5" cy="31" rx="14.5" ry="9"/><ellipse class="cls-1" cx="154.5" cy="44" rx="14.5" ry="9"/><ellipse class="cls-1" cx="100.5" cy="40" rx="14.5" ry="9"/><ellipse class="cls-1" cx="119.5" cy="51" rx="14.5" ry="9"/><ellipse class="cls-1" cx="670.78" cy="31" rx="16.5" ry="11"/><ellipse class="cls-1" cx="684.78" cy="40" rx="14.5" ry="9"/><ellipse class="cls-1" cx="697.78" cy="29" rx="14.5" ry="9"/><ellipse class="cls-1" cx="706.78" cy="42" rx="14.5" ry="9"/><ellipse class="cls-1" cx="652.78" cy="38" rx="14.5" ry="9"/><ellipse class="cls-1" cx="671.78" cy="49" rx="14.5" ry="9"/><ellipse class="cls-1" cx="670.78" cy="31" rx="16.5" ry="11"/><ellipse class="cls-1" cx="684.78" cy="40" rx="14.5" ry="9"/><ellipse class="cls-1" cx="697.78" cy="29" rx="14.5" ry="9"/><ellipse class="cls-1" cx="706.78" cy="42" rx="14.5" ry="9"/><ellipse class="cls-1" cx="652.78" cy="38" rx="14.5" ry="9"/><ellipse class="cls-1" cx="671.78" cy="49" rx="14.5" ry="9"/><ellipse class="cls-1" cx="507.46" cy="97.98" rx="16.5" ry="11"/><ellipse class="cls-1" cx="521.46" cy="106.98" rx="14.5" ry="9"/><ellipse class="cls-1" cx="534.46" cy="95.98" rx="14.5" ry="9"/><ellipse class="cls-1" cx="543.46" cy="108.98" rx="14.5" ry="9"/><ellipse class="cls-1" cx="489.46" cy="104.98" rx="14.5" ry="9"/><ellipse class="cls-1" cx="508.46" cy="115.98" rx="14.5" ry="9"/><ellipse class="cls-1" cx="507.46" cy="97.98" rx="16.5" ry="11"/><ellipse class="cls-1" cx="521.46" cy="106.98" rx="14.5" ry="9"/><ellipse class="cls-1" cx="534.46" cy="95.98" rx="14.5" ry="9"/><ellipse class="cls-1" cx="543.46" cy="108.98" rx="14.5" ry="9"/><ellipse class="cls-1" cx="489.46" cy="104.98" rx="14.5" ry="9"/><ellipse class="cls-1" cx="508.46" cy="115.98" rx="14.5" ry="9"/><ellipse class="cls-1" cx="794.82" cy="50" rx="16.5" ry="11"/><ellipse class="cls-1" cx="808.82" cy="59" rx="14.5" ry="9"/><ellipse class="cls-1" cx="821.82" cy="48" rx="14.5" ry="9"/><ellipse class="cls-1" cx="830.82" cy="61" rx="14.5" ry="9"/><ellipse class="cls-1" cx="776.82" cy="57" rx="14.5" ry="9"/><ellipse class="cls-1" cx="795.82" cy="68" rx="14.5" ry="9"/><ellipse class="cls-1" cx="794.82" cy="50" rx="16.5" ry="11"/><ellipse class="cls-1" cx="808.82" cy="59" rx="14.5" ry="9"/><ellipse class="cls-1" cx="821.82" cy="48" rx="14.5" ry="9"/><ellipse class="cls-1" cx="830.82" cy="61" rx="14.5" ry="9"/><ellipse class="cls-1" cx="776.82" cy="57" rx="14.5" ry="9"/><ellipse class="cls-1" cx="795.82" cy="68" rx="14.5" ry="9"/><ellipse class="cls-1" cx="901" cy="89.98" rx="16.5" ry="11"/><ellipse class="cls-1" cx="915" cy="98.98" rx="14.5" ry="9"/><ellipse class="cls-1" cx="928" cy="87.98" rx="14.5" ry="9"/><ellipse class="cls-1" cx="937" cy="100.98" rx="14.5" ry="9"/><ellipse class="cls-1" cx="883" cy="96.98" rx="14.5" ry="9"/><ellipse class="cls-1" cx="890.64" cy="135.06" rx="14.5" ry="9"/><ellipse class="cls-1" cx="901" cy="89.98" rx="16.5" ry="11"/><ellipse class="cls-1" cx="915" cy="98.98" rx="14.5" ry="9"/><ellipse class="cls-1" cx="928" cy="87.98" rx="14.5" ry="9"/><ellipse class="cls-1" cx="937" cy="100.98" rx="14.5" ry="9"/><ellipse class="cls-1" cx="883" cy="96.98" rx="14.5" ry="9"/><ellipse class="cls-1" cx="890.64" cy="135.06" rx="14.5" ry="9"/><ellipse class="cls-1" cx="32.5" cy="22" rx="16.5" ry="11"/><ellipse class="cls-1" cx="46.5" cy="31" rx="14.5" ry="9"/><ellipse class="cls-1" cx="59.5" cy="20" rx="14.5" ry="9"/><ellipse class="cls-1" cx="68.5" cy="33" rx="14.5" ry="9"/><ellipse class="cls-1" cx="14.5" cy="29" rx="14.5" ry="9"/><ellipse class="cls-1" cx="33.5" cy="40" rx="14.5" ry="9"/><ellipse class="cls-1" cx="32.5" cy="22" rx="16.5" ry="11"/><ellipse class="cls-1" cx="46.5" cy="31" rx="14.5" ry="9"/><ellipse class="cls-1" cx="59.5" cy="20" rx="14.5" ry="9"/><ellipse class="cls-1" cx="68.5" cy="33" rx="14.5" ry="9"/><ellipse class="cls-1" cx="14.5" cy="29" rx="14.5" ry="9"/><ellipse class="cls-1" cx="33.5" cy="40" rx="14.5" ry="9"/><ellipse class="cls-1" cx="45" cy="201.31" rx="16.5" ry="11"/><ellipse class="cls-1" cx="59" cy="210.31" rx="14.5" ry="9"/><ellipse class="cls-1" cx="72" cy="199.31" rx="14.5" ry="9"/><ellipse class="cls-1" cx="81" cy="212.31" rx="14.5" ry="9"/><ellipse class="cls-1" cx="27" cy="208.31" rx="14.5" ry="9"/><ellipse class="cls-1" cx="46" cy="219.31" rx="14.5" ry="9"/><ellipse class="cls-1" cx="45" cy="201.31" rx="16.5" ry="11"/><ellipse class="cls-1" cx="59" cy="210.31" rx="14.5" ry="9"/><ellipse class="cls-1" cx="72" cy="199.31" rx="14.5" ry="9"/><ellipse class="cls-1" cx="81" cy="212.31" rx="14.5" ry="9"/><ellipse class="cls-1" cx="27" cy="208.31" rx="14.5" ry="9"/><ellipse class="cls-1" cx="46" cy="219.31" rx="14.5" ry="9"/><ellipse class="cls-1" cx="849.92" cy="144.06" rx="16.5" ry="11"/><ellipse class="cls-1" cx="863.92" cy="153.06" rx="14.5" ry="9"/><ellipse class="cls-1" cx="876.92" cy="142.06" rx="14.5" ry="9"/><ellipse class="cls-1" cx="885.92" cy="155.06" rx="14.5" ry="9"/><ellipse class="cls-1" cx="831.92" cy="151.06" rx="14.5" ry="9"/><ellipse class="cls-1" cx="850.92" cy="162.06" rx="14.5" ry="9"/><ellipse class="cls-1" cx="849.92" cy="144.06" rx="16.5" ry="11"/><ellipse class="cls-1" cx="863.92" cy="153.06" rx="14.5" ry="9"/><ellipse class="cls-1" cx="876.92" cy="142.06" rx="14.5" ry="9"/><ellipse class="cls-1" cx="885.92" cy="155.06" rx="14.5" ry="9"/><ellipse class="cls-1" cx="831.92" cy="151.06" rx="14.5" ry="9"/><ellipse class="cls-1" cx="850.92" cy="162.06" rx="14.5" ry="9"/></g></g></svg>